<?xml version="1.0" encoding="UTF-8"?>
<svg id="Capa_2" data-name="Capa 2" xmlns="http://www.w3.org/2000/svg" viewBox="0 0 440.35 232.59">
  <defs>
    <style>
      .cls-1 {
        fill: #f7aa44;
        stroke-width: 0px;
      }
    </style>
  </defs>
  <g id="Capa_1-2" data-name="Capa 1">
    <g>
      <path class="cls-1" d="m436.38,174.42c.96-66.03-33.69-150.72-73.76-155.85l-16.48-1.69c-2.85-13.91-8.02-15.5-18.71-16.88h-58.87s-6.05,2.75-6.05,6.05l-233.3-.28c-8.25,0-11.76,2.73-11,10.73-12.24,0-15.55,5.94-14.86,14.86v143.06c-4.82.12-4.27,22.13.55,22.01h66.58c0-47.39,72.91-47.39,72.91,0h167.99c0-49.97,73.67-48.14,73.67.94.89,7.45,13.94,4.18,25.89,4.44,15.48.34,23.33-.01,24.35-1.79,5.28-9.22,7.63-25.6,1.1-25.6ZM71.13,107.51H18.72V31.58h52.41v75.93Zm65.61,1.24h-50.35V30.75h50.35v77.99Zm73.46,1.24h-60.25V29.93h60.25v80.06Zm86.66,73.04h-61.49V29.51h61.49v153.51Zm92.03-97.8h-75.93v-43.74h75.93v43.74Z"/>
      <circle class="cls-1" cx="107.03" cy="201.96" r="30.63"/>
      <circle class="cls-1" cx="348.7" cy="200.76" r="30.63"/>
    </g>
  </g>
</svg>