<?xml version="1.0" encoding="UTF-8"?><svg id="Capa_2" xmlns="http://www.w3.org/2000/svg" viewBox="0 0 335.57 118.24"><g id="Capa_6"><path d="m64.6,46.88c-14.23-1.35-7.54-37.04-6.53-40.25.4-1.25,2.11-3.39,4.15-4.2,2.24-.89,9.53-2.24,15.51-1.53,1.19.14,2.21.32,3.07.53,1.89.53,3.38,1.45,4.46,2.75,1.08,1.3,1.75,2.78,1.99,4.44.24,1.66.05,3.37-.57,5.13-.62,1.76-1.65,3.37-3.1,4.81,1.79.49,3.57,1.15,5.34,1.96,1.77.81,3.26,1.94,4.46,3.38.76.92,1.34,1.99,1.75,3.22.41,1.23.66,2.51.75,3.83.11,1.62,1.69,19.07-31.3,15.94Zm4.18-29.92c.79.04,1.57-.05,2.35-.26.77-.21,1.44-.53,2.01-.95s.98-.94,1.24-1.56c.26-.62.23-1.31-.08-2.09-.14-.39-.4-.69-.8-.9-.4-.21-.83-.33-1.32-.37-.48-.03-.95.02-1.42.16-.46.14-.83.35-1.11.63-.17.18-.34.55-.52,1.14-.17.58-.31,1.18-.41,1.8-.1.62-.15,1.17-.15,1.66s.07.74.21.74Zm1.08,16.6c1.38.25,2.58.26,3.61.03,1.03-.23,1.86-.58,2.48-1.06.62-.48,1.02-1.01,1.21-1.61.19-.6.13-1.15-.18-1.66-.31-.51-.89-.9-1.73-1.16-.84-.26-1.95-.31-3.33-.13-.59.07-1.02.29-1.32.66-.29.37-.51.82-.65,1.35-.14.53-.2,1.1-.18,1.72.02.62.04,1.24.08,1.88Z" fill="#a0cc90" stroke-width="0"/><path d="m133.95,32.32c-1.1,3.32-2.68,6.08-4.75,8.27-2.06,2.2-4.34,3.82-6.84,4.87-2.49,1.05-5.07,1.54-7.71,1.46-2.65-.08-5.12-.74-7.4-1.98-2.29-1.24-4.26-3.04-5.91-5.41-1.65-2.37-2.72-5.3-3.2-8.82-.31-2.25-.38-4.59-.21-7.01.17-2.42.57-4.79,1.19-7.1.62-2.31,1.46-4.49,2.53-6.55,1.07-2.06,2.36-3.87,3.87-5.44,1.55-1.6,3.46-2.79,5.73-3.55C113.52.3,115.85-.05,118.24,0c2.39.06,4.7.52,6.91,1.37,2.22.86,4.05,2.15,5.5,3.86.76.92,1.43,2.06,2.01,3.43.58,1.37,1.07,2.86,1.44,4.47.38,1.6.65,3.28.83,5.04.17,1.76.25,3.48.23,5.18-.02,1.7-.13,3.32-.34,4.87-.21,1.55-.5,2.91-.88,4.09Zm-21.05-3.61c1,.84,2.01,1.18,3.04,1.03,1.03-.15,1.98-.6,2.84-1.35.86-.74,1.59-1.7,2.19-2.86.6-1.16.98-2.36,1.14-3.58.15-1.22.03-2.36-.39-3.41-.41-1.05-1.19-1.84-2.32-2.38-1-.46-1.97-.56-2.92-.32-.95.25-1.81.72-2.58,1.4-.77.69-1.42,1.54-1.93,2.55-.52,1.01-.85,2.06-1.01,3.15-.15,1.09-.09,2.14.21,3.15.29,1.01.87,1.88,1.73,2.6Z" fill="#a0cc90" stroke-width="0"/><path d="m148.14,46.67c-.69.18-1.44.27-2.24.25-.81-.02-1.61-.14-2.4-.36-.79-.22-1.51-.55-2.17-.97-.65-.42-1.14-.95-1.44-1.58-.65-1.26-1.11-2.59-1.37-3.99-.26-1.41-.4-2.85-.41-4.33-.02-1.48.05-2.97.21-4.47.15-1.5.34-2.95.54-4.35.17-1.29.33-2.73.46-4.3.14-1.57.31-3.18.52-4.83.21-1.65.46-3.25.77-4.83.31-1.57.73-3,1.26-4.27.53-1.28,1.19-2.34,1.99-3.19s1.79-1.37,2.99-1.55c1.1-.18,2.19-.03,3.28.47,1.08.5,2.16,1.21,3.22,2.14,1.07.92,2.1,2.01,3.1,3.25,1,1.24,1.94,2.52,2.84,3.83.89,1.31,1.74,2.61,2.53,3.88.79,1.28,1.5,2.39,2.12,3.36.41.67.87,1.41,1.37,2.25.5.83.95,1.53,1.37,2.08.41.55.76.87,1.03.94.27.07.43-.31.46-1.16.03-1.37,0-2.85-.13-4.44-.12-1.59-.27-3.21-.44-4.85-.17-1.65-.37-3.26-.59-4.85-.22-1.59-.42-3.05-.59-4.38-.14-1.22.03-2.27.49-3.16.46-.89,1.12-1.6,1.96-2.14.84-.54,1.8-.88,2.86-1.03,1.07-.15,2.11-.08,3.12.19,1.01.28,1.93.78,2.74,1.5.81.72,1.38,1.67,1.73,2.86.24.81.43,2.02.57,3.61.14,1.59.22,3.38.26,5.38.03,2,.04,4.1.03,6.32-.02,2.22-.07,4.33-.15,6.32-.09,2-.19,3.81-.31,5.44-.12,1.63-.25,2.87-.39,3.72-.38,2.22-1.1,4.19-2.17,5.91-1.07,1.72-2.34,3.03-3.82,3.94-1.48.91-3.07,1.3-4.77,1.19s-3.36-.89-4.98-2.33c-1.44-1.29-2.61-2.83-3.48-4.6-.88-1.78-1.65-3.63-2.32-5.57-.67-1.94-1.32-3.9-1.96-5.88-.64-1.98-1.44-3.84-2.4-5.57-.21,1.18-.33,2.57-.36,4.16-.03,1.59-.07,3.23-.1,4.91-.03,1.68-.1,3.37-.18,5.05-.09,1.68-.28,3.23-.59,4.63-.31,1.41-.78,2.59-1.42,3.55-.64.96-1.51,1.59-2.61,1.89Z" fill="#a0cc90" stroke-width="0"/><path d="m193.81,46.9c-.69.19-1.44.27-2.24.25-.81-.02-1.61-.14-2.4-.36-.79-.22-1.51-.55-2.17-.98-.65-.43-1.14-.96-1.44-1.59-.65-1.26-1.11-2.6-1.37-4.01-.26-1.41-.4-2.86-.41-4.35-.02-1.49.05-2.98.21-4.49.15-1.5.34-2.96.54-4.38.17-1.3.33-2.74.46-4.32.14-1.58.31-3.2.52-4.85.21-1.65.46-3.27.77-4.85.31-1.58.73-3.01,1.26-4.29.53-1.28,1.2-2.35,1.99-3.21.79-.85,1.79-1.37,2.99-1.56,1.1-.19,2.19-.03,3.28.47,1.08.5,2.16,1.22,3.22,2.15,1.07.93,2.1,2.02,3.1,3.26,1,1.25,1.94,2.53,2.84,3.85.89,1.32,1.74,2.62,2.53,3.9.79,1.28,1.5,2.41,2.12,3.37.41.67.87,1.42,1.37,2.26.5.84.96,1.53,1.37,2.09.41.56.76.87,1.03.95.27.07.43-.32.46-1.17.03-1.37,0-2.86-.13-4.46-.12-1.6-.27-3.22-.44-4.88-.17-1.65-.37-3.28-.59-4.88-.22-1.6-.42-3.07-.59-4.4-.14-1.23.03-2.29.49-3.18.46-.89,1.12-1.61,1.96-2.15.84-.54,1.8-.88,2.86-1.03,1.07-.15,2.11-.08,3.12.19,1.01.28,1.93.78,2.74,1.51.81.72,1.38,1.68,1.73,2.87.24.82.43,2.03.57,3.62.14,1.6.22,3.4.26,5.41.03,2.01.04,4.13.03,6.36-.02,2.23-.07,4.35-.15,6.35-.09,2.01-.19,3.83-.31,5.46-.12,1.64-.25,2.88-.39,3.73-.38,2.23-1.1,4.21-2.17,5.94-1.07,1.73-2.34,3.05-3.82,3.96-1.48.91-3.07,1.31-4.77,1.2-1.7-.11-3.36-.89-4.98-2.34-1.44-1.3-2.61-2.84-3.48-4.63-.88-1.78-1.65-3.65-2.32-5.6-.67-1.95-1.32-3.92-1.96-5.91-.64-1.99-1.44-3.85-2.4-5.6-.21,1.19-.33,2.58-.36,4.18-.03,1.6-.07,3.24-.1,4.93-.03,1.69-.09,3.38-.18,5.07-.09,1.69-.28,3.24-.59,4.65-.31,1.41-.78,2.6-1.42,3.57-.64.97-1.5,1.6-2.61,1.9Z" fill="#a0cc90" stroke-width="0"/><path d="m244.12,44.67c-.31.49-.76.91-1.34,1.25-.59.34-1.23.61-1.94.82-.71.21-1.42.34-2.14.4-.72.06-1.36.03-1.91-.08-.41-.08-.83-.17-1.26-.28-.43-.11-.83-.26-1.21-.45-.55-.23-1.02-.58-1.39-1.08-.38-.49-.71-1-.98-1.53-.31-.64-.56-1.31-.75-2.01-.19-.7-.34-1.41-.44-2.12-.21-1.4-.35-2.78-.44-4.16-.09-1.38-.13-2.78-.13-4.22v-.76c0-.24-.02-.5-.05-.76-.28-4.87-.22-9.73.15-14.6.14-1.96.33-3.91.57-5.86.24-1.94.7-3.82,1.39-5.63.31-.91.84-1.66,1.6-2.26.58-.49,1.25-.83,1.99-1.02.74-.19,1.47-.28,2.19-.28.79-.04,1.57,0,2.32.14.76.13,1.5.33,2.22.59.45.19.89.39,1.34.59.45.21.86.46,1.24.76.69.53,1.25,1.24,1.68,2.12.43.89.65,1.76.65,2.63,0,1.17-.11,2.32-.34,3.45-.22,1.13-.46,2.25-.7,3.34-.28,1.47-.54,2.93-.8,4.39-.26,1.45-.47,2.91-.64,4.39-.17,1.74-.28,3.47-.31,5.21-.03,1.74,0,3.47.1,5.21.07,1.47.15,2.93.26,4.39.1,1.45.07,2.9-.1,4.33-.07.53-.15,1.07-.26,1.61-.1.55-.29,1.05-.57,1.5Z" fill="#a0cc90" stroke-width="0"/><path d="m275.54,42.43c-.9.56-1.94,1.11-3.15,1.66-1.2.54-2.49,1.04-3.84,1.49-1.36.45-2.74.81-4.15,1.09-1.41.28-2.78.44-4.1.48-1.32.04-2.57-.08-3.74-.34-1.17-.26-2.17-.73-2.99-1.4-.93-.71-1.62-1.89-2.06-3.54-.45-1.65-.75-3.42-.9-5.33s-.22-3.82-.18-5.73c.03-1.91.07-3.48.1-4.71,0-.75.03-1.76.08-3.03.05-1.27.12-2.66.21-4.15.09-1.5.2-3.05.34-4.66.14-1.61.31-3.14.52-4.6.21-1.46.46-2.77.77-3.93.31-1.16.67-2.06,1.08-2.69.52-.79,1.38-1.39,2.58-1.82,1.2-.43,2.5-.74,3.9-.93C261.38.09,262.77,0,264.16,0h3.43c.76.04,1.72.09,2.89.17,1.17.08,2.35.23,3.53.48,1.19.24,2.29.57,3.3.98,1.01.41,1.73.97,2.14,1.68.24.41.37.95.39,1.63.02.67-.03,1.38-.15,2.11-.12.73-.28,1.44-.49,2.13-.21.69-.41,1.26-.62,1.71-.52,1.12-1.31,1.86-2.37,2.22-1.07.36-2.24.5-3.53.42-1.29-.07-2.61-.29-3.97-.65-1.36-.35-2.61-.68-3.74-.98-.79-.22-1.49-.33-2.09-.31-.6.02-.97.46-1.11,1.32-.03.19-.09.42-.18.7-.09.28-.15.56-.21.84-.05.28-.06.52-.03.73.03.21.14.35.31.42.41.19,1.14.31,2.17.36s2.12.11,3.28.17,2.23.14,3.22.25c1,.11,1.67.32,2.01.62.45.37.73,1.05.85,2.02.12.97.1,1.99-.05,3.06-.15,1.07-.43,2.05-.83,2.95-.4.9-.87,1.46-1.42,1.68-.41.19-1.05.27-1.91.25-.86-.02-1.76-.08-2.71-.2-.95-.11-1.86-.24-2.73-.39-.88-.15-1.54-.26-1.99-.34-.03.52-.09,1.15-.18,1.88s-.13,1.46-.13,2.19.07,1.39.21,1.96c.14.58.43.96.88,1.15.27.11.71.1,1.32-.03.6-.13,1.28-.33,2.04-.59.76-.26,1.56-.56,2.4-.9.84-.34,1.64-.64,2.4-.9.76-.26,1.44-.48,2.04-.65.6-.17,1.06-.23,1.37-.2,1.24.22,2.23.87,2.97,1.94.74,1.07,1.19,2.27,1.37,3.62.17,1.35.04,2.67-.39,3.96-.43,1.29-1.2,2.27-2.3,2.95Z" fill="#a0cc90" stroke-width="0"/><path d="m47.73,117.83c-1.12.19-2.2.23-3.24.11-1.04-.12-1.98-.38-2.82-.8-.84-.41-1.57-.97-2.18-1.66-.61-.69-1.06-1.52-1.36-2.5-.2-.64-.36-1.43-.49-2.39-.13-.96-.23-1.98-.29-3.08-.06-1.09-.07-2.23-.04-3.39.04-1.17.13-2.28.29-3.35.16-1.06.38-2.04.66-2.93.28-.89.64-1.61,1.08-2.17.49-.64,1.16-1.07,2.01-1.29.85-.22,1.72-.27,2.58-.14.87.13,1.65.42,2.36.88.71.46,1.17,1.05,1.39,1.77.32,1.08.43,2.2.33,3.35-.1,1.15-.24,2.29-.42,3.44s-.31,2.28-.38,3.41c-.07,1.13.09,2.22.48,3.28.1.28.29.49.59.64.29.15.62.28.97.38.35.11.7.22,1.03.35.33.13.58.32.75.57.37.51.58,1.05.64,1.63.06.57-.04,1.12-.29,1.64-.26.52-.68.98-1.28,1.39-.6.4-1.39.69-2.36.86Z" fill="#fbc46f" stroke-width="0"/><path d="m75.75,112.44c.2.94.17,1.77-.07,2.5-.24.73-.63,1.32-1.15,1.78-.53.46-1.14.77-1.83.92s-1.4.16-2.12,0c-.72-.16-1.41-.48-2.07-.97-.66-.49-1.2-1.19-1.61-2.08-.95,1.03-2.05,1.78-3.28,2.25-1.23.47-2.47.66-3.72.57-1.25-.09-2.41-.46-3.5-1.12-1.09-.66-1.94-1.6-2.55-2.83-.71-1.43-1.06-3.02-1.06-4.76s.27-3.47.82-5.18,1.34-3.31,2.36-4.8c1.03-1.49,2.22-2.69,3.59-3.61.51-.36,1.1-.6,1.76-.72.66-.12,1.34-.15,2.03-.08s1.37.22,2.03.47c.66.25,1.25.56,1.76.94.66-.6,1.38-1.03,2.16-1.27.78-.25,1.51-.31,2.2-.18.68.12,1.26.43,1.74.91.48.48.74,1.16.79,2.03.02.58-.01,1.16-.11,1.73-.1.57-.2,1.14-.29,1.71-.1.57-.18,1.14-.26,1.71-.07.57-.09,1.15-.04,1.73.07.72.21,1.43.4,2.13.2.7.41,1.4.66,2.08.24.68.49,1.37.75,2.06.26.69.46,1.4.6,2.11Zm-14.28-7.72c-.32.74-.44,1.41-.37,2.03.07.62.27,1.07.6,1.38.33.3.73.42,1.21.35s.96-.42,1.45-1.07c.49-.63.79-1.24.92-1.83.12-.59.13-1.11.02-1.54s-.31-.78-.6-1.04c-.29-.26-.63-.38-1.01-.37-.38.01-.76.18-1.15.52-.39.34-.75.86-1.06,1.58Z" fill="#fbc46f" stroke-width="0"/><path d="m90.22,114.85c-.88.78-1.92,1.43-3.13,1.94-1.21.51-2.41.82-3.61.93-1.2.11-2.32-.02-3.37-.39-1.05-.37-1.84-1.05-2.38-2.06-.2-.37-.32-.77-.37-1.21-.05-.43-.03-.87.05-1.3.09-.43.25-.84.49-1.21.24-.37.56-.67.95-.91.44-.26.96-.47,1.56-.62.6-.15,1.14-.3,1.63-.46.49-.15.84-.32,1.04-.51s.13-.44-.24-.77c-.42-.35-.86-.68-1.34-1.01s-.93-.66-1.37-1.01c-.44-.35-.84-.71-1.21-1.09-.37-.38-.64-.81-.81-1.29-.39-1.02-.51-2.01-.37-2.95.15-.95.48-1.81,1.01-2.59.52-.78,1.21-1.48,2.05-2.09.84-.61,1.79-1.09,2.84-1.44,1.05-.35,2.15-.55,3.31-.62,1.16-.07,2.33.04,3.5.33.83.22,1.48.65,1.94,1.29.46.64.73,1.33.79,2.07.06.74-.09,1.45-.44,2.14-.35.68-.93,1.17-1.74,1.45-.44.17-.96.26-1.56.24-.6-.01-1.16-.01-1.68,0-.53.01-.95.08-1.26.2-.32.12-.4.39-.26.8.07.22.26.46.57.73.3.27.65.54,1.03.8.38.26.76.51,1.14.73.38.23.67.41.86.54,1.2.76,2.02,1.56,2.47,2.4.45.84.64,1.66.57,2.48-.07.82-.36,1.6-.86,2.37-.5.76-1.11,1.46-1.81,2.09Z" fill="#fbc46f" stroke-width="0"/><path d="m12.47,116.9c-.49.42-1.09.68-1.79.79s-1.39.09-2.06-.04c-.67-.14-1.27-.39-1.81-.76-.54-.37-.88-.83-1.02-1.39-.1-.4-.04-.91.2-1.55.24-.64.54-1.29.9-1.95.36-.67.73-1.31,1.11-1.94.38-.63.67-1.12.85-1.48-1.05.16-2.04.12-2.97-.1s-1.77-.61-2.52-1.13c-.75-.53-1.39-1.17-1.92-1.92s-.91-1.59-1.16-2.49c-.25-.9-.33-1.85-.25-2.83.08-.98.36-1.96.84-2.94.21-.42.51-.78.91-1.07s.84-.53,1.3-.69c.46-.16.94-.24,1.44-.25.49,0,.94.04,1.33.16.39.12.72.31.97.58.26.27.39.61.39,1.03,0,1.53.08,2.7.25,3.52.16.82.39,1.34.67,1.58.28.24.61.22.99-.04.38-.27.79-.73,1.24-1.37.44-.65.9-1.45,1.38-2.4.47-.95.96-2.01,1.45-3.16.14-.36.44-.6.88-.73.44-.13.92-.16,1.44-.1.52.06,1.01.2,1.48.42.47.22.84.5,1.08.83.25.34.41.78.49,1.33.08.55.1,1.14.06,1.77-.04.64-.12,1.31-.25,2.01-.12.71-.26,1.39-.42,2.04-.15.66-.31,1.28-.48,1.86-.17.59-.31,1.08-.43,1.48-.1.38-.25.87-.43,1.48-.19.61-.4,1.27-.63,2-.24.73-.49,1.48-.77,2.25-.28.78-.57,1.51-.88,2.19-.31.69-.62,1.3-.93,1.83-.31.54-.62.93-.93,1.19Z" fill="#fbc46f" stroke-width="0"/><path d="m159.31,117.75c-1.5.07-2.84-.16-4.03-.67-1.19-.52-2.2-1.24-3.05-2.17-.85-.93-1.53-2.02-2.03-3.26-.5-1.25-.83-2.57-.97-3.97-.15-1.4-.1-2.83.13-4.29.23-1.46.68-2.87,1.33-4.24.54-1.17,1.29-2.13,2.25-2.9.96-.76,2.03-1.31,3.2-1.65,1.17-.34,2.4-.47,3.69-.39,1.29.08,2.52.37,3.71.86.72.31,1.32.76,1.81,1.35.49.58.86,1.25,1.11,1.99.25.74.37,1.53.37,2.36s-.12,1.64-.35,2.42c-.23.79-.59,1.51-1.06,2.19-.47.67-1.06,1.22-1.78,1.65-.43.25-.95.4-1.58.47-.63.07-1.27.08-1.93.03-.66-.04-1.31-.15-1.95-.3-.64-.16-1.19-.33-1.66-.5-.02.25-.04.58-.07,1.01-.02.43.01.84.1,1.25.09.4.26.76.52,1.06.26.3.67.45,1.22.45.42,0,.84-.08,1.26-.24.41-.16.86-.31,1.33-.47s.98-.28,1.53-.37c.55-.09,1.15-.06,1.8.1.49.11.87.31,1.12.61.26.29.42.63.5,1.03.08.39.08.83,0,1.31-.08.48-.2.97-.35,1.46-.2.58-.52,1.11-.96,1.57-.44.46-.94.85-1.51,1.18s-1.18.58-1.83.77c-.65.19-1.27.3-1.88.32Zm-.3-17.57c-.51.22-.89.49-1.14.81-.25.31-.36.6-.34.86.02.26.17.44.45.54.28.1.69.04,1.22-.19.36-.16.62-.38.77-.66.16-.28.22-.54.2-.79-.02-.25-.13-.44-.34-.57-.2-.13-.48-.13-.84,0Z" fill="#fbc46f" stroke-width="0"/><path d="m180.07,114.85c-.81.78-1.76,1.43-2.87,1.94-1.11.51-2.21.82-3.3.93-1.1.11-2.12-.02-3.09-.39-.96-.37-1.69-1.05-2.18-2.06-.18-.37-.29-.77-.34-1.21-.05-.43-.03-.87.05-1.3.08-.43.23-.84.45-1.21.22-.37.51-.67.87-.91.4-.26.88-.47,1.43-.62.55-.15,1.05-.3,1.49-.46.45-.15.77-.32.96-.51s.12-.44-.22-.77c-.38-.35-.79-.68-1.22-1.01s-.86-.66-1.26-1.01c-.4-.35-.77-.71-1.11-1.09-.34-.38-.58-.81-.74-1.29-.36-1.02-.47-2.01-.34-2.95.13-.95.44-1.81.92-2.59.48-.78,1.11-1.48,1.88-2.09.77-.61,1.64-1.09,2.6-1.44.96-.35,1.97-.55,3.04-.62,1.06-.07,2.13.04,3.2.33.76.22,1.35.65,1.78,1.29.42.64.67,1.33.72,2.07.06.74-.08,1.45-.4,2.14-.32.68-.86,1.17-1.59,1.45-.4.17-.88.26-1.43.24-.55-.01-1.06-.01-1.54,0-.48.01-.87.08-1.16.2-.29.12-.37.39-.23.8.07.22.24.46.52.73.28.27.59.54.94.8.35.26.69.51,1.04.73s.61.41.79.54c1.1.76,1.85,1.56,2.26,2.4.41.84.59,1.66.52,2.48-.07.82-.33,1.6-.79,2.37s-1.01,1.46-1.66,2.09Z" fill="#fbc46f" stroke-width="0"/><path d="m199.94,116.19c-.67.45-1.42.81-2.25,1.07-.83.27-1.67.42-2.53.48-.86.05-1.72.01-2.57-.12s-1.63-.37-2.33-.72-1.31-.79-1.81-1.33c-.5-.54-.86-1.19-1.06-1.95-.31-1.23-.47-2.48-.47-3.76s.02-2.55.07-3.82c-.74.06-1.34-.06-1.81-.37-.47-.31-.81-.71-1.02-1.21-.21-.5-.29-1.06-.23-1.69.06-.62.24-1.24.55-1.86.11-.22.29-.4.52-.54.23-.13.49-.23.77-.29.28-.06.57-.11.87-.14.3-.03.59-.05.86-.05.02-.2.08-.52.17-.95.09-.43.19-.87.3-1.33.11-.46.24-.89.39-1.3.15-.41.29-.71.42-.89.36-.43.81-.74,1.34-.94.54-.19,1.11-.3,1.73-.31.61-.01,1.23.06,1.85.22.61.15,1.18.36,1.69.63.34.18.55.44.65.78.1.34.15.71.13,1.1s-.07.81-.18,1.23c-.11.42-.21.79-.3,1.12.6.02,1.2.11,1.8.26.59.15,1.12.37,1.59.66.47.29.84.64,1.12,1.06.28.42.41.9.39,1.46-.02.76-.22,1.38-.6,1.87-.38.49-.87.86-1.48,1.12-.6.26-1.29.4-2.05.44-.76.04-1.54-.02-2.35-.18-.18.57-.27,1.16-.27,1.76s.06,1.2.17,1.79c.07.37.21.58.44.63.22.05.5.03.84-.06s.7-.22,1.09-.4c.39-.17.79-.3,1.19-.38.69-.14,1.31-.13,1.84.05.54.17.99.45,1.36.84.37.39.64.84.81,1.36.17.52.22,1.06.17,1.63-.06.56-.23,1.11-.52,1.64-.29.53-.72.99-1.27,1.38Z" fill="#fbc46f" stroke-width="0"/><path d="m223.96,112.44c.18.94.16,1.77-.07,2.5-.22.73-.58,1.32-1.06,1.78-.48.46-1.04.77-1.68.92s-1.29.16-1.95,0-1.29-.48-1.9-.97c-.6-.49-1.1-1.19-1.48-2.08-.87,1.03-1.87,1.78-3,2.25-1.13.47-2.26.66-3.4.57-1.14-.09-2.21-.46-3.2-1.12-1-.66-1.77-1.6-2.33-2.83-.65-1.43-.97-3.02-.97-4.76s.25-3.47.75-5.18,1.22-3.31,2.16-4.8c.94-1.49,2.04-2.69,3.29-3.61.47-.36,1.01-.6,1.61-.72.6-.12,1.22-.15,1.86-.08s1.26.22,1.86.47c.6.25,1.14.56,1.61.94.6-.6,1.26-1.03,1.98-1.27.72-.25,1.39-.31,2.01-.18.63.12,1.16.43,1.59.91.44.48.68,1.16.72,2.03.02.58-.01,1.16-.1,1.73s-.18,1.14-.27,1.71c-.09.57-.17,1.14-.23,1.71s-.08,1.15-.03,1.73c.07.72.19,1.43.37,2.13.18.7.38,1.4.6,2.08.22.68.45,1.37.69,2.06.23.69.42,1.4.55,2.11Zm-13.08-7.72c-.29.74-.4,1.41-.34,2.03.07.62.25,1.07.55,1.38.3.3.67.42,1.11.35s.88-.42,1.33-1.07c.45-.63.73-1.24.84-1.83s.12-1.11.02-1.54c-.1-.44-.29-.78-.55-1.04-.27-.26-.58-.38-.92-.37s-.7.18-1.06.52-.68.86-.97,1.58Z" fill="#fbc46f" stroke-width="0"/><path d="m242.17,115.6c-1.39,1.01-2.9,1.67-4.55,1.97-1.64.3-3.23.25-4.76-.14-1.53-.39-2.91-1.11-4.14-2.15-1.23-1.05-2.14-2.4-2.72-4.05-.54-1.54-.78-3.05-.74-4.53.04-1.48.31-2.88.81-4.19.49-1.31,1.16-2.5,2-3.59s1.78-1.99,2.83-2.74c1.05-.75,2.16-1.29,3.34-1.64s2.34-.44,3.49-.28c1.15.16,2.25.61,3.3,1.35,1.05.74,1.97,1.82,2.75,3.24.36.64.47,1.36.34,2.14-.13.78-.42,1.49-.87,2.14-.45.64-1.01,1.15-1.68,1.53-.67.38-1.35.49-2.05.33-.42-.09-.95-.25-1.58-.48-.63-.23-1.26-.44-1.9-.64-.64-.19-1.24-.31-1.79-.34-.56-.03-1,.1-1.31.4-.4.39-.63.86-.69,1.41-.06.55.02,1.08.24,1.59.21.51.53.95.96,1.35.42.39.93.62,1.51.69.49.07.97.05,1.44-.07.47-.11.94-.26,1.43-.43.48-.17.96-.34,1.44-.5.48-.16.97-.26,1.46-.31.96-.07,1.73.2,2.3.79.57.6.92,1.33,1.06,2.21.13.87.04,1.78-.27,2.71-.31.93-.86,1.68-1.64,2.26Z" fill="#fbc46f" stroke-width="0"/><path d="m253.78,116.55c-.25.31-.58.56-.99.73-.41.18-.86.3-1.34.38-.48.08-.96.11-1.44.08-.48-.02-.9-.1-1.26-.23-.6-.2-1.09-.62-1.44-1.27-.36-.64-.64-1.37-.84-2.19-.2-.81-.34-1.64-.42-2.5-.08-.86-.14-1.6-.18-2.22-.04-.47-.04-1.02.02-1.65.06-.63.16-1.26.3-1.88.15-.62.35-1.19.6-1.72.26-.52.58-.91.96-1.15.4-.24.88-.42,1.43-.52.55-.1,1.1-.12,1.64-.07.55.06,1.06.19,1.53.42.47.22.84.53,1.11.93.2.29.33.77.39,1.45.06.68.08,1.4.07,2.17-.01.77-.03,1.51-.05,2.22s-.02,1.23,0,1.57c.02.31.07.72.13,1.23.07.51.12,1.04.15,1.58.03.55.03,1.06-.02,1.55-.04.49-.16.85-.34,1.07Zm.57-17.21c-.56.58-1.23,1.07-2.01,1.48-.78.41-1.57.57-2.35.48-.49-.04-.92-.24-1.29-.58-.37-.34-.73-.68-1.09-1.02-.74-.71-1.04-1.43-.91-2.17.13-.73.54-1.38,1.21-1.93.67-.56,1.52-.96,2.55-1.22,1.03-.26,2.05-.27,3.05-.05.56.13.99.39,1.29.77.3.38.49.82.55,1.32.07.5.02,1.01-.15,1.53-.17.52-.45.98-.86,1.38Z" fill="#fbc46f" stroke-width="0"/><path d="m270.96,116.4c-1.54.86-3.04,1.31-4.5,1.35-1.45.05-2.78-.23-3.99-.82s-2.27-1.44-3.19-2.55-1.62-2.39-2.11-3.84c-.49-1.45-.74-3.01-.74-4.69s.31-3.37.94-5.08c.51-1.43,1.26-2.64,2.23-3.61.97-.97,2.05-1.71,3.24-2.2,1.19-.5,2.43-.76,3.74-.78,1.31-.02,2.57.19,3.77.64s2.31,1.14,3.32,2.08c1.01.94,1.8,2.11,2.38,3.52.36.86.59,1.79.69,2.79.1,1.01.09,2.02-.02,3.05-.11,1.03-.32,2.05-.64,3.07-.31,1.02-.72,1.98-1.21,2.88s-1.07,1.71-1.73,2.43c-.66.72-1.39,1.3-2.2,1.73Zm-5.54-12.88c-.51.67-.85,1.34-1.01,2s-.18,1.26-.07,1.81.32.99.64,1.35c.31.36.67.57,1.07.64.4.07.83-.04,1.27-.31.45-.28.87-.8,1.27-1.56.42-.83.61-1.64.55-2.43-.06-.79-.27-1.42-.64-1.89-.37-.47-.84-.71-1.41-.71s-1.14.37-1.69,1.11Z" fill="#fbc46f" stroke-width="0"/><path d="m299.95,114.23c-.31.92-.81,1.68-1.48,2.27-.67.59-1.41.98-2.21,1.15-.81.18-1.6.13-2.38-.13-.78-.26-1.43-.81-1.95-1.65-.31-.51-.51-1.19-.59-2.06-.08-.87-.1-1.81-.07-2.82.03-1.01.07-2.04.12-3.08.04-1.04.03-1.98-.05-2.82-.08-.83-.25-1.51-.5-2.03-.26-.52-.69-.76-1.29-.74-.78.02-1.35.36-1.71,1.02-.36.66-.59,1.46-.69,2.41s-.11,1.93-.02,2.97.18,1.93.27,2.7c.02.26.04.63.05,1.09.01.46,0,.93-.03,1.4-.03.47-.1.92-.2,1.35-.1.43-.24.74-.42.94-.29.33-.65.59-1.07.79-.42.2-.87.33-1.34.4-.47.07-.95.07-1.44.02-.49-.06-.95-.16-1.38-.31-.56-.2-1.01-.53-1.34-1-.34-.47-.59-1.03-.77-1.68-.18-.65-.29-1.35-.34-2.11-.04-.76-.07-1.52-.07-2.29s.02-1.52.05-2.26c.03-.74.04-1.4.02-1.99,0-.66-.05-1.31-.15-1.96-.1-.65-.2-1.3-.29-1.94-.09-.65-.16-1.3-.2-1.94-.04-.65-.01-1.29.1-1.93.13-.9.44-1.64.91-2.21.47-.57,1.01-.99,1.63-1.25.61-.26,1.26-.37,1.95-.33.68.04,1.3.24,1.86.58.56.34,1.02.83,1.37,1.47.36.64.54,1.41.54,2.31.74-1.05,1.63-1.92,2.67-2.59,1.04-.67,2.1-1.08,3.17-1.22,1.07-.14,2.09,0,3.05.44.96.44,1.72,1.23,2.28,2.37.27.55.53,1.26.79,2.14.26.88.49,1.83.69,2.87.2,1.03.37,2.11.52,3.25.14,1.13.25,2.22.3,3.28.06,1.05.06,2.03,0,2.93-.06.9-.17,1.64-.35,2.21Z" fill="#fbc46f" stroke-width="0"/><path d="m312.06,117.74c-1.5.07-2.84-.16-4.03-.67-1.19-.52-2.2-1.24-3.05-2.17-.85-.93-1.53-2.02-2.03-3.26-.5-1.25-.83-2.57-.97-3.97-.15-1.4-.1-2.83.13-4.29.23-1.46.68-2.87,1.32-4.24.54-1.17,1.29-2.13,2.25-2.89.96-.76,2.03-1.31,3.2-1.65,1.17-.34,2.4-.47,3.69-.39,1.29.08,2.52.37,3.71.86.72.31,1.32.76,1.81,1.35s.86,1.24,1.11,1.98c.25.74.37,1.53.37,2.36s-.12,1.64-.35,2.42-.59,1.51-1.06,2.19c-.47.67-1.06,1.22-1.78,1.65-.42.25-.95.4-1.58.47-.63.07-1.27.08-1.93.03-.66-.04-1.31-.15-1.95-.3-.64-.16-1.19-.32-1.66-.5-.02.25-.04.58-.07,1.01-.02.43.01.84.1,1.25.09.4.26.76.52,1.06.26.3.67.45,1.22.45.42,0,.84-.08,1.26-.24.41-.16.86-.31,1.33-.47.47-.16.98-.28,1.53-.37s1.15-.06,1.79.1c.49.11.87.31,1.12.61.26.29.42.63.5,1.03.08.39.08.83,0,1.31-.08.48-.2.97-.35,1.46-.2.58-.52,1.11-.96,1.56-.44.46-.94.85-1.51,1.18s-1.18.58-1.83.77c-.65.19-1.27.3-1.88.32Zm-.3-17.56c-.51.22-.89.49-1.14.81-.25.31-.36.6-.34.86.02.26.17.44.45.54s.69.04,1.22-.19c.36-.16.62-.37.77-.66.16-.28.22-.54.2-.79-.02-.25-.13-.44-.34-.57-.2-.13-.48-.13-.84,0Z" fill="#fbc46f" stroke-width="0"/><path d="m332.82,114.85c-.81.78-1.76,1.43-2.87,1.94-1.11.51-2.21.82-3.3.93-1.1.11-2.12-.02-3.09-.39-.96-.37-1.69-1.05-2.18-2.06-.18-.37-.29-.77-.34-1.21-.04-.43-.03-.87.05-1.3s.23-.84.45-1.21c.22-.37.51-.67.87-.91.4-.26.88-.47,1.43-.62.55-.15,1.05-.3,1.49-.46.45-.15.77-.32.96-.51s.12-.44-.22-.77c-.38-.35-.79-.68-1.22-1.01s-.86-.66-1.26-1.01c-.4-.35-.77-.71-1.11-1.09s-.58-.81-.74-1.29c-.36-1.02-.47-2.01-.34-2.95.13-.95.44-1.81.92-2.59.48-.78,1.11-1.48,1.88-2.09.77-.61,1.64-1.09,2.6-1.44s1.97-.55,3.04-.62c1.06-.07,2.13.04,3.2.33.76.22,1.35.65,1.78,1.29.42.64.67,1.33.72,2.07.06.74-.08,1.45-.4,2.14-.32.68-.86,1.17-1.59,1.45-.4.17-.88.26-1.43.24-.55-.01-1.06-.01-1.54,0-.48.01-.87.08-1.16.2-.29.12-.37.39-.23.8.07.22.24.46.52.73.28.27.59.54.94.8.35.26.69.51,1.04.73.35.23.61.41.79.54,1.1.76,1.85,1.56,2.26,2.4.41.84.59,1.66.52,2.48-.07.82-.33,1.6-.79,2.37s-1.01,1.46-1.66,2.09Z" fill="#fbc46f" stroke-width="0"/><path d="m69.21,69.1c-.06-.06-.13-.15-.23-.25,0,0,0,0,0,.01.07.08.14.16.22.24Z" fill="#d24672" stroke-width="0"/><path d="m59.84,71.12c-.05-.06-.06-.07,0,0h0Z" fill="#d24672" stroke-width="0"/><path d="m88.74,72.91c-6.8.65-14.73,1.03-19.94-4.24-2.21-2.24-3.65-5.02-6.44-6.67-3.08-1.81-6.68-2.37-10.19-2.61-2.27-.15-4.5-.1-6.74.39-4.16.91-7.67,3.47-10.9,6.12-2.89,2.37-5.51,5.23-8.96,6.81-2.21,1.02-5.06,1.52-7.26.2-.89-.54-1.61-1.33-2.25-2.16-3.26-4.18-5.38-9.33-7.1-14.31-.75-2.18-3.06-3.85-5.43-3.08-2.16.7-3.89,3.09-3.08,5.43,1.37,3.97,2.96,7.9,4.95,11.6.92,1.71,1.95,3.38,3.11,4.94,1.48,1.98,2.97,3.76,5.1,5.08,3.74,2.32,8.47,2.6,12.63,1.45,4.25-1.17,7.71-3.81,10.98-6.66,2.88-2.51,5.75-5.4,9.49-6.57,3.52-1.1,8.06-.93,11.21,1.12,2.31,1.51,3.81,3.95,5.71,5.95,2.88,3.04,6.72,5.03,10.76,6.01,4.67,1.13,9.17.5,13.87.04,2.23-.22,4.38-1.25,4.79-3.72.41-2.44-1.7-5.39-4.33-5.14Z" fill="#d24672" stroke-width="0"/><path d="m273.01,70.46c.09.06.18.12.26.18-.04-.04-.18-.14-.47-.34.03.02.05.05.08.07.04.03.08.06.13.09Z" fill="#d24672" stroke-width="0"/><path d="m228.8,77.95c.27-.22.47-.4,0,0h0Z" fill="#d24672" stroke-width="0"/><path d="m283.02,73.95c.21.01.31,0-.43-.06.04,0,.07.01.11.02.11.01.22.03.32.04Z" fill="#d24672" stroke-width="0"/><path d="m190.53,73.69c-.31-.04-.77-.05,0,0h0Z" fill="#d24672" stroke-width="0"/><path d="m226.85,79.17c-.49.13-.65.21-.63.24.18-.06.36-.13.54-.19.03-.01.06-.03.09-.04Z" fill="#d24672" stroke-width="0"/><path d="m334.86,55.34c-1.23-1.91-3.99-2.96-6.04-1.58-6.39,4.3-12.79,8.59-19.36,12.62-6.38,3.91-12.77,7.4-20.41,7.83-5.34.3-10.9-.87-15.47-3.7-4.39-2.71-7.39-7.14-11.79-9.84-2.65-1.63-5.85-2.55-8.98-2.26-3.67.35-6.81,1.73-9.69,3.98-4.22,3.29-6.78,8.35-10.42,12.25-1.73,1.86-3.97,3.88-6.51,4.52-3.47.88-7.07-1.32-10-2.9-1.88-1.01-3.71-2.13-5.52-3.26-3.83-2.37-7.63-4.73-11.88-6.29-8.08-2.97-18.21-3.17-25.74,1.44-2.4,1.47-4.17,3.17-7.02,3.87-3.97.97-8.29.92-12.33.45-1.05-.12-2.41.58-3.12,1.29-.77.77-1.34,2.02-1.29,3.12.05,1.14.43,2.33,1.29,3.12.92.84,1.89,1.15,3.12,1.29,4.2.49,8.39.36,12.56-.35,2.65-.45,5.41-1.21,7.75-2.55,2.64-1.51,4.44-3.38,7.53-4.23,2.86-.79,5.89-.92,8.82-.5,8.78,1.27,15.37,7.33,23.08,11.11,3.81,1.86,8.04,4.11,12.42,3.64,3.48-.37,6.33-1.91,9.02-4.08,3.51-2.83,5.99-6.64,8.81-10.1,2.35-2.89,5.44-6.48,9.41-6.81,5.91-.49,9.47,5.92,13.51,9.16,2.74,2.2,5.61,3.79,9,4.79,3.55,1.05,7.32,1.54,11.02,1.65,3.8.11,7.68-.23,11.37-1.12,3.82-.91,7.15-2.72,10.52-4.69,6.73-3.95,13.29-8.17,19.77-12.51,1.66-1.11,3.32-2.23,4.98-3.34,1.91-1.29,2.93-3.95,1.58-6.04Zm-158.43,21.16c.1-.08.19-.16.2-.15-.08.06-.15.11-.2.15Zm76.28-9.25s.23-.06.4-.06c-.2.03-.41.07-.4.06Zm1.54-.11c.12.03.24.05.37.08-.1-.02-.22-.05-.37-.08Zm.37.08c.4.06.75.16,0,0h0Z" fill="#d24672" stroke-width="0"/><path d="m229.53,61.07l-12.84-7.05c-3.53-1.94-7.96-.65-9.89,2.88l-1.24,2.26c-1.3,2.37-.6,5.3,1.53,6.84.07-.21.16-.42.27-.62.96-1.75,3.16-2.39,4.91-1.43,1.75.96,2.39,3.16,1.43,4.91-.12.22-.26.41-.41.6l5.16,2.83c.07-.23.16-.45.28-.66.96-1.75,3.16-2.39,4.91-1.43,1.75.96,2.39,3.16,1.43,4.91-.11.2-.23.37-.37.54,2.42.89,5.19-.09,6.47-2.42l1.24-2.26c1.94-3.53.65-7.96-2.88-9.89Zm-14.57-2.8l-.74,1.34c-.4.73-1.31.99-2.04.59l-1.34-.74c-.73-.4-.99-1.31-.59-2.04l.74-1.34c.4-.73,1.31-.99,2.04-.59l1.34.74c.73.4.99,1.31.59,2.04Zm5.3,2.91l-.74,1.34c-.4.73-1.31.99-2.04.59l-1.34-.74c-.73-.4-.99-1.31-.59-2.04l.74-1.34c.4-.73,1.31-.99,2.04-.59l1.34.74c.73.4.99,1.31.59,2.04Zm5.3,2.91l-.74,1.34c-.4.73-1.31.99-2.04.59l-1.34-.74c-.73-.4-.99-1.31-.59-2.04l.74-1.34c.4-.73,1.31-.99,2.04-.59l1.34.74c.73.4.99,1.31.59,2.04Zm5.3,2.91l-.74,1.34c-.4.73-1.31.99-2.04.59l-1.34-.74c-.73-.4-.99-1.31-.59-2.04l.74-1.34c.4-.73,1.31-.99,2.04-.59l1.34.74c.73.4.99,1.31.59,2.04Z" fill="#d24672" stroke-width="0"/><circle cx="210.31" cy="67.57" r="2.87" fill="#d24672" stroke-width="0"/><circle cx="221.63" cy="73.69" r="2.87" fill="#d24672" stroke-width="0"/><path d="m125.17,116.57c-1.16.7-2.59,1.18-4.29,1.42-1.7.24-3.47.31-5.32.2-1.84-.11-3.63-.37-5.37-.77-1.74-.41-3.25-.91-4.56-1.5-.8-.38-1.5-.82-2.12-1.34-.62-.51-1.03-1.1-1.25-1.75-.43-1.3-.54-2.65-.33-4.06.22-1.41.61-2.73,1.19-3.98.65-1.57,1.48-3.08,2.5-4.55,1.01-1.46,1.99-2.95,2.93-4.46-.07,0-.13.01-.16.04-.04.03-.09.04-.16.04-1.59.22-3.22.38-4.88.49-1.66.11-3.25-.05-4.77-.49-.87-.27-1.63-.69-2.28-1.26s-1.16-1.18-1.52-1.83c-.29-.65-.54-1.31-.76-1.99-.22-.68-.4-1.37-.54-2.07-.15-.7-.24-1.41-.27-2.11-.04-.7.13-1.41.49-2.11.58-1.41,1.7-2.49,3.36-3.25,1.16-.54,2.42-.88,3.8-1.01,1.37-.13,2.71-.26,4.01-.37,1.37-.11,2.75-.18,4.12-.2,1.37-.03,2.75-.07,4.12-.12.43,0,.94.08,1.52.24.72-1.19,1.39-2.38,2.01-3.57.61-1.19,1.03-2.43,1.25-3.73,0-.32-.18-.49-.54-.49-1.66.05-3.27.22-4.83.49-1.56.27-3.16.46-4.83.57-1.45.11-2.91.12-4.39.04-1.48-.08-2.84-.39-4.07-.93-1.08-.49-1.97-1.18-2.66-2.07-.69-.89-1.18-1.8-1.46-2.72-.29-1.08-.47-2.18-.54-3.29-.07-1.11.04-2.2.32-3.29.22-.7.52-1.39.92-2.07.4-.68.96-1.28,1.68-1.83.94-.76,2.04-1.35,3.31-1.79,1.26-.43,2.58-.76,3.96-.97,3.33-.49,6.67-.74,10.03-.77,3.36-.03,6.74.01,10.14.12,1.66.11,3.31.2,4.94.28,1.63.08,3.27.26,4.94.53.65.11,1.3.22,1.95.32.65.11,1.26.27,1.84.49,1.52.49,2.86,1.25,4.01,2.27,1.23,1.08,2.17,2.37,2.82,3.86.65,1.49.98,2.96.98,4.42-.07,1.25-.38,2.45-.92,3.61-.54,1.16-1.1,2.34-1.68,3.53-.51.92-1.05,1.81-1.63,2.68-.58.87-1.16,1.76-1.74,2.68-.15.32-.33.64-.54.93-.22.3-.4.61-.54.93.36.05.7.1,1.03.12.33.03.67.1,1.03.2.72.11,1.43.22,2.12.32.69.11,1.36.3,2.01.57,1.23.43,2.13,1.16,2.71,2.19.51,1.08.76,2.27.76,3.57.14,1.08.14,2.14,0,3.17-.15,1.03-.32,2.06-.54,3.08-.58,2.33-2.21,4.03-4.88,5.11-.58.27-1.23.45-1.95.53-.72.08-1.45.12-2.17.12-1.08,0-2.15-.07-3.2-.2-1.05-.13-2.08-.26-3.09-.37,0,.33-.05.72-.16,1.18-.11.46-.24.92-.38,1.38-.15.46-.27.89-.38,1.3-.11.41-.2.72-.27.93-.58,1.57-1.1,3.13-1.57,4.67-.47,1.54-1.07,3.07-1.79,4.59-.36.76-.81,1.49-1.36,2.19-.54.7-1.25,1.33-2.12,1.87Z" fill="#fbc46f" stroke-width="0"/></g></svg>