<?xml version="1.0" encoding="UTF-8"?>
<svg id="Capa_2" data-name="Capa 2" xmlns="http://www.w3.org/2000/svg" viewBox="0 0 906.16 338.73">
  <defs>
    <style>
      .cls-1 {
        fill: #fbc46f;
      }

      .cls-1, .cls-2, .cls-3, .cls-4 {
        stroke-width: 0px;
      }

      .cls-2 {
        fill: #a0cc90;
      }

      .cls-3 {
        fill: #fff;
      }

      .cls-4 {
        fill: #d24672;
      }
    </style>
  </defs>
  <g id="Capa_1-2" data-name="Capa 1">
    <g>
      <g>
        <path class="cls-3" d="m74.27,255.38c-2.17-2.95-5.07-5.28-8.65-6.93-2.68-1.24-5.52-2.03-8.44-2.37-1.01-.12-2-.17-2.96-.17-2.3,0-4.56.32-6.72.95-3.16.92-5.94,2.59-8.11,4.75-1.47-.88-3.05-1.58-4.74-2.09-2.36-.72-4.9-1.09-7.56-1.09h-.59c-2.85.06-5.65.56-8.33,1.48-2.67.92-5.18,2.24-7.48,3.94-2.98,2.21-5.29,4.98-6.92,8.27-2.05,4.21-3.28,8.58-3.64,12.99-.36,4.31.02,8.55,1.13,12.61,1.1,4,2.84,7.74,5.19,11.11,2.38,3.41,5.31,6.36,8.73,8.75.35.24.7.48,1.05.71-1.4,4.23-1.62,8.28-.64,12.06,1.29,4.97,4.3,9.19,8.71,12.23,3.04,2.08,6.45,3.52,10.16,4.3,1.97.41,3.99.62,6.01.62,1.56,0,3.15-.12,4.7-.37,4.58-.71,8.63-2.53,12.01-5.38,2.19-1.84,4.09-4.17,5.8-7.14,1.03-1.78,2.07-3.81,3.1-6.11.96-2.13,1.88-4.4,2.75-6.82.78-2.16,1.49-4.25,2.16-6.29.65-1.99,1.23-3.81,1.74-5.48.5-1.62.89-2.97,1.18-4.03.34-1.09.73-2.42,1.18-4.01.48-1.72.95-3.55,1.41-5.47.47-1.99.89-4.05,1.26-6.18.41-2.36.7-4.67.84-6.89.17-2.71.07-5.34-.3-7.82-.58-3.84-1.93-7.23-4.03-10.11Z"/>
        <path class="cls-3" d="m900.76,287.17c1.12-1.39,2.09-2.93,2.89-4.61,1.96-4.16,2.78-8.56,2.44-13.1-.34-4.49-1.79-8.72-4.34-12.59-3.1-4.66-7.6-7.95-13.32-9.57-3.52-.93-7.09-1.4-10.63-1.4-.83,0-1.66.03-2.48.08-4.19.26-8.26,1.09-12.12,2.49-3.51,1.27-6.71,3.07-9.66,5.2-2.05-1.7-4.33-3.16-6.98-4.32-4.62-1.92-9.51-3.05-14.53-3.36-.94-.06-1.87-.09-2.8-.09-4.07,0-8.06.56-11.88,1.65-4.94,1.42-9.5,3.76-13.54,6.97-.69.55-1.31,1.15-1.95,1.75-2.43-2.71-5.26-4.91-8.51-6.39-3.86-1.76-7.95-2.65-12.17-2.65-1.32,0-2.66.09-4.02.27-3.24.43-6.41,1.35-9.5,2.75-.32-.21-.64-.42-.96-.62-2.4-1.46-4.98-2.45-7.69-3.05,1.31.07,2.59.19,3.92.23,1.37.04,2.74.06,4.11.06,10.19,0,20.12-1.13,29.52-3.38,12.27-2.93,22.73-8.71,31.58-13.9,15.93-9.36,32.57-19.88,52.36-33.12l13.04-8.75c12.24-8.23,15.99-24.54,8.37-36.36-5.03-7.8-13.82-12.64-22.95-12.64-4.95,0-9.72,1.45-13.8,4.19-16.16,10.86-32.86,22.09-50.03,32.61-14.83,9.08-29.52,17.31-46.3,18.26-1.14.06-2.28.1-3.43.1-10.34,0-20.37-2.68-28.23-7.53-4.33-2.68-8.43-6.64-12.77-10.83-5.1-4.92-10.88-10.5-18.06-14.9-8.81-5.39-18.57-8.25-28.24-8.25-1.48,0-2.97.07-4.44.21-12.11,1.14-22.95,5.56-33.13,13.51-2.52,1.97-4.79,4.13-6.94,6.34-3.01-4.59-7.12-8.41-12.07-11.13l-26.88-14.76c4.65-2.86,8.73-6.71,12.24-11.42.15.32.25.61.4.93,1.13,2.16,2.47,4.26,3.97,6.2,2.49,3.25,5.62,5.71,9.31,7.33,1.76.84,3.63,1.53,5.58,2.04,1.5.4,2.98.72,4.07.92,1.95.4,4.04.61,6.21.61.95,0,1.95-.04,2.98-.12,2.91-.23,5.81-.77,8.67-1.6,2.99-.88,5.79-2.08,8.35-3.56,2.91-1.69,5.23-3.93,7.23-6.53,1.2,1.46,2.48,2.79,3.9,3.87,3.98,3.24,8.7,5.49,14.03,6.68,3.73.83,7.69,1.26,11.77,1.26l1.7-.02c4.29-.12,8.74-.64,13.21-1.53,4.26-.85,8.51-1.96,12.62-3.33,4.02-1.33,7.89-2.82,11.5-4.45,3.74-1.69,7.12-3.47,9.88-5.2,5.87-3.59,10.16-9.03,12.41-15.76,1.84-5.51,2.39-11.22,1.65-16.98-.75-5.91-2.82-11.33-6.12-16.09-2.37-3.41-5.3-6.14-8.7-8.11.67-2.19,1.18-4.48,1.52-6.84.59-4.1.65-8.13.18-11.99-.01-.08-.02-.16-.03-.24,5.69-2.5,10.11-6.92,12.84-12.86.85-1.84,1.63-3.97,2.38-6.49.72-2.41,1.29-4.9,1.71-7.44.45-2.81.66-5.59.59-8.3-.11-4.31-1.15-8.16-3.03-11.39-2.78-4.79-7.13-8.41-12.93-10.77-3.48-1.41-7.27-2.54-11.25-3.36-3.76-.77-7.55-1.28-11.29-1.52-3.14-.2-5.72-.35-7.75-.45l-.37-.02h-9.33c-4.28,0-8.63.29-12.91.87-4.66.63-9.11,1.69-13.22,3.16-4.63,1.66-8.45,4.06-11.44,7.18-.87-.88-1.77-1.71-2.73-2.44-1.91-1.52-4.01-2.82-6.3-3.88-1.32-.61-2.63-1.19-3.94-1.74l-.71-.28c-2.71-.99-5.52-1.74-8.36-2.24-2.38-.41-4.83-.63-7.28-.63-.57,0-1.14.01-1.71.03-3.01.03-6.06.43-9.1,1.21-4.12,1.06-7.86,2.98-10.82,5.47-1.96,1.57-3.63,3.35-5.05,5.25-.99-1.24-2.06-2.42-3.25-3.49-3.85-3.45-8.28-5.88-13.19-7.23-3.01-.82-6.12-1.24-9.24-1.24-1.63,0-3.28.11-4.96.35-4.92.69-9.45,2.34-13.48,4.91-4.43,2.83-7.91,6.64-10.34,11.3-2.13,4.08-3.17,8.62-3.09,13.65-2.9-3.52-5.96-6.68-9.12-9.44-3.85-3.35-7.87-6.01-11.97-7.9-4.05-1.87-8.26-2.82-12.54-2.82-1.6,0-3.22.13-4.63.37-6.46,1.01-12.18,4.02-16.53,8.72-.65.7-1.17,1.56-1.77,2.32-1.76-5.18-4.55-9.59-8.41-13.03-3.85-3.43-8.28-5.85-13.17-7.19C472.46.42,469.36,0,466.24,0c-1.63,0-3.28.11-4.94.34-4.91.68-9.44,2.32-13.47,4.88-4.44,2.82-7.92,6.62-10.36,11.28-2.13,4.07-3.17,8.58-3.1,13.59-2.92-3.52-5.99-6.69-9.15-9.43-3.85-3.33-7.88-5.98-11.95-7.85-4.04-1.86-8.25-2.81-12.52-2.81-1.59,0-3.21.13-4.6.37-6.46.99-12.17,3.99-16.53,8.67-2.43,2.62-4.44,5.79-6.21,9.21-1.72-3.4-3.59-6.55-5.8-9.22-5.4-6.42-12.27-11.27-20.41-14.42-7.38-2.86-15.16-4.4-23.11-4.6l-1.66-.02c-7.39,0-14.7,1.2-21.73,3.56-8.2,2.76-15.26,7.15-20.96,13.06-4.95,5.12-9.2,11.09-12.64,17.73-3.26,6.3-5.88,13.08-7.77,20.13-.28,1.06-.45,2.15-.7,3.22-1.02-.62-2.05-1.25-3.13-1.8,0-.01.01-.03.01-.04,2.42-6.89,3.15-13.79,2.17-20.52-1.03-7.08-3.89-13.48-8.5-19.02-4.8-5.78-11.25-9.82-19.6-12.15-2.87-.71-6.09-1.27-9.83-1.71-3.48-.41-7.25-.62-11.18-.62-14.63,0-29.78,2.87-36.6,5.58-9.88,3.92-17.35,13.23-19.62,20.39-.22.7-18.06,75.47,3.75,108.41,6.31,9.53,15.36,15.11,26.18,16.14,7.33.7,14.34,1.05,20.86,1.05,29.42,0,51.02-7.15,64.2-21.26.76-.82,1.44-1.69,2.14-2.54,3.89,5,8.28,9.28,13.19,12.69-3.17.65-6.3,1.43-9.29,2.45-4.86,1.66-9.22,4.02-12.98,7-3.38,2.57-6.12,5.6-8.13,9.03-1.62,2.76-2.9,5.65-3.8,8.58l-.16.54c-1.18,4.41-1.63,8.95-1.33,13.41.15,2.36.49,4.71.93,7.05-.12,0-.24-.02-.37-.02-.74,0-1.49.03-2.24.11-4.85.46-10.05.89-15.16.89-11.99,0-19.64-2.33-24.81-7.57-1.46-1.48-2.93-3.32-4.49-5.27-3.68-4.6-8.26-10.32-15.39-14.52-11.19-6.59-23.63-8.19-33.21-8.85-2.19-.15-4.37-.23-6.54-.23-5.44,0-10.44.51-15.28,1.57-13.86,3.04-24.9,10.94-34.76,19.03-2.14,1.76-4.23,3.61-6.33,5.47-4.74,4.2-9.22,8.17-13.81,10.28-1.68.77-3.42,1.23-4.66,1.23-.14,0-.35,0-.37,0-.23-.2-.74-.71-1.7-1.94-7.59-9.72-12.63-22.75-16.18-33.02-3.79-10.98-14.18-18.65-25.27-18.65-2.61,0-5.21.41-7.71,1.23-7.03,2.27-12.95,7.38-16.26,14-3.07,6.15-3.55,13.02-1.36,19.36,4.43,12.8,8.84,23.13,13.89,32.51,2.98,5.53,6.03,10.36,9.32,14.76,4.19,5.61,9.34,12.02,17.42,17.04,8.18,5.08,17.98,7.76,28.34,7.76,5.55,0,11.11-.76,16.54-2.25,14.09-3.87,24.93-12.16,34.55-20.53l3.21-2.84c5.57-4.95,10.83-9.64,16.18-11.3,2.25-.7,4.77-1.07,7.3-1.07,3.72,0,7.11.82,9.29,2.24,2.15,1.41,4.47,4.21,6.92,7.18,1.72,2.08,3.45,4.16,5.3,6.11,9.14,9.63,21.39,16.53,35.44,19.95,5.78,1.41,11.86,2.09,18.58,2.09s13-.65,19.18-1.29h.08c.06.7.11,1.42.2,2.13-.84,0-1.68.02-2.52.07-4.33.24-8.54,1.03-12.54,2.36-3.99,1.33-7.67,3.21-10.98,5.53-.28-.32-.57-.72-.85-1-3.4-3.42-7.73-5.69-12.55-6.57-1.46-.26-2.96-.4-4.47-.4-2.77,0-5.6.45-8.43,1.34-.62.2-1.23.41-1.84.65-2.52-.83-5.12-1.37-7.74-1.63-1.13-.11-2.24-.16-3.34-.16-2.07,0-4.14.19-6.15.57-3.81.71-7.31,2.16-10.2,4.17-3.63,2.44-6.93,5.43-9.88,8.87-1.86-3.57-4.66-6.63-8.26-8.95-3.66-2.36-7.74-3.88-12.1-4.52-1.56-.23-3.11-.34-4.65-.34-2.71,0-5.43.35-8.06,1.04-5.46,1.43-10.1,4.46-13.2,8.53-2.3,2.89-4.12,6.43-5.4,10.51-.97,3.07-1.72,6.42-2.25,9.94-.5,3.32-.81,6.85-.92,10.49-.11,3.48-.07,6.9.11,10.16.18,3.25.48,6.38.89,9.28.46,3.32,1.05,6.12,1.77,8.45,1.39,4.64,3.63,8.73,6.67,12.18,2.88,3.26,6.35,5.9,10.32,7.86,3.75,1.84,7.89,3.03,12.31,3.52,1.57.18,3.17.27,4.79.27,2.57,0,5.21-.23,7.91-.69,4.62-.81,8.65-2.35,11.99-4.59.42-.29.79-.61,1.19-.91,4.63,2.63,9.63,4.2,14.92,4.58.88.06,1.75.09,2.63.09,4.54,0,9.08-.85,13.49-2.53.44-.17.88-.35,1.32-.53,2.63,1.55,5.42,2.64,8.32,3.27,1.98.43,3.99.65,5.98.65s4.06-.23,6.04-.67c2.67-.6,5.14-1.62,7.43-2.97,1.17.62,2.37,1.22,3.65,1.67,3.72,1.31,7.65,1.97,11.69,1.97,1.14,0,2.29-.05,3.46-.16,4.66-.42,9.34-1.62,13.89-3.55,4.66-1.96,8.81-4.55,12.33-7.69,2.82-2.51,5.28-5.35,7.29-8.41.3-.45.53-.92.8-1.38,1.54,3.56,3.88,6.72,7.03,9.35,2.56,2.15,5.5,4.02,8.93,5.65,4.29,1.96,9.24,3.61,14.72,4.89,5.33,1.25,10.9,2.05,16.56,2.38,1.78.11,3.53.16,5.27.16,3.95,0,7.86-.27,11.62-.81,6.43-.92,12.1-2.85,17-5.83,3.79-2.37,6.99-5.22,9.46-8.43,2.05-2.65,3.8-5.49,5.22-8.44,2.19-4.6,4.03-9.33,5.48-14.05,1.15-3.78,2.44-7.6,4-11.85.09-.25.18-.55.28-.88,1.66.1,3.34.15,5.02.15,2.47,0,4.94-.14,7.34-.41,1.08-.12,2.1-.37,3.14-.59-.25,3.39-.32,6.78.02,10.09.52,5.05,1.72,9.91,3.55,14.44,1.98,4.9,4.72,9.28,8.12,13.01,3.64,4,8.04,7.13,13.08,9.32,4.63,2.02,9.73,3.04,15.17,3.04.66,0,1.33-.02,1.92-.04,2.81-.11,5.69-.59,8.55-1.44,2.8-.82,5.48-1.96,7.97-3.38.46-.26.86-.59,1.31-.88,1.9,1.46,3.94,2.73,6.24,3.61,3.66,1.41,7.54,2.12,11.53,2.12,1.12,0,2.25-.06,3.41-.17,4.52-.45,9.04-1.71,13.42-3.73,4.27-1.97,8.04-4.54,11.27-7.61.27.32.51.66.79.97,2.55,2.76,5.62,5.02,9.1,6.74,3.2,1.58,6.7,2.67,10.41,3.25,2.36.37,4.77.56,7.15.56.91,0,1.82-.03,2.76-.08,3.49-.21,6.96-.86,10.32-1.94,3.28-1.06,6.32-2.53,9.26-4.44.05.03.08.07.13.1,4.74,3.15,9.95,4.96,15.5,5.39.87.07,1.73.1,2.59.1,4.47,0,8.92-.91,13.22-2.69.06-.02.12-.05.18-.07,2.3,1.34,4.72,2.32,7.25,2.92,1.99.47,4.02.71,6.02.71s4.09-.25,6.09-.74c4.16-1.02,7.85-3.04,11.01-5.99,3.79,2.45,7.89,4.28,12.29,5.4,3.47.88,7.05,1.33,10.64,1.33,2.7,0,5.45-.25,8.17-.75,4.96-.9,9.65-2.64,14.03-5.17,2.13,1.95,4.58,3.48,7.34,4.44,2.33.84,4.89,1.33,7.6,1.45.5.02,1.01.04,1.51.04,1.77,0,3.56-.14,5.35-.43,2.45-.4,4.81-1.08,7.03-2.03,2.71-1.17,4.95-2.88,6.86-4.84,1.87,1.37,3.81,2.61,5.89,3.62,4.98,2.43,10.42,3.67,16.18,3.67l1.31-.02c6.18-.2,12.42-2.02,18.44-5.36,2.06-1.12,3.97-2.51,5.8-4.03,2.56,3.09,5.84,5.46,9.61,6.79,2.2.8,4.56,1.34,6.99,1.61,1.15.13,2.29.19,3.42.19,1.38,0,2.75-.09,4.14-.29,2.68-.38,5.28-1.15,7.7-2.27,1.13-.52,2.21-1.12,3.22-1.79,2.1,1.64,4.45,2.92,6.98,3.77,2.77.93,5.62,1.4,8.49,1.4,1.9,0,3.82-.21,5.72-.62,4.63-1.01,8.85-3.18,12.51-6.42.31-.28.58-.59.87-.88,2.5,1.93,5.21,3.58,8.17,4.87,4.63,2.01,9.73,3.03,15.16,3.03.66,0,1.33-.02,1.9-.04,2.82-.11,5.71-.59,8.57-1.43,2.8-.82,5.48-1.96,7.97-3.37.46-.26.86-.59,1.3-.87,1.9,1.46,3.95,2.74,6.25,3.63,3.65,1.41,7.53,2.12,11.52,2.12,1.12,0,2.26-.06,3.41-.17,4.52-.45,9.04-1.71,13.41-3.73,4.42-2.03,8.35-4.7,11.67-7.93,2.61-2.53,4.87-5.38,6.75-8.49,2.39-3.98,3.78-8.24,4.15-12.67.4-4.87-.56-9.7-2.86-14.36-.5-1.01-1.08-2-1.71-2.96Zm-633,.05c.95-1.13,1.74-2.39,2.47-3.71-.68,1.56-1.27,3.16-1.8,4.8-.23-.36-.42-.73-.67-1.09Zm128.75-134.69c3.2,0,6.29-.4,9.18-1.17,6.41-1.72,11.74-5.57,15.43-11.14,1.39-2.1,2.59-4.41,3.59-6.91,2.18,2.94,4.65,5.64,7.39,8.1,6.76,6.03,14.17,9.34,22.01,9.86.81.05,1.62.08,2.42.08,6.69,0,13.04-1.81,18.86-5.37,3.9-2.39,7.38-5.51,10.49-9.2.05.1.08.21.13.31,2.01,4.1,5.05,7.51,9.04,10.11,2.98,1.94,6.27,3.43,9.79,4.43,3.27.92,6.63,1.43,9.98,1.5h.92c3.19.01,6.28-.39,9.21-1.17,6.41-1.74,11.74-5.6,15.41-11.17,1.39-2.1,2.58-4.42,3.59-6.93,2.17,2.93,4.62,5.64,7.35,8.1.79.71,1.62,1.25,2.43,1.89-4.9,3.03-9.05,7.28-11.92,12.51l-3.25,5.91c-2.02,3.68-3.05,7.63-3.36,11.59-10.47-3.38-21.57-5.24-32.42-5.24-16.3,0-31.44,4-43.78,11.56-1.96,1.2-3.78,2.44-5.56,3.67-3.7,2.55-5.92,4.02-8.5,4.65-4.3,1.05-9.25,1.59-14.7,1.59-3.76,0-7.85-.26-12.18-.76-.78-.09-1.57-.13-2.38-.13-1.23,0-2.43.14-3.6.33.08-.72.19-1.44.23-2.16l.02-.87c0-5.88-1.28-11.79-3.8-17.56-2.57-5.89-6.34-11.04-11.15-15.28-.45-.39-.93-.73-1.39-1.11h.53Zm-27.09-10.54c-4.88-.79-9.78-1.32-14.55-1.55-.63-.03-1.28-.07-1.91-.1,3.62-2.62,7.08-5.63,10.31-9.07.29-.31.54-.68.83-1,.77,2.18,1.65,4.31,2.67,6.28,1.02,2.06,2.3,3.95,3.83,5.64l-1.19-.2Zm182.73,109.2c-4.01,2.93-7.55,6.65-10.64,10.98-.1-.44-.19-.89-.32-1.32-1.39-4.65-4.54-8.52-9.21-11.08-2.39-1.23-4.97-2.19-7.65-2.86-2.69-.67-5.44-1.02-8.18-1.02h-.56c-3.25.06-6.4.63-9.36,1.7-2.86,1.04-5.4,2.57-7.6,4.55-2.55-2.18-5.53-3.86-9.03-4.86-3.52-.93-7.09-1.4-10.63-1.4-.83,0-1.66.03-2.48.08-4.19.26-8.26,1.09-12.12,2.49-3.5,1.27-6.71,3.07-9.66,5.2-2.04-1.7-4.33-3.16-6.98-4.32-4.62-1.92-9.51-3.05-14.53-3.36-.94-.06-1.87-.09-2.8-.09-3.78,0-7.48.53-11.04,1.47.03-1.59-.05-3.19-.19-4.8,3.41.27,6.84.46,10.25.46,7.33,0,14.79-.63,22.18-1.89,10.02-1.7,18.26-4.47,25.2-8.45,2.78-1.6,5.18-3.25,7.29-4.71,3.76-2.6,6.03-4.1,8.88-4.89,3.32-.92,6.86-1.38,10.53-1.38,2.1,0,4.25.16,6.38.46,12.34,1.78,23.56,8.68,35.43,15.99,4.95,3.05,10.13,6.11,15.49,9-3.2.85-6.19,2.16-8.65,4.02Zm159.37-5.29h-.76c-5.32.1-10.47,1.18-15.3,3.21-1.86.78-3.64,1.75-5.37,2.81-2.66-2.51-5.98-4.32-9.94-5.27-2.28-.5-4.61-.76-6.92-.76-2.63,0-5.29.33-7.91.98-4.6,1.15-8.62,3.09-12.01,5.75-.13-.09-.25-.21-.38-.3-4.54-3.17-9.46-5.16-14.65-5.97,7.92-6.54,13.8-14.11,19.46-21.45,1.71-2.22,3.41-4.43,5.17-6.59,2.9-3.57,9.7-11.93,14.59-12.31,3.77,0,9.18,5.73,13.96,10.78,3.19,3.38,6.5,6.88,10.26,9.9,8.93,7.17,18.3,12.14,28.65,15.2,6.75,1.99,14.04,3.35,21.72,4.15-3.12.14-6.16.75-9.04,1.98-2.93,1.26-5.57,3.05-7.9,5.34-2.82-1.98-5.82-3.62-9-4.81-4.67-1.74-9.59-2.63-14.62-2.63Z"/>
      </g>
      <g>
        <g>
          <path class="cls-2" d="m183.68,137.41c-37.16-3.53-19.7-96.7-17.04-105.09,1.03-3.27,5.52-8.86,10.85-10.97,5.85-2.32,24.89-5.86,40.48-4,3.1.37,5.77.83,8.02,1.38,4.94,1.38,8.82,3.77,11.65,7.18,2.83,3.4,4.56,7.27,5.19,11.59.63,4.33.13,8.79-1.48,13.39-1.62,4.6-4.31,8.79-8.08,12.56,4.67,1.29,9.32,2.99,13.94,5.11,4.62,2.12,8.51,5.06,11.65,8.83,1.97,2.39,3.5,5.2,4.58,8.42,1.08,3.22,1.73,6.56,1.95,10.01.28,4.23,4.4,49.79-81.71,41.61Zm10.91-78.11c2.07.09,4.11-.14,6.13-.69,2.02-.55,3.77-1.38,5.25-2.48,1.48-1.1,2.56-2.46,3.23-4.07.67-1.61.61-3.43-.2-5.45-.36-1.01-1.06-1.79-2.09-2.35-1.03-.55-2.18-.87-3.44-.97-1.26-.09-2.49.05-3.7.41-1.21.37-2.18.92-2.9,1.66-.45.46-.9,1.45-1.35,2.97-.45,1.52-.81,3.08-1.08,4.69-.27,1.61-.4,3.06-.4,4.35s.18,1.93.54,1.93Zm2.83,43.33c3.59.64,6.74.67,9.43.07,2.69-.6,4.85-1.52,6.47-2.76,1.62-1.24,2.67-2.64,3.17-4.21.49-1.56.34-3.01-.47-4.35-.81-1.33-2.31-2.35-4.51-3.04-2.2-.69-5.1-.8-8.69-.35-1.53.19-2.67.76-3.44,1.73-.76.97-1.33,2.14-1.68,3.52-.36,1.38-.52,2.88-.47,4.48.04,1.61.11,3.24.2,4.9Z"/>
          <path class="cls-2" d="m364.75,99.4c-2.88,8.67-7.01,15.87-12.39,21.6-5.39,5.73-11.34,9.96-17.85,12.7-6.51,2.74-13.23,4.01-20.14,3.81-6.92-.2-13.36-1.92-19.33-5.16-5.97-3.24-11.11-7.95-15.43-14.12-4.31-6.18-7.1-13.85-8.35-23.02-.81-5.88-.99-11.98-.54-18.31.45-6.33,1.48-12.5,3.1-18.53,1.62-6.03,3.82-11.73,6.6-17.11,2.78-5.38,6.15-10.11,10.1-14.2,4.04-4.18,9.03-7.27,14.95-9.27,5.93-1.99,12.01-2.91,18.26-2.76,6.24.15,12.26,1.35,18.05,3.59,5.79,2.24,10.58,5.6,14.35,10.09,1.97,2.39,3.73,5.38,5.25,8.97,1.53,3.59,2.78,7.47,3.77,11.66.99,4.18,1.71,8.57,2.16,13.15.45,4.58.65,9.09.61,13.53-.05,4.43-.34,8.67-.88,12.71-.54,4.04-1.3,7.6-2.29,10.69Zm-54.97-9.42c2.6,2.19,5.25,3.09,7.95,2.69,2.69-.4,5.16-1.57,7.41-3.51,2.24-1.94,4.15-4.43,5.73-7.47,1.57-3.04,2.56-6.15,2.96-9.34.4-3.19.07-6.15-1.01-8.89-1.08-2.74-3.1-4.81-6.06-6.2-2.61-1.2-5.14-1.47-7.61-.82-2.47.65-4.72,1.87-6.74,3.66-2.02,1.79-3.7,4.01-5.05,6.65-1.35,2.64-2.22,5.38-2.63,8.22-.4,2.84-.22,5.58.54,8.22.76,2.64,2.27,4.91,4.51,6.8Z"/>
          <path class="cls-2" d="m401.79,136.87c-1.8.48-3.75.7-5.86.65-2.11-.05-4.2-.36-6.26-.94-2.07-.58-3.95-1.43-5.66-2.54-1.71-1.11-2.96-2.48-3.77-4.13-1.71-3.28-2.9-6.76-3.57-10.43-.67-3.67-1.03-7.43-1.08-11.3-.05-3.86.13-7.75.54-11.66.4-3.91.88-7.7,1.41-11.37.45-3.38.85-7.12,1.21-11.22.36-4.1.81-8.3,1.35-12.6.54-4.3,1.21-8.5,2.02-12.6.81-4.1,1.91-7.82,3.3-11.15,1.39-3.33,3.12-6.11,5.19-8.33,2.07-2.22,4.67-3.57,7.81-4.06,2.87-.48,5.73-.07,8.55,1.23,2.83,1.3,5.63,3.16,8.42,5.58,2.78,2.41,5.48,5.24,8.08,8.47,2.6,3.24,5.07,6.57,7.41,9.99,2.33,3.43,4.53,6.81,6.6,10.14,2.07,3.33,3.91,6.25,5.52,8.76,1.08,1.74,2.27,3.69,3.57,5.87,1.3,2.17,2.49,3.98,3.57,5.43,1.08,1.45,1.97,2.27,2.7,2.46.72.19,1.12-.82,1.21-3.04.09-3.57-.02-7.43-.34-11.59-.32-4.15-.7-8.38-1.14-12.67-.45-4.3-.97-8.52-1.55-12.67-.59-4.15-1.1-7.97-1.55-11.44-.36-3.19.07-5.94,1.28-8.26,1.21-2.32,2.92-4.17,5.12-5.58,2.2-1.4,4.69-2.29,7.48-2.68,2.78-.39,5.5-.22,8.15.51,2.65.72,5.03,2.03,7.14,3.91,2.11,1.88,3.61,4.37,4.51,7.46.63,2.12,1.12,5.26,1.48,9.41.36,4.15.58,8.84.67,14.05.09,5.21.11,10.72.07,16.51-.05,5.79-.18,11.3-.4,16.51-.23,5.21-.5,9.95-.81,14.19-.32,4.25-.65,7.48-1.01,9.7-.99,5.79-2.87,10.94-5.66,15.42-2.78,4.49-6.11,7.92-9.97,10.28-3.86,2.37-8.02,3.4-12.46,3.11-4.45-.29-8.78-2.32-13-6.08-3.77-3.38-6.8-7.39-9.09-12.02-2.29-4.63-4.31-9.49-6.06-14.56-1.75-5.07-3.46-10.19-5.12-15.35-1.66-5.16-3.75-10.02-6.26-14.56-.54,3.09-.85,6.71-.94,10.86-.09,4.15-.18,8.43-.27,12.82-.09,4.39-.25,8.79-.47,13.18-.22,4.4-.74,8.43-1.55,12.09-.81,3.67-2.04,6.76-3.7,9.27-1.66,2.51-3.93,4.15-6.8,4.92Z"/>
          <path class="cls-2" d="m521.02,137.47c-1.8.48-3.75.7-5.86.65-2.11-.05-4.2-.36-6.26-.95-2.07-.58-3.95-1.43-5.66-2.55-1.71-1.11-2.96-2.5-3.77-4.15-1.71-3.3-2.9-6.79-3.57-10.48-.67-3.69-1.03-7.47-1.08-11.35-.05-3.88.13-7.79.54-11.72.4-3.93.88-7.74,1.42-11.43.45-3.4.85-7.15,1.21-11.28.36-4.12.81-8.34,1.35-12.66.54-4.32,1.21-8.54,2.02-12.66.81-4.12,1.91-7.86,3.3-11.21,1.39-3.35,3.12-6.13,5.19-8.37,2.07-2.23,4.67-3.59,7.81-4.08,2.87-.48,5.73-.07,8.55,1.24,2.83,1.31,5.63,3.18,8.42,5.6,2.78,2.43,5.48,5.26,8.08,8.51,2.6,3.25,5.07,6.6,7.41,10.04,2.33,3.45,4.53,6.84,6.6,10.19,2.06,3.35,3.91,6.28,5.52,8.81,1.08,1.75,2.27,3.71,3.57,5.9,1.3,2.18,2.49,4,3.57,5.46,1.08,1.46,1.97,2.28,2.69,2.47.72.2,1.12-.82,1.21-3.06.09-3.59-.02-7.47-.34-11.64-.31-4.17-.7-8.42-1.15-12.74-.45-4.32-.97-8.56-1.55-12.74-.58-4.17-1.1-8.01-1.55-11.5-.36-3.2.07-5.97,1.28-8.3,1.21-2.33,2.92-4.2,5.12-5.6,2.2-1.41,4.69-2.3,7.48-2.69,2.78-.39,5.5-.22,8.15.51,2.65.73,5.03,2.04,7.14,3.93,2.11,1.89,3.61,4.39,4.51,7.5.63,2.14,1.12,5.29,1.48,9.46.36,4.17.58,8.88.67,14.12.09,5.24.11,10.77.07,16.59-.05,5.82-.18,11.35-.4,16.59-.22,5.24-.49,10-.81,14.26-.32,4.27-.65,7.52-1.01,9.75-.99,5.82-2.88,10.99-5.66,15.5-2.79,4.51-6.11,7.96-9.97,10.33-3.86,2.38-8.02,3.42-12.46,3.13-4.45-.29-8.78-2.33-13-6.11-3.77-3.4-6.8-7.42-9.09-12.08-2.29-4.66-4.31-9.53-6.06-14.63-1.75-5.09-3.46-10.24-5.12-15.43-1.66-5.19-3.75-10.07-6.26-14.63-.54,3.11-.85,6.75-.94,10.92-.09,4.17-.18,8.47-.27,12.88-.09,4.42-.25,8.83-.47,13.24-.23,4.42-.74,8.47-1.55,12.15-.81,3.69-2.04,6.79-3.71,9.31-1.66,2.52-3.93,4.17-6.8,4.95Z"/>
          <path class="cls-2" d="m652.38,131.63c-.81,1.28-1.98,2.36-3.5,3.25-1.53.89-3.21,1.6-5.05,2.14-1.84.54-3.7.89-5.59,1.03-1.89.15-3.55.07-4.98-.22-1.08-.2-2.18-.44-3.3-.74-1.12-.3-2.18-.69-3.17-1.18-1.44-.59-2.65-1.53-3.64-2.81-.99-1.28-1.84-2.61-2.56-3.99-.81-1.67-1.46-3.42-1.95-5.25-.5-1.82-.88-3.67-1.15-5.54-.54-3.64-.92-7.26-1.14-10.86-.23-3.59-.34-7.26-.34-11.01v-2c0-.64-.05-1.3-.13-2-.72-12.71-.58-25.42.4-38.12.36-5.12.85-10.22,1.48-15.29.63-5.07,1.84-9.97,3.64-14.7.81-2.36,2.2-4.33,4.18-5.91,1.53-1.28,3.25-2.17,5.19-2.66,1.93-.49,3.84-.74,5.73-.74,2.06-.1,4.09.03,6.06.37,1.97.35,3.91.86,5.79,1.55,1.17.49,2.33,1.01,3.5,1.55,1.17.54,2.24,1.21,3.23,2,1.79,1.38,3.25,3.23,4.38,5.54,1.12,2.32,1.68,4.61,1.68,6.87,0,3.05-.29,6.06-.88,9.01-.59,2.96-1.19,5.86-1.82,8.72-.72,3.84-1.42,7.66-2.09,11.45-.67,3.79-1.24,7.61-1.68,11.45-.45,4.53-.72,9.06-.81,13.59-.09,4.53,0,9.06.27,13.59.18,3.84.4,7.66.67,11.45.27,3.79.18,7.56-.27,11.3-.18,1.38-.4,2.78-.67,4.21-.27,1.43-.76,2.73-1.48,3.92Z"/>
          <path class="cls-2" d="m734.42,125.8c-2.34,1.47-5.08,2.91-8.22,4.32-3.15,1.42-6.49,2.71-10.04,3.88-3.55,1.17-7.16,2.13-10.84,2.86-3.68.73-7.25,1.15-10.71,1.25-3.46.1-6.71-.2-9.77-.88-3.05-.68-5.66-1.91-7.81-3.66-2.42-1.85-4.22-4.93-5.39-9.23-1.17-4.3-1.95-8.94-2.36-13.92-.4-4.98-.56-9.97-.47-14.95.09-4.98.18-9.09.27-12.31,0-1.95.07-4.59.2-7.91.13-3.32.31-6.94.54-10.85.22-3.91.52-7.96.88-12.16.36-4.2.81-8.21,1.35-12.02.54-3.81,1.21-7.23,2.02-10.26.81-3.03,1.75-5.37,2.83-7.03,1.35-2.05,3.59-3.64,6.74-4.76,3.14-1.12,6.53-1.93,10.17-2.42,3.64-.49,7.27-.73,10.91-.73h8.96c1.97.1,4.49.25,7.54.44,3.05.2,6.13.61,9.23,1.25,3.1.64,5.97,1.49,8.62,2.57,2.65,1.08,4.51,2.54,5.59,4.4.63,1.08.96,2.49,1.01,4.25.04,1.76-.09,3.59-.4,5.5-.31,1.91-.74,3.76-1.28,5.57-.54,1.81-1.08,3.3-1.62,4.47-1.35,2.93-3.41,4.86-6.2,5.79-2.79.93-5.86,1.3-9.23,1.1-3.37-.19-6.83-.76-10.37-1.69-3.55-.93-6.8-1.78-9.77-2.56-2.07-.59-3.89-.85-5.46-.81-1.57.05-2.54,1.2-2.9,3.44-.09.49-.25,1.1-.47,1.83-.22.73-.4,1.47-.54,2.2-.13.73-.16,1.37-.07,1.91.09.54.36.9.81,1.1,1.08.49,2.96.81,5.66.95,2.69.15,5.55.29,8.55.44s5.82.37,8.42.66c2.6.29,4.36.83,5.26,1.61,1.17.98,1.91,2.74,2.22,5.28.31,2.54.27,5.2-.13,7.99-.4,2.79-1.12,5.35-2.16,7.69-1.03,2.35-2.27,3.81-3.71,4.4-1.08.49-2.74.71-4.98.66-2.25-.05-4.6-.22-7.07-.51-2.47-.29-4.85-.63-7.14-1.03-2.29-.39-4.02-.68-5.19-.88-.09,1.37-.25,3-.47,4.91s-.34,3.81-.34,5.72.18,3.62.54,5.13c.36,1.52,1.12,2.52,2.29,3,.72.29,1.86.27,3.43-.07,1.57-.34,3.34-.85,5.32-1.54,1.97-.68,4.06-1.47,6.26-2.34,2.2-.88,4.29-1.66,6.26-2.35,1.97-.68,3.75-1.25,5.32-1.69,1.57-.44,2.76-.61,3.57-.51,3.23.59,5.82,2.27,7.75,5.06,1.93,2.79,3.12,5.94,3.57,9.45.45,3.52.11,6.96-1.01,10.33-1.12,3.37-3.12,5.94-6,7.69Z"/>
        </g>
        <g>
          <path class="cls-1" d="m139.62,322.66c-2.93.5-5.75.6-8.46.29-2.71-.31-5.16-1-7.36-2.08-2.2-1.08-4.1-2.52-5.69-4.33-1.59-1.8-2.77-3.98-3.54-6.53-.51-1.66-.94-3.74-1.29-6.24-.35-2.5-.61-5.17-.77-8.03-.16-2.86-.19-5.81-.09-8.86.09-3.05.35-5.96.76-8.74.41-2.77.99-5.32,1.72-7.65.73-2.33,1.67-4.22,2.82-5.66,1.27-1.67,3.03-2.79,5.26-3.37,2.23-.58,4.48-.71,6.74-.37,2.26.33,4.32,1.1,6.17,2.29,1.85,1.19,3.06,2.73,3.63,4.62.83,2.83,1.11,5.74.86,8.74-.26,3-.62,5.99-1.1,8.98-.48,3-.81,5.96-1,8.9-.19,2.94.22,5.8,1.24,8.57.25.72.77,1.28,1.53,1.66.77.39,1.61.72,2.53,1,.92.28,1.82.58,2.68.91.86.33,1.51.83,1.96,1.5.96,1.33,1.51,2.75,1.67,4.24.16,1.5-.1,2.93-.77,4.28-.67,1.36-1.79,2.57-3.35,3.62-1.56,1.05-3.62,1.8-6.17,2.25Z"/>
          <path class="cls-1" d="m212.78,308.59c.51,2.45.45,4.63-.19,6.53-.64,1.9-1.64,3.45-3.01,4.64-1.37,1.2-2.96,2-4.78,2.41-1.82.41-3.67.41-5.55,0-1.88-.41-3.68-1.26-5.4-2.54-1.72-1.28-3.12-3.09-4.21-5.43-2.49,2.69-5.34,4.64-8.56,5.87-3.22,1.23-6.46,1.72-9.71,1.49-3.25-.23-6.3-1.21-9.13-2.93-2.84-1.72-5.05-4.19-6.65-7.4-1.85-3.74-2.77-7.88-2.77-12.44s.72-9.06,2.15-13.53c1.43-4.47,3.49-8.64,6.17-12.53,2.68-3.88,5.8-7.02,9.37-9.42,1.34-.93,2.87-1.56,4.59-1.88,1.72-.32,3.49-.39,5.31-.22,1.82.18,3.59.59,5.31,1.23,1.72.64,3.25,1.46,4.59,2.45,1.72-1.58,3.6-2.69,5.64-3.33,2.04-.64,3.95-.8,5.74-.48,1.78.32,3.3,1.11,4.54,2.37,1.24,1.26,1.93,3.02,2.06,5.3.06,1.52-.03,3.02-.29,4.51-.26,1.49-.51,2.98-.77,4.47-.26,1.49-.48,2.98-.67,4.47-.19,1.49-.22,2.99-.1,4.51.19,1.87.54,3.72,1.05,5.56.51,1.84,1.08,3.65,1.72,5.43.64,1.78,1.29,3.58,1.96,5.39.67,1.81,1.2,3.65,1.58,5.52Zm-37.3-20.15c-.83,1.93-1.15,3.69-.96,5.3.19,1.61.72,2.8,1.58,3.59.86.79,1.91,1.09,3.16.92,1.24-.18,2.5-1.11,3.78-2.8,1.27-1.63,2.07-3.23,2.39-4.77.32-1.55.34-2.89.05-4.03-.29-1.14-.81-2.04-1.58-2.71-.76-.67-1.64-.99-2.63-.96-.99.03-1.99.48-3.01,1.36-1.02.88-1.95,2.25-2.77,4.12Z"/>
          <path class="cls-1" d="m250.55,314.88c-2.3,2.04-5.02,3.73-8.18,5.07-3.16,1.33-6.3,2.14-9.42,2.43-3.12.28-6.06-.06-8.8-1.02-2.74-.96-4.81-2.75-6.22-5.37-.51-.96-.83-2.02-.96-3.15-.13-1.14-.08-2.27.14-3.41.22-1.14.65-2.19,1.29-3.15.64-.96,1.47-1.76,2.49-2.38,1.15-.68,2.5-1.22,4.06-1.62,1.56-.4,2.98-.79,4.26-1.19,1.27-.4,2.18-.84,2.72-1.32s.34-1.15-.62-2c-1.09-.91-2.25-1.79-3.49-2.64-1.24-.85-2.44-1.73-3.59-2.64-1.15-.91-2.2-1.86-3.16-2.85-.96-.99-1.66-2.12-2.1-3.37-1.02-2.67-1.34-5.24-.96-7.71.38-2.47,1.26-4.73,2.63-6.77,1.37-2.04,3.16-3.86,5.36-5.45,2.2-1.59,4.67-2.84,7.41-3.75,2.74-.91,5.63-1.45,8.66-1.62,3.03-.17,6.07.11,9.13.85,2.17.57,3.86,1.69,5.07,3.36,1.21,1.68,1.9,3.48,2.06,5.41.16,1.93-.22,3.79-1.15,5.58-.93,1.79-2.44,3.05-4.54,3.79-1.15.46-2.5.67-4.06.64-1.56-.03-3.03-.03-4.4,0-1.37.03-2.47.2-3.3.51-.83.31-1.05,1.01-.67,2.09.19.57.68,1.21,1.48,1.92.8.71,1.69,1.41,2.68,2.09.99.68,1.98,1.32,2.96,1.92.99.6,1.74,1.06,2.25,1.41,3.12,1.99,5.28,4.08,6.46,6.26,1.18,2.19,1.67,4.34,1.48,6.47-.19,2.13-.94,4.19-2.25,6.18-1.31,1.99-2.89,3.8-4.73,5.45Z"/>
        </g>
        <path class="cls-1" d="m47.55,320.22c-1.29,1.09-2.85,1.78-4.68,2.06s-3.62.25-5.37-.12c-1.75-.36-3.33-1.03-4.72-1.98-1.4-.96-2.29-2.17-2.67-3.62-.27-1.04-.09-2.39.52-4.05.62-1.66,1.4-3.36,2.34-5.1.94-1.74,1.91-3.43,2.91-5.06,1-1.63,1.74-2.92,2.22-3.85-2.75.42-5.33.32-7.75-.27-2.42-.6-4.62-1.58-6.58-2.96-1.97-1.37-3.63-3.05-5.01-5.02-1.37-1.97-2.38-4.14-3.03-6.5-.65-2.36-.86-4.83-.65-7.39.21-2.57.94-5.12,2.18-7.67.54-1.09,1.33-2.02,2.38-2.8s2.18-1.37,3.39-1.79c1.21-.41,2.46-.63,3.76-.66,1.29-.03,2.45.12,3.47.43,1.02.31,1.87.82,2.54,1.52.67.7,1.01,1.59,1.01,2.69,0,4,.22,7.06.65,9.18.43,2.13,1.01,3.5,1.74,4.13.73.62,1.59.58,2.58-.12,1-.7,2.07-1.89,3.23-3.58,1.16-1.69,2.35-3.78,3.59-6.27,1.24-2.49,2.5-5.24,3.8-8.25.38-.93,1.14-1.57,2.3-1.91,1.16-.34,2.41-.43,3.76-.27,1.34.16,2.64.52,3.88,1.09,1.24.57,2.18,1.3,2.83,2.18.65.88,1.08,2.04,1.29,3.46.22,1.43.27,2.97.16,4.63-.11,1.66-.32,3.41-.65,5.25-.32,1.84-.69,3.62-1.09,5.33-.4,1.71-.82,3.34-1.25,4.87-.43,1.53-.81,2.82-1.13,3.85-.27.99-.65,2.27-1.13,3.85-.48,1.58-1.04,3.32-1.66,5.22-.62,1.89-1.29,3.85-2.02,5.88-.73,2.02-1.49,3.93-2.3,5.72-.81,1.79-1.62,3.39-2.42,4.79-.81,1.4-1.62,2.44-2.42,3.11Z"/>
        <g>
          <path class="cls-1" d="m430.95,322.44c-3.91.18-7.42-.41-10.51-1.76-3.1-1.35-5.75-3.23-7.97-5.67-2.22-2.43-3.99-5.27-5.3-8.52-1.31-3.25-2.16-6.71-2.54-10.37-.38-3.66-.26-7.4.35-11.21.61-3.81,1.77-7.5,3.46-11.07,1.4-3.05,3.36-5.57,5.87-7.56,2.51-1.99,5.3-3.43,8.36-4.31,3.07-.88,6.28-1.21,9.64-1.01,3.36.21,6.58.95,9.68,2.24,1.87.82,3.44,1.99,4.73,3.52,1.28,1.52,2.25,3.25,2.89,5.18.64,1.93.96,3.99.96,6.15s-.31,4.28-.92,6.33c-.61,2.05-1.53,3.95-2.76,5.71-1.23,1.76-2.77,3.19-4.64,4.31-1.11.65-2.48,1.06-4.12,1.23-1.64.18-3.32.21-5.04.09-1.72-.12-3.42-.38-5.08-.79-1.66-.41-3.11-.85-4.34-1.32-.06.65-.12,1.52-.18,2.64-.06,1.11.03,2.2.26,3.25.23,1.05.69,1.98,1.36,2.77.67.79,1.74,1.19,3.2,1.19,1.11,0,2.2-.2,3.28-.62,1.08-.41,2.23-.82,3.46-1.23s2.55-.73,3.99-.97c1.43-.23,2.99-.15,4.69.26,1.28.29,2.26.82,2.93,1.58.67.76,1.11,1.66,1.31,2.68.2,1.03.2,2.17,0,3.43-.21,1.26-.51,2.53-.92,3.82-.53,1.52-1.36,2.89-2.5,4.09-1.14,1.2-2.45,2.23-3.94,3.08-1.49.85-3.08,1.52-4.77,2.02-1.69.5-3.33.78-4.9.84Zm-.79-45.87c-1.34.59-2.34,1.29-2.98,2.11-.64.82-.93,1.57-.88,2.24.06.67.45,1.14,1.18,1.41.73.26,1.8.1,3.2-.48.93-.41,1.61-.98,2.01-1.71.41-.73.58-1.42.53-2.07-.06-.64-.35-1.14-.88-1.49-.53-.35-1.26-.35-2.19,0Z"/>
          <path class="cls-1" d="m485.17,314.88c-2.1,2.04-4.6,3.73-7.49,5.07-2.89,1.33-5.77,2.14-8.63,2.43-2.86.28-5.55-.06-8.06-1.02-2.51-.96-4.41-2.75-5.69-5.37-.47-.96-.76-2.02-.88-3.15-.12-1.14-.07-2.27.13-3.41.2-1.14.6-2.19,1.18-3.15.58-.96,1.34-1.76,2.28-2.38,1.05-.68,2.29-1.22,3.72-1.62,1.43-.4,2.73-.79,3.9-1.19,1.17-.4,2-.84,2.5-1.32s.31-1.15-.57-2c-.99-.91-2.06-1.79-3.2-2.64s-2.23-1.73-3.28-2.64c-1.05-.91-2.02-1.86-2.89-2.85-.88-.99-1.52-2.12-1.93-3.37-.93-2.67-1.23-5.24-.88-7.71.35-2.47,1.15-4.73,2.41-6.77,1.26-2.04,2.89-3.86,4.9-5.45,2.02-1.59,4.28-2.84,6.79-3.75,2.51-.91,5.15-1.45,7.93-1.62,2.77-.17,5.56.11,8.36.85,1.98.57,3.53,1.69,4.64,3.36,1.11,1.68,1.74,3.48,1.88,5.41.14,1.93-.2,3.79-1.05,5.58-.85,1.79-2.23,3.05-4.16,3.79-1.05.46-2.29.67-3.72.64-1.43-.03-2.77-.03-4.03,0-1.26.03-2.26.2-3.02.51-.76.31-.96,1.01-.61,2.09.18.57.63,1.21,1.36,1.92.73.71,1.55,1.41,2.45,2.09.9.68,1.81,1.32,2.71,1.92s1.59,1.06,2.06,1.41c2.86,1.99,4.83,4.08,5.91,6.26,1.08,2.19,1.53,4.34,1.36,6.47-.18,2.13-.86,4.19-2.06,6.18-1.2,1.99-2.64,3.8-4.34,5.45Z"/>
          <path class="cls-1" d="m537.02,318.38c-1.75,1.17-3.71,2.11-5.87,2.8-2.16.69-4.37,1.11-6.61,1.24-2.25.13-4.48.03-6.7-.32-2.22-.35-4.25-.97-6.09-1.88-1.84-.91-3.42-2.07-4.73-3.48-1.31-1.41-2.23-3.11-2.76-5.09-.82-3.2-1.23-6.47-1.23-9.81s.06-6.66.18-9.97c-1.93.16-3.5-.16-4.73-.96-1.23-.8-2.12-1.85-2.67-3.16-.55-1.31-.76-2.77-.61-4.4.14-1.63.63-3.24,1.45-4.85.29-.59.74-1.05,1.36-1.4.61-.35,1.28-.6,2.02-.76.73-.16,1.49-.28,2.28-.36.79-.08,1.53-.12,2.23-.12.06-.53.2-1.36.44-2.48.23-1.12.5-2.28.79-3.48.29-1.2.63-2.33,1.01-3.4.38-1.07.74-1.84,1.1-2.32.93-1.12,2.1-1.93,3.5-2.44,1.4-.51,2.9-.77,4.51-.8,1.6-.03,3.21.16,4.82.56,1.6.4,3.08.95,4.42,1.64.88.48,1.45,1.16,1.71,2.04.26.88.38,1.84.35,2.88s-.19,2.11-.48,3.2c-.29,1.09-.56,2.07-.79,2.92,1.58.05,3.14.28,4.69.68,1.55.4,2.93.97,4.16,1.72,1.23.75,2.2,1.67,2.93,2.76.73,1.1,1.07,2.36,1.01,3.8-.06,1.98-.59,3.6-1.58,4.89-.99,1.28-2.28,2.26-3.85,2.92-1.58.67-3.36,1.06-5.34,1.16-1.99.11-4.03-.05-6.13-.48-.47,1.5-.7,3.03-.7,4.6s.14,3.14.44,4.68c.18.96.55,1.51,1.14,1.64.58.13,1.31.08,2.19-.16.88-.24,1.82-.59,2.85-1.04,1.02-.45,2.06-.79,3.11-1,1.81-.37,3.42-.33,4.82.12,1.4.45,2.58,1.19,3.55,2.2.96,1.01,1.66,2.2,2.1,3.56.44,1.36.58,2.78.44,4.24-.15,1.47-.6,2.9-1.36,4.28-.76,1.39-1.87,2.59-3.33,3.61Z"/>
          <path class="cls-1" d="m599.74,308.59c.47,2.45.41,4.63-.17,6.53-.59,1.9-1.51,3.45-2.76,4.64-1.26,1.2-2.72,2-4.38,2.41s-3.36.41-5.08,0c-1.72-.41-3.37-1.26-4.95-2.54-1.58-1.28-2.86-3.09-3.85-5.43-2.28,2.69-4.89,4.64-7.84,5.87-2.95,1.23-5.91,1.72-8.89,1.49-2.98-.23-5.77-1.21-8.37-2.93-2.6-1.72-4.63-4.19-6.09-7.4-1.69-3.74-2.54-7.88-2.54-12.44s.66-9.06,1.97-13.53c1.31-4.47,3.2-8.64,5.65-12.53,2.45-3.88,5.31-7.02,8.58-9.42,1.23-.93,2.63-1.56,4.21-1.88,1.58-.32,3.2-.39,4.86-.22s3.28.59,4.86,1.23c1.58.64,2.98,1.46,4.2,2.45,1.58-1.58,3.3-2.69,5.17-3.33,1.87-.64,3.62-.8,5.26-.48,1.63.32,3.02,1.11,4.16,2.37,1.14,1.26,1.77,3.02,1.88,5.3.06,1.52-.03,3.02-.26,4.51s-.47,2.98-.7,4.47c-.23,1.49-.44,2.98-.61,4.47-.18,1.49-.21,2.99-.09,4.51.17,1.87.5,3.72.96,5.56.47,1.84.99,3.65,1.58,5.43.58,1.78,1.18,3.58,1.8,5.39.61,1.81,1.1,3.65,1.44,5.52Zm-34.16-20.15c-.76,1.93-1.05,3.69-.88,5.3.18,1.61.66,2.8,1.45,3.59.79.79,1.75,1.09,2.89.92s2.29-1.11,3.46-2.8c1.17-1.63,1.9-3.23,2.19-4.77.29-1.55.31-2.89.05-4.03-.26-1.14-.74-2.04-1.45-2.71-.7-.67-1.5-.99-2.41-.96s-1.83.48-2.76,1.36c-.93.88-1.78,2.25-2.54,4.12Z"/>
          <path class="cls-1" d="m647.3,316.84c-3.62,2.64-7.58,4.35-11.87,5.13-4.29.78-8.44.66-12.44-.36-4-1.02-7.61-2.89-10.82-5.63-3.21-2.73-5.58-6.26-7.1-10.58-1.4-4.02-2.05-7.97-1.93-11.84.12-3.87.82-7.52,2.1-10.94,1.28-3.42,3.02-6.54,5.21-9.36,2.19-2.82,4.66-5.21,7.4-7.16,2.75-1.95,5.65-3.37,8.72-4.28,3.07-.9,6.1-1.14,9.11-.72,3.01.42,5.88,1.59,8.63,3.51,2.74,1.92,5.14,4.74,7.18,8.46.93,1.68,1.23,3.54.88,5.58-.35,2.04-1.11,3.9-2.28,5.58-1.17,1.68-2.63,3.01-4.38,4.01-1.75.99-3.53,1.28-5.34.85-1.11-.24-2.48-.66-4.12-1.26-1.64-.6-3.29-1.15-4.95-1.66-1.66-.51-3.23-.81-4.69-.9-1.46-.09-2.6.26-3.42,1.04-1.05,1.02-1.65,2.25-1.8,3.69-.15,1.44.06,2.82.61,4.14.55,1.32,1.39,2.49,2.5,3.51,1.11,1.02,2.42,1.62,3.94,1.8,1.28.18,2.54.12,3.77-.18,1.23-.3,2.47-.67,3.72-1.13,1.26-.45,2.51-.88,3.77-1.31,1.26-.42,2.53-.69,3.81-.81,2.51-.18,4.51.51,6,2.07,1.49,1.56,2.41,3.48,2.76,5.76.35,2.28.12,4.64-.7,7.07-.82,2.43-2.25,4.4-4.29,5.9Z"/>
          <path class="cls-1" d="m677.61,319.32c-.64.81-1.51,1.45-2.58,1.92-1.08.46-2.25.8-3.5,1-1.26.2-2.51.28-3.77.22-1.26-.06-2.35-.26-3.29-.61-1.58-.52-2.83-1.62-3.77-3.31-.93-1.68-1.66-3.58-2.19-5.7-.52-2.12-.89-4.29-1.1-6.53-.2-2.23-.37-4.17-.48-5.79-.12-1.22-.1-2.66.04-4.31.14-1.65.41-3.3.79-4.92.38-1.62.91-3.12,1.58-4.48.67-1.36,1.5-2.36,2.5-3,1.05-.64,2.29-1.09,3.72-1.35,1.43-.26,2.86-.32,4.29-.17,1.43.15,2.76.51,3.99,1.09,1.23.58,2.19,1.39,2.89,2.44.53.75.86,2.02,1.01,3.79.14,1.77.2,3.66.18,5.66-.03,2-.07,3.93-.13,5.79s-.06,3.22,0,4.09c.06.81.18,1.89.35,3.22.18,1.34.31,2.71.39,4.14.09,1.42.07,2.77-.04,4.05-.12,1.28-.41,2.21-.87,2.79Zm1.49-44.94c-1.46,1.51-3.21,2.8-5.26,3.88-2.04,1.08-4.09,1.5-6.13,1.26-1.29-.12-2.41-.62-3.37-1.52-.96-.9-1.91-1.79-2.85-2.66-1.93-1.86-2.71-3.75-2.36-5.66.35-1.92,1.4-3.6,3.15-5.05,1.75-1.45,3.97-2.51,6.66-3.18,2.69-.67,5.34-.71,7.97-.13,1.46.35,2.58,1.02,3.37,2,.79.99,1.27,2.13,1.45,3.44.17,1.31.04,2.64-.4,4.01-.44,1.37-1.18,2.57-2.23,3.61Z"/>
          <path class="cls-1" d="m722.46,318.91c-4.03,2.24-7.94,3.41-11.74,3.53-3.8.12-7.27-.59-10.42-2.13-3.15-1.54-5.93-3.76-8.32-6.66s-4.23-6.24-5.52-10.01c-1.28-3.77-1.93-7.85-1.93-12.23s.82-8.8,2.45-13.28c1.34-3.74,3.28-6.89,5.82-9.42,2.54-2.54,5.36-4.45,8.45-5.75,3.09-1.3,6.35-1.98,9.77-2.04,3.42-.06,6.7.5,9.85,1.68,3.15,1.18,6.04,2.99,8.67,5.44,2.63,2.45,4.7,5.51,6.22,9.2.93,2.23,1.53,4.67,1.79,7.29.26,2.63.25,5.29-.04,7.98-.29,2.69-.85,5.36-1.66,8.02-.82,2.66-1.87,5.17-3.15,7.52-1.28,2.36-2.79,4.47-4.51,6.34-1.72,1.87-3.63,3.38-5.74,4.53Zm-14.45-33.62c-1.34,1.75-2.22,3.49-2.63,5.21-.41,1.72-.47,3.29-.18,4.71s.85,2.6,1.66,3.53c.82.94,1.75,1.5,2.8,1.68,1.05.18,2.16-.09,3.33-.82,1.17-.72,2.28-2.08,3.33-4.08,1.11-2.17,1.59-4.29,1.45-6.34-.15-2.05-.7-3.7-1.66-4.94-.96-1.24-2.19-1.86-3.68-1.86s-2.96.97-4.42,2.9Z"/>
          <path class="cls-1" d="m798.14,313.25c-.82,2.41-2.1,4.39-3.86,5.94-1.75,1.55-3.68,2.55-5.78,3.01-2.1.46-4.17.34-6.22-.34-2.04-.69-3.74-2.12-5.08-4.3-.82-1.32-1.33-3.11-1.53-5.38-.21-2.27-.26-4.72-.17-7.36.09-2.64.19-5.32.31-8.04.12-2.72.07-5.17-.13-7.36-.21-2.18-.64-3.94-1.31-5.29-.67-1.35-1.8-1.99-3.37-1.93-2.05.06-3.53.95-4.47,2.67-.93,1.72-1.53,3.82-1.79,6.28s-.28,5.05-.05,7.74.47,5.05.7,7.05c.06.69.1,1.63.13,2.84.03,1.2,0,2.42-.09,3.66-.09,1.23-.26,2.41-.53,3.53-.26,1.12-.63,1.93-1.09,2.45-.76.86-1.7,1.55-2.8,2.06-1.11.52-2.28.86-3.5,1.03-1.23.17-2.48.19-3.77.04-1.29-.14-2.48-.42-3.59-.82-1.46-.52-2.63-1.39-3.5-2.62-.88-1.23-1.55-2.7-2.02-4.39-.47-1.69-.76-3.53-.88-5.51-.12-1.98-.18-3.97-.18-5.98s.05-3.97.13-5.89c.09-1.92.1-3.66.04-5.2,0-1.72-.13-3.43-.39-5.12-.26-1.69-.51-3.38-.74-5.08-.23-1.69-.41-3.38-.53-5.08-.12-1.69-.03-3.37.26-5.03.35-2.35,1.14-4.27,2.36-5.76,1.23-1.49,2.64-2.58,4.25-3.27,1.6-.69,3.3-.97,5.08-.86,1.78.12,3.4.62,4.86,1.51,1.46.89,2.66,2.17,3.59,3.83.94,1.66,1.4,3.67,1.4,6.02,1.93-2.75,4.25-5,6.96-6.75,2.72-1.75,5.47-2.81,8.28-3.18,2.8-.37,5.46.01,7.97,1.16,2.51,1.15,4.5,3.21,5.96,6.19.7,1.43,1.39,3.3,2.06,5.59.67,2.3,1.27,4.79,1.79,7.49.53,2.7.98,5.52,1.36,8.47.38,2.96.64,5.81.79,8.56.14,2.75.14,5.31,0,7.66-.15,2.35-.45,4.27-.92,5.76Z"/>
          <path class="cls-1" d="m829.76,322.42c-3.91.18-7.42-.41-10.51-1.76-3.1-1.35-5.75-3.23-7.97-5.67-2.22-2.43-3.99-5.27-5.3-8.52-1.31-3.25-2.16-6.71-2.54-10.36-.38-3.66-.26-7.39.35-11.2.61-3.81,1.77-7.5,3.46-11.07,1.4-3.04,3.36-5.56,5.87-7.56,2.51-1.99,5.3-3.43,8.37-4.3,3.07-.88,6.28-1.21,9.63-1.01,3.36.21,6.58.95,9.68,2.24,1.87.82,3.44,1.99,4.73,3.51s2.25,3.25,2.89,5.18c.64,1.93.96,3.98.96,6.15s-.31,4.28-.92,6.33c-.61,2.05-1.53,3.95-2.76,5.71-1.23,1.76-2.77,3.19-4.64,4.3-1.11.65-2.48,1.05-4.12,1.23-1.64.18-3.31.21-5.04.09-1.72-.12-3.42-.38-5.08-.79-1.66-.41-3.11-.85-4.34-1.32-.06.65-.12,1.52-.18,2.64-.06,1.11.03,2.2.26,3.25.23,1.05.69,1.98,1.36,2.77.67.79,1.74,1.19,3.2,1.19,1.11,0,2.2-.2,3.28-.62,1.08-.41,2.23-.82,3.46-1.23,1.23-.41,2.55-.73,3.99-.97,1.43-.23,2.99-.15,4.69.26,1.28.29,2.26.82,2.93,1.58.67.76,1.11,1.66,1.31,2.68.2,1.03.2,2.17,0,3.43-.21,1.26-.51,2.53-.92,3.82-.53,1.52-1.36,2.89-2.5,4.09-1.14,1.2-2.45,2.23-3.94,3.08-1.49.85-3.08,1.52-4.77,2.02-1.7.5-3.33.78-4.9.84Zm-.79-45.85c-1.34.59-2.34,1.29-2.98,2.11-.64.82-.94,1.57-.88,2.24.06.67.45,1.14,1.18,1.41.73.26,1.8.1,3.2-.48.93-.41,1.61-.98,2.02-1.71.41-.73.58-1.42.53-2.06-.06-.64-.35-1.14-.88-1.49-.52-.35-1.26-.35-2.19,0Z"/>
          <path class="cls-1" d="m883.98,314.88c-2.1,2.04-4.6,3.73-7.49,5.07-2.89,1.33-5.77,2.14-8.63,2.43-2.86.28-5.55-.06-8.06-1.02-2.51-.96-4.41-2.75-5.69-5.37-.47-.96-.76-2.02-.87-3.15-.12-1.14-.07-2.27.13-3.41.2-1.14.6-2.19,1.18-3.15.58-.96,1.34-1.76,2.28-2.38,1.05-.68,2.29-1.22,3.72-1.62,1.43-.4,2.73-.79,3.9-1.19,1.17-.4,2-.84,2.5-1.32s.31-1.15-.57-2c-.99-.91-2.06-1.79-3.2-2.64s-2.23-1.73-3.29-2.64c-1.05-.91-2.01-1.86-2.89-2.85-.88-.99-1.52-2.12-1.93-3.37-.94-2.67-1.23-5.24-.88-7.71.35-2.47,1.15-4.73,2.41-6.77,1.25-2.04,2.89-3.86,4.9-5.45,2.02-1.59,4.28-2.84,6.79-3.75,2.51-.91,5.15-1.45,7.93-1.62,2.77-.17,5.56.11,8.37.85,1.98.57,3.53,1.69,4.64,3.36,1.11,1.68,1.74,3.48,1.88,5.41.15,1.93-.2,3.79-1.05,5.58-.85,1.79-2.23,3.05-4.16,3.79-1.05.46-2.29.67-3.72.64-1.43-.03-2.77-.03-4.03,0-1.26.03-2.26.2-3.02.51-.76.31-.96,1.01-.61,2.09.18.57.63,1.21,1.36,1.92.73.71,1.55,1.41,2.45,2.09.91.68,1.81,1.32,2.72,1.92.9.6,1.59,1.06,2.06,1.41,2.86,1.99,4.83,4.08,5.91,6.26,1.08,2.19,1.53,4.34,1.36,6.47-.17,2.13-.86,4.19-2.06,6.18-1.2,1.99-2.64,3.8-4.34,5.45Z"/>
        </g>
        <g>
          <path class="cls-4" d="m195.7,195.43c-.15-.17-.35-.39-.59-.65,0,.01.01.02.02.03.19.21.38.41.57.62Z"/>
          <path class="cls-4" d="m171.24,200.7c-.13-.15-.16-.18,0,0h0Z"/>
          <path class="cls-4" d="m246.71,205.36c-17.75,1.69-38.46,2.7-52.06-11.08-5.78-5.86-9.53-13.11-16.82-17.4-8.03-4.74-17.45-6.18-26.61-6.8-5.93-.4-11.76-.25-17.59,1.03-10.86,2.38-20.03,9.06-28.45,15.98-7.54,6.19-14.4,13.65-23.39,17.78-5.78,2.65-13.22,3.97-18.95.52-2.34-1.41-4.19-3.48-5.87-5.63-8.51-10.91-14.05-24.36-18.53-37.35-1.97-5.69-7.99-10.05-14.18-8.05-5.63,1.82-10.16,8.08-8.05,14.18,3.58,10.36,7.72,20.63,12.92,30.29,2.41,4.48,5.08,8.82,8.13,12.9,3.87,5.18,7.75,9.81,13.32,13.27,9.75,6.05,22.1,6.78,32.99,3.79,11.09-3.05,20.14-9.95,28.68-17.38,7.53-6.56,15.01-14.11,24.78-17.15,9.19-2.87,21.05-2.43,29.27,2.93,6.03,3.94,9.94,10.31,14.9,15.53,7.52,7.93,17.55,13.13,28.1,15.7,12.18,2.96,23.94,1.31,36.22.1,5.82-.57,11.43-3.26,12.51-9.72,1.06-6.36-4.43-14.07-11.3-13.41Z"/>
          <path class="cls-4" d="m727.82,198.97c.23.16.46.31.69.47-.11-.1-.46-.37-1.23-.9.07.06.14.12.21.18.11.08.22.16.33.25Z"/>
          <path class="cls-4" d="m612.39,218.52c.7-.57,1.23-1.05,0,0h0Z"/>
          <path class="cls-4" d="m753.96,208.07c.56.04.82-.01-1.14-.16.1.02.2.03.29.05.28.04.56.07.84.11Z"/>
          <path class="cls-4" d="m512.47,207.41c-.8-.1-2.02-.14,0,0h0Z"/>
          <path class="cls-4" d="m607.29,221.72c-1.29.33-1.7.56-1.63.62.46-.14.93-.33,1.4-.51.08-.04.16-.08.24-.12Z"/>
          <path class="cls-4" d="m889.29,159.49c-3.21-4.98-10.42-7.73-15.77-4.13-16.7,11.22-33.4,22.44-50.56,32.95-16.65,10.2-33.35,19.32-53.29,20.45-13.93.79-28.46-2.27-40.4-9.66-11.45-7.08-19.28-18.65-30.78-25.69-6.93-4.25-15.29-6.67-23.44-5.9-9.58.9-17.78,4.52-25.3,10.39-11.01,8.6-17.7,21.79-27.21,31.99-4.52,4.85-10.37,10.13-16.99,11.8-9.07,2.29-18.46-3.45-26.1-7.56-4.92-2.65-9.68-5.57-14.42-8.51-9.99-6.19-19.92-12.34-31.01-16.42-21.1-7.76-47.55-8.29-67.2,3.75-6.26,3.83-10.9,8.27-18.33,10.1-10.37,2.54-21.64,2.39-32.18,1.16-2.73-.32-6.29,1.52-8.15,3.38-2,2-3.5,5.28-3.38,8.15.13,2.98,1.11,6.07,3.38,8.15,2.4,2.2,4.94,3,8.15,3.38,10.97,1.28,21.9.93,32.78-.92,6.91-1.17,14.12-3.16,20.23-6.67,6.88-3.96,11.58-8.83,19.65-11.05,7.47-2.06,15.38-2.41,23.04-1.31,22.91,3.3,40.12,19.15,60.27,29.01,9.95,4.87,20.98,10.74,32.42,9.51,9.08-.98,16.53-4.97,23.54-10.64,9.15-7.39,15.65-17.33,23.01-26.37,6.13-7.54,14.19-16.93,24.57-17.78,15.42-1.27,24.74,15.46,35.28,23.92,7.16,5.75,14.64,9.89,23.5,12.51,9.27,2.74,19.12,4.02,28.76,4.31,9.91.3,20.04-.61,29.7-2.91,9.98-2.38,18.68-7.09,27.46-12.25,17.57-10.32,34.69-21.33,51.62-32.65,4.34-2.9,8.67-5.82,13.01-8.73,5-3.36,7.65-10.31,4.13-15.77Zm-413.66,55.25c.25-.22.49-.41.53-.4-.21.16-.38.29-.53.4Zm199.16-24.15c.11-.13.59-.15,1.05-.15-.53.09-1.07.18-1.05.15Zm4.01-.28c.32.07.64.14.96.21-.27-.06-.57-.13-.96-.21Zm.96.21c1.04.16,1.95.42,0,0h0Z"/>
        </g>
        <g>
          <path class="cls-4" d="m614.3,174.45l-33.51-18.4c-9.21-5.06-20.77-1.69-25.83,7.52l-3.24,5.91c-3.4,6.19-1.56,13.82,4.01,17.86.18-.55.41-1.09.7-1.62,2.5-4.56,8.25-6.24,12.81-3.73,4.56,2.5,6.24,8.25,3.73,12.81-.31.56-.67,1.08-1.07,1.55l13.47,7.39c.18-.59.43-1.17.74-1.74,2.5-4.56,8.25-6.24,12.81-3.73,4.56,2.5,6.24,8.25,3.73,12.81-.28.51-.61.98-.96,1.41,6.32,2.32,13.55-.25,16.89-6.33l3.24-5.91c5.06-9.21,1.69-20.77-7.52-25.83Zm-38.05-7.31l-1.92,3.5c-1.04,1.89-3.42,2.59-5.31,1.55l-3.5-1.92c-1.89-1.04-2.59-3.42-1.55-5.31l1.92-3.5c1.04-1.89,3.42-2.59,5.31-1.55l3.5,1.92c1.89,1.04,2.59,3.42,1.55,5.31Zm13.83,7.59l-1.92,3.5c-1.04,1.89-3.42,2.59-5.31,1.55l-3.5-1.92c-1.89-1.04-2.59-3.42-1.55-5.31l1.92-3.5c1.04-1.89,3.42-2.59,5.31-1.55l3.5,1.92c1.89,1.04,2.59,3.42,1.55,5.31Zm13.83,7.59l-1.92,3.5c-1.04,1.89-3.42,2.59-5.31,1.55l-3.5-1.92c-1.89-1.04-2.59-3.42-1.55-5.31l1.92-3.5c1.04-1.89,3.42-2.59,5.31-1.55l3.5,1.92c1.89,1.04,2.59,3.42,1.55,5.31Zm13.83,7.59l-1.92,3.5c-1.04,1.89-3.42,2.59-5.31,1.55l-3.5-1.92c-1.89-1.04-2.59-3.42-1.55-5.31l1.92-3.5c1.04-1.89,3.42-2.59,5.31-1.55l3.5,1.92c1.89,1.04,2.59,3.42,1.55,5.31Z"/>
          <circle class="cls-4" cx="564.12" cy="191.44" r="7.49"/>
          <circle class="cls-4" cx="593.67" cy="207.41" r="7.49"/>
        </g>
        <path class="cls-1" d="m341.81,319.35c-3.02,1.83-6.75,3.07-11.19,3.71-4.44.64-9.06.81-13.88.53-4.82-.29-9.49-.95-14.02-2.01-4.53-1.06-8.5-2.37-11.9-3.92-2.08-.99-3.92-2.15-5.52-3.5-1.61-1.34-2.69-2.86-3.26-4.56-1.13-3.39-1.42-6.92-.85-10.6.57-3.67,1.6-7.13,3.12-10.38,1.7-4.1,3.87-8.05,6.52-11.87,2.64-3.81,5.19-7.7,7.65-11.66-.19,0-.33.04-.42.11-.1.07-.24.11-.42.11-4.16.57-8.4.99-12.75,1.27-4.35.29-8.5-.14-12.46-1.27-2.27-.71-4.25-1.8-5.95-3.28-1.7-1.48-3.02-3.07-3.97-4.77-.76-1.69-1.42-3.42-1.98-5.19-.57-1.77-1.04-3.57-1.42-5.4-.38-1.84-.62-3.67-.71-5.51-.1-1.83.33-3.67,1.27-5.51,1.51-3.67,4.44-6.5,8.78-8.48,3.02-1.41,6.32-2.29,9.91-2.65,3.59-.35,7.08-.67,10.48-.95,3.58-.28,7.17-.46,10.76-.53,3.58-.07,7.17-.18,10.76-.32,1.13,0,2.45.21,3.97.64,1.89-3.11,3.63-6.21,5.24-9.33,1.6-3.11,2.69-6.36,3.26-9.75,0-.85-.47-1.27-1.42-1.27-4.35.14-8.55.57-12.6,1.27-4.06.71-8.26,1.2-12.61,1.48-3.78.29-7.6.32-11.47.11-3.87-.21-7.41-1.02-10.62-2.44-2.83-1.27-5.15-3.07-6.94-5.4-1.8-2.33-3.07-4.7-3.82-7.1-.76-2.82-1.23-5.69-1.42-8.58-.19-2.89.09-5.75.85-8.58.57-1.84,1.37-3.64,2.41-5.4,1.04-1.76,2.5-3.35,4.39-4.77,2.45-1.98,5.33-3.53,8.64-4.66,3.3-1.13,6.75-1.98,10.34-2.54,8.68-1.27,17.42-1.94,26.2-2.01,8.78-.07,17.6.04,26.48.32,4.34.28,8.64.53,12.89.74,4.25.21,8.54.67,12.89,1.38,1.7.28,3.4.57,5.1.85,1.7.28,3.3.71,4.82,1.27,3.97,1.27,7.46,3.25,10.48,5.93,3.21,2.83,5.67,6.18,7.37,10.07,1.7,3.89,2.55,7.74,2.55,11.55-.19,3.25-.99,6.39-2.41,9.43-1.42,3.04-2.88,6.11-4.39,9.22-1.32,2.4-2.74,4.74-4.25,6.99-1.51,2.26-3.02,4.59-4.53,6.99-.38.85-.85,1.66-1.42,2.44-.57.78-1.04,1.59-1.42,2.44.94.14,1.84.25,2.69.32.85.07,1.74.25,2.69.53,1.89.29,3.73.57,5.52.85,1.79.29,3.54.78,5.24,1.48,3.21,1.13,5.57,3.04,7.08,5.72,1.32,2.83,1.98,5.93,1.98,9.33.38,2.83.38,5.58,0,8.26-.38,2.69-.85,5.37-1.42,8.05-1.51,6.08-5.76,10.53-12.75,13.35-1.51.71-3.21,1.17-5.1,1.38-1.89.21-3.78.32-5.67.32-2.83,0-5.62-.17-8.36-.53-2.74-.35-5.43-.67-8.07-.95,0,.85-.14,1.88-.42,3.07-.28,1.2-.61,2.4-.99,3.6-.38,1.2-.71,2.33-.99,3.39-.28,1.06-.52,1.87-.71,2.44-1.51,4.1-2.88,8.16-4.11,12.19-1.23,4.03-2.79,8.02-4.67,11.97-.95,1.98-2.12,3.89-3.54,5.72-1.42,1.84-3.26,3.46-5.52,4.87Z"/>
      </g>
    </g>
  </g>
</svg>