<?xml version="1.0" encoding="UTF-8"?>
<svg id="Capa_2" data-name="Capa 2" xmlns="http://www.w3.org/2000/svg" viewBox="0 0 213.4 242.16">
  <defs>
    <style>
      .cls-1 {
        stroke-width: 0px;
      }

      .cls-2 {
        opacity: .1;
      }
    </style>
  </defs>
  <g id="Capa_1-2" data-name="Capa 1">
    <g class="cls-2">
      <path class="cls-1" d="m80.69,241.79c6.81-33.61,13.59-67.22,20.44-100.82,3.15-15.47,3.21-15.44-12.81-15.49-6.66-.02-13.32-.1-19.97-.26-.71-.02-1.41-.72-3.22-1.71C87.16,82.26,109.13,41.13,131.1,0c.44.16.88.33,1.32.49-5.65,26.22-11.33,52.44-16.95,78.67-4.5,20.97-6.01,19.2,15.46,19.26,5.19.02,10.37,0,18.02,0-23,49.21-45.09,96.47-67.18,143.74-.36-.12-.72-.25-1.08-.37Z"/>
      <path class="cls-1" d="m97.22,228.61c1.29-9.33,5.03-13.15,13.68-13.84,46.66-3.74,80.31-35.3,86.76-81.14,5.08-36.12-14.58-78.44-56.06-95.6-4.22-1.74-9.24-2.51-8.13-9.43,1.13-7.08,4.52-7.94,10.47-5.64,25.15,9.69,44.19,26.35,56.88,50.06,37.9,70.77-14.55,157.3-94.71,156.33-2.7-.03-5.4-.43-8.9-.73Z"/>
      <path class="cls-1" d="m112.07,16.05c-2.04,12.71-3.65,13.83-18.09,15.99-33.05,4.94-56.99,22.79-70.97,52.83-21.55,46.31-.71,100.8,45.82,121.96,1.01.46,2.01.99,3.07,1.28,7.27,1.99,8.14,6.96,5.58,12.92-2.66,6.21-7.14,2.29-10.54.98C22.72,205.07-3.58,161.07.4,111.02,3.88,67.18,39.58,27.53,84.12,18.68c8.96-1.78,18.27-1.77,27.95-2.64Z"/>
    </g>
  </g>
</svg>