<?xml version="1.0" encoding="UTF-8"?>
<svg id="Capa_2" data-name="Capa 2" xmlns="http://www.w3.org/2000/svg" viewBox="0 0 473.92 318.25">
  <defs>
    <style>
      .cls-1 {
        fill: #f19dc0;
      }

      .cls-1, .cls-2, .cls-3 {
        stroke-width: 0px;
      }

      .cls-2 {
        fill: #d06b8f;
      }

      .cls-3 {
        fill: #d14672;
      }
    </style>
  </defs>
  <g id="Capa_1-2" data-name="Capa 1">
    <g>
      <path class="cls-2" d="m131.68.34c30.67,0,59.06-.19,87.44.25,3.32.05,7.4,2.82,9.76,5.53,35.77,40.91,71.31,82.03,106.9,123.09.08.1.17.2.25.29,14.71,16.97,14.71,42.16,0,59.13-4.4,5.08-8.79,10.14-13.19,15.21-31.17,35.95-62.42,71.82-93.41,107.93-4.08,4.76-8.3,6.55-14.49,6.46-24.62-.33-49.25-.14-73.87-.15-2.61,0-5.22,0-9.8,0,46.59-53.69,92-106.03,137.97-159.01C223.63,106.43,178.25,54.08,131.68.34Z"/>
      <path class="cls-3" d="m137.99,159.05C92.02,106.05,46.77,53.87.26.24c15.89,0,29.83,0,43.77,0,14.34,0,28.68-.18,43.02.14,2.89.06,6.69,1.15,8.46,3.18,33.29,38.15,66.45,76.41,99.78,114.88,20.19,23.31,20.25,57.94.06,81.24-.12.14-.24.27-.35.41-32.42,37.39-64.94,74.69-97.23,112.2-3.69,4.28-7.39,6.03-13.07,5.97-27.58-.29-55.17-.13-84.69-.13,46.5-53.6,92.03-106.09,137.99-159.07Z"/>
      <path class="cls-1" d="m262.55,318.07c46.65-53.76,92.09-106.14,137.96-159C354.76,106.31,309.35,53.93,262.81.24c27.81,0,53.92.43,80.01-.23,9.34-.24,15.15,2.97,21.1,9.92,31.59,36.86,63.43,73.51,95.51,110.43,19.27,22.18,19.34,55.19.08,77.39-.11.13-.23.26-.34.39-33.5,38.6-66.99,77.21-100.65,115.66-1.84,2.1-5.2,4.05-7.87,4.08-28.67.29-57.34.18-88.09.18Z"/>
    </g>
  </g>
</svg>