<?xml version="1.0" encoding="UTF-8"?>
<svg id="Capa_2" data-name="Capa 2" xmlns="http://www.w3.org/2000/svg" viewBox="0 0 356.82 98.89">
  <defs>
    <style>
      .cls-1 {
        fill: #fff;
        stroke-width: 0px;
      }
    </style>
  </defs>
  <g id="Capa_1-2" data-name="Capa 1">
    <g>
      <path class="cls-1" d="m12.21.93v67.45h10.91v2.47H0v-2.47h9.65V3.4H0V.93h12.21Zm54.77,0v2.47h-9.84v68.38h-3.45L10.39.93h10.72l33.47,55.42V3.4h-10.58V.93h22.98Z"/>
      <path class="cls-1" d="m73.6,70.85v-2.47h8.39V3.4h-8.39V.93h50.01v19.11h-2.47c0-3.32-.44-6.24-1.33-8.74-.89-2.5-2.38-4.44-4.47-5.83-2.1-1.38-4.96-2.07-8.6-2.07h-15.85v64.98h14.87c4.26,0,7.57-.72,9.93-2.17,2.36-1.44,4.02-3.54,4.96-6.29.95-2.75,1.42-6.1,1.42-10.04h2.47v20.98h-50.95Zm31.7-25.96c0-2.08-.37-3.78-1.09-5.1-.73-1.32-1.76-2.29-3.1-2.91-1.34-.62-2.89-.93-4.66-.93h-7.22v-2.47h7.22c1.77,0,3.33-.28,4.66-.84,1.34-.56,2.37-1.47,3.1-2.73.73-1.26,1.09-2.93,1.09-5.01h2.47v20h-2.47Z"/>
      <path class="cls-1" d="m131.54,70.85v-2.47h8.76l23.87-36.4,1.68,1.86-22.56,34.54h10.11v2.47h-21.86Zm40.41,0v-2.47h8.2L141.88,3.4h-7.04V.93h26.06v2.47h-8.2l38.69,64.98h7.46v2.47h-26.89Zm-6.2-39.39l17.43-28.06h-9.51V.93h20v2.47h-7.69l-18.5,30.11-1.72-2.05Z"/>
      <path class="cls-1" d="m166.65,70.85v-2.47h8.76l23.87-36.4,1.68,1.86-22.56,34.54h10.11v2.47h-21.86Zm40.41,0v-2.47h8.2L176.99,3.4h-7.04V.93h26.06v2.47h-8.2l38.69,64.98h7.46v2.47h-26.89Zm-6.2-39.39l17.43-28.06h-9.51V.93h20v2.47h-7.69l-18.5,30.11-1.72-2.05Z"/>
      <path class="cls-1" d="m302.05.93v2.47h-8.62v46.01c0,7.68-1.78,13.39-5.34,17.15-3.56,3.76-9.02,5.64-16.38,5.64-8.05,0-13.94-1.79-17.69-5.36-3.75-3.57-5.62-9.38-5.62-17.43V3.4h-8.39V.93h26.62v2.47h-9.37v45.07c0,3.08.23,5.9.68,8.46.45,2.56,1.27,4.77,2.45,6.62,1.18,1.85,2.84,3.29,4.96,4.31,2.13,1.02,4.87,1.54,8.23,1.54,3.73,0,6.89-.66,9.49-1.98,2.59-1.32,4.57-3.45,5.92-6.39,1.35-2.94,2.03-6.81,2.03-11.63V3.4h-8.44V.93h19.48Z"/>
      <path class="cls-1" d="m335.43,72.2c-3.95,0-7.39-.62-10.32-1.86-2.94-1.24-5.42-2.92-7.43-5.03l-4.05,6.48h-2.1v-19.16h2.42c.47,2.46,1.24,4.72,2.33,6.78,1.09,2.07,2.49,3.86,4.22,5.38,1.73,1.52,3.75,2.71,6.08,3.57,2.33.86,4.99,1.28,7.97,1.28,3.29,0,6.13-.54,8.51-1.63,2.38-1.09,4.2-2.66,5.48-4.73,1.27-2.07,1.91-4.58,1.91-7.53,0-2.73-.66-5.04-1.98-6.92-1.32-1.88-3.08-3.5-5.29-4.87-2.21-1.37-4.62-2.63-7.25-3.78-2.63-1.15-5.26-2.35-7.9-3.61-2.64-1.26-5.06-2.73-7.25-4.4s-3.95-3.72-5.29-6.13c-1.34-2.41-2.01-5.34-2.01-8.79s.86-6.46,2.59-9.04c1.73-2.58,4.05-4.59,6.97-6.04,2.92-1.44,6.18-2.17,9.79-2.17,3.04,0,5.86.49,8.44,1.47,2.58.98,4.83,2.43,6.76,4.36l4.1-5.83h2.05v19.16h-2.38c-.62-3.73-1.78-6.81-3.47-9.23-1.7-2.42-3.79-4.23-6.29-5.43-2.5-1.2-5.28-1.79-8.32-1.79-4.44,0-7.8,1.03-10.07,3.08s-3.4,4.75-3.4,8.11c0,2.46.66,4.54,1.98,6.25,1.32,1.71,3.07,3.2,5.24,4.47,2.18,1.27,4.56,2.48,7.15,3.61,2.59,1.13,5.2,2.35,7.81,3.64,2.61,1.29,5,2.82,7.18,4.59,2.18,1.77,3.92,3.93,5.24,6.48,1.32,2.55,1.98,5.64,1.98,9.28,0,4.04-.87,7.56-2.61,10.56-1.74,3-4.21,5.32-7.41,6.97-3.2,1.65-6.99,2.47-11.37,2.47Z"/>
      <g>
        <path class="cls-1" d="m1.2,80.47v-.81h3.66v1.1h-.23l-3.43-.29Zm3.66,16.94v1.1H1.2v-.81l3.43-.29h.23Zm-.79-9.07c0-2.9,0-5.8-.07-8.67h1.71c-.07,2.84-.07,5.75-.07,8.98v.58c0,3.51,0,6.42.07,9.28h-1.71c.07-2.84.07-5.75.07-8.67v-1.51Zm9.16-8.67l.77.96H4.87v-.96h9.87l.24,4.59h-1.06l-.68-4.59Zm-2.13,9.74h-6.24v-.91h6.24v.91Zm4.34,4.52l-.24,4.59H4.87v-.96h9.61l-.77.96.68-4.59h1.07Zm-4.87-5.29l.34-2.84h.85v6.3h-.85l-.34-2.9v-.56Z"/>
        <path class="cls-1" d="m44.61,80.47v-.81h3.66v1.1h-.23l-3.43-.29Zm3.66,16.94v1.1h-3.66v-.81l3.43-.29h.23Zm-.79-8.89c0-3.08,0-5.99-.07-8.85h1.71c-.07,2.84-.07,5.75-.07,8.85v.7c0,3.51,0,6.42.07,9.28h-1.71c.07-2.84.07-5.75.07-9.28v-.7Zm.79,9.08h3.33c5.33,0,8-3.25,8-8.49,0-5.55-2.7-8.53-7.65-8.53h-3.67v-.91h3.99c5.63,0,9.13,3.36,9.13,9.44s-3.67,9.4-9.52,9.4h-3.6v-.91Z"/>
        <path class="cls-1" d="m90.39,80.47v-.81h7.33v.81l-3.43.29h-.47l-3.43-.29Zm3.9,16.94l3.43.29v.81h-7.33v-.81l3.43-.29h.47Zm-1.02-9.07c0-2.9,0-5.8-.07-8.67h1.71c-.07,2.84-.07,5.75-.07,8.67v1.51c0,2.9,0,5.8.07,8.67h-1.71c.07-2.84.07-5.75.07-8.67v-1.51Z"/>
        <path class="cls-1" d="m127.3,80.62l.77-.96-.69,4.74h-1.06l.25-4.74h15.08l.26,4.74h-1.07l-.69-4.74.77.96h-13.62Zm7.04,16.78l3.71.29v.81h-7.89v-.81l3.71-.29h.47Zm-1.02-9.07c0-2.9,0-5.8-.07-8.67h1.72c-.07,2.84-.07,5.75-.07,8.67v1.51c0,2.9,0,5.8.07,8.67h-1.72c.07-2.84.07-5.75.07-8.67v-1.51Z"/>
        <path class="cls-1" d="m187.12,89.09c0,6.01-3.8,9.8-8.29,9.8s-8.31-3.68-8.31-9.8,3.83-9.82,8.31-9.82,8.29,3.69,8.29,9.82Zm-8.29,8.84c4.24,0,6.5-4.18,6.5-8.84s-2.26-8.86-6.5-8.86-6.51,4.19-6.51,8.86,2.27,8.84,6.51,8.84Z"/>
        <path class="cls-1" d="m216.18,80.47v-.81h3.66v1.1h-.23l-3.43-.29Zm3.9,16.94l3.43.29v.81h-7.33v-.81l3.43-.29h.47Zm-1.02-9.07c0-2.9,0-5.8-.07-8.67h1.71c-.07,2.88-.07,5.71-.07,9.42v.48c0,3.18,0,6.08.07,8.95h-1.71c.07-2.84.07-5.75.07-8.67v-1.51Zm.79.55h3.81c2.94,0,4.82-1.84,4.82-4.28s-1.51-4.03-4.85-4.03h-3.77v-.91h3.82c4.09,0,6.42,1.77,6.42,4.94,0,2.63-2.01,4.7-5.41,4.98l-.09-.24c2.08.24,2.88,1.09,3.59,3.21l1.79,5.33-.62-.41,3,.23v.81c-.41.11-1.08.2-1.89.2-1.53,0-2.05-.42-2.34-1.37l-1.47-4.78c-.65-2.16-1.41-2.81-3.85-2.81h-2.95v-.87Z"/>
        <path class="cls-1" d="m260.88,80.47v-.81h7.33v.81l-3.43.29h-.47l-3.43-.29Zm3.9,16.94l3.43.29v.81h-7.33v-.81l3.43-.29h.47Zm-1.02-9.07c0-2.9,0-5.8-.07-8.67h1.71c-.07,2.84-.07,5.75-.07,8.67v1.51c0,2.9,0,5.8.07,8.67h-1.71c.07-2.84.07-5.75.07-8.67v-1.51Z"/>
        <path class="cls-1" d="m296.49,97.7l2.59-.28h.47l2.87.28v.81h-5.93v-.81Zm8.29-18.21h1.05l6.42,19.01h-1.65l-5.85-17.65.55-.16-5.81,17.81h-1.03l6.33-19.01Zm-3.4,11.57h7.67l.32.88h-8.34l.34-.88Zm5.88,6.64l3.43-.28h.47l3.31.28v.81h-7.2v-.81Z"/>
        <path class="cls-1" d="m342.37,80.47v-.81h7.33v.81l-3.43.29h-.47l-3.43-.29Zm3.66,16.94v1.1h-3.66v-.81l3.43-.29h.23Zm-.86-17.74h1.72c-.07,2.86-.07,5.77-.07,9.26v1.49c0,2.35,0,5.25.07,8.09h-1.72c.07-2.86.07-5.77.07-8.67v-1.51c0-2.92,0-5.83-.07-8.67Zm10.88,13.98l-.28,4.87h-9.75v-.96h9.02l-.9.96.79-4.87h1.11Z"/>
      </g>
    </g>
  </g>
</svg>