<?xml version="1.0" encoding="UTF-8"?>
<svg id="Capa_2" data-name="Capa 2" xmlns="http://www.w3.org/2000/svg" viewBox="0 0 657.58 224.63">
  <defs>
    <style>
      .cls-1 {
        fill: #9fcb8f;
        stroke-width: 0px;
      }
    </style>
  </defs>
  <g id="Capa_1-2" data-name="Capa 1">
    <path class="cls-1" d="m652.03,25.94c-11.37-20.61-20.63-22.56-43.41-21.4-1.7.09-6.94,1.44-7.82,1.18-.31-.09-3.31-3.93-4.38-4.81-.37-.31-.82-.61-1.32-.92H24.27c-10.31,31.2-14.71,74.08-15.85,105.03-.25,6.77,1.69,13.49,1.19,20.29-.65,8.73-7.85,8.81-8.85,16.66-.89,7.03-2.24,16.84,4.37,21.7,6.62,4.86,17.99,5.56,25.82,7.19,22.36,4.67,45.1,7.44,67.89,8.83,5.49.33,65.19,1.05,65.2,1.32,1.13,24.27,21.17,43.61,45.72,43.61,23.19,0,42.36-17.25,45.36-39.63,1.16-.44,2.36-.72,3.61-.83v-7.04h244.74v18.33c.09.05.18.11.26.16,2.98,19.14,18.11,27.81,38.09,27.81,22.09,0,38.98-11.78,38.98-33.86,0-.45,11.49-7.98,17.86-7.67,22.05,1.1,44.17-10.78,44.22-34.47.07-34.43-17.16-68.26-28.73-100.13-2.58-7.1-5.34-14.12-7.9-21.23-4.62-12.86,2.35-15.65,15.76-13.45,5.86.96,11.96,3.15,15.4,7.99,5.25,7.4,2.41,17.82,7.78,25.09,3.88,5.26,11.05,8.01,12.3-.9.77-5.49-2.84-14.15-5.45-18.89ZM100.51,158.35h-36.76V30.39h36.76v127.96Zm46.47,0h-36.76V30.39h36.76v127.96Zm131.41-67.91h-100.08V25.38h100.08v65.05Zm118.06,0h-100.08V25.38h100.08v65.05Zm62.83,67.91h-36.76V30.39h36.76v127.96Zm46.47,0h-36.76V30.39h36.76v127.96Zm84.79-67.91h-65.05V25.38h65.05v65.05Z"/>
    <circle class="cls-1" cx="211.94" cy="171.66" r="52.97" transform="translate(-27.76 301.78) rotate(-67.5)"/>
    <path class="cls-1" d="m491.51,174.77c1.61,27.81,24.66,49.86,52.87,49.86s51.26-22.06,52.87-49.86h-105.75Z"/>
  </g>
</svg>