<?xml version="1.0" encoding="UTF-8"?>
<svg id="Capa_2" data-name="Capa 2" xmlns="http://www.w3.org/2000/svg" viewBox="0 0 927.94 187.17">
  <defs>
    <style>
      .cls-1 {
        fill: #f9c36e;
      }

      .cls-1, .cls-2, .cls-3 {
        stroke-width: 0px;
      }

      .cls-2 {
        fill: #d06b8f;
      }

      .cls-3 {
        fill: #d14672;
      }
    </style>
  </defs>
  <g id="Capa_1-2" data-name="Capa 1">
    <g>
      <path class="cls-1" d="m902.07,57.44c3.5,13.87,6.12,27.93,8.82,41.9l1.27,14.31c-.69.76-3.76-2.13-4.3-2.73-4.51-5-4.8-19.13-6.17-26.22-.79-4.11-2.05-8.17-2.94-12.34-1.27-5.98-2.34-12.01-3.73-17.96,2.6.63,6.11-.11,7.05,3.04Z"/>
      <path class="cls-1" d="m896.88,40.6l1.81,5.85-6.44-1.82c-.64-.82,2.49-5.54,4.63-4.03Z"/>
      <path class="cls-2" d="m352.7,17.5c.67-.55,2.68-2.22,3.33-2.22l4.9,3.71,5.04-3.61c2.14-.49,3.56,3.61,5.37,3.61l5.53-3.68,4.88,3.68c1.65,0,3.07-3.54,4.93-3.72,2.38-.23,3.7,3.72,5.48,3.72,2.94-.96,3.13-5,6.65-2.99,1.4.8,2.08,2.62,3.76,2.99,1.8,0,3.23-4.1,5.37-3.61l5.04,3.61,4.9-3.71,5.05,3.58v143.56c-.88-.36-2.84,2.53-3.53,2.84-3.78,1.75-5.25-3.6-6.94-3.31-4.13,4.64-5.69,4.84-9.87.1-4.75,3.73-5.78,5.15-10.41,0-2.57.68-3.51,4.59-6.43,3.22-1.12-.52-2.27-2.99-4-3.22-4.64,5.36-5.54,3.73-10.41,0-4.64,5.36-5.54,3.73-10.41,0-2.17,1.54-3.25,4.66-6.41,3.2-.58-.27-2.06-2.35-3.03-2.79V19.06c.82-.05.59-1.03,1.22-1.56Z"/>
      <path class="cls-3" d="m422.9,18.86v143.56c.06.02.11.06.15.11,0,3.68,1.44,5.7,5.19,6.12l69.14-.06c6.97-.98,4.09-9.72,4.7-14.86,4.27-36.3,61.45-35.8,64.81,1.78.5,5.63-2.49,12.21,5.2,13.14l196.38-.14c5.33-1.63,3.11-7.38,3.5-11.78,3.68-41.14,63.89-39.27,65.51,1.86.15,3.92-2.42,8.38,3.49,9.9l65.3.09c9.25-2.01,14.14-10.04,13.85-19.22-.15-4.83-1.57-30.73-2.91-33.11-.55-.96-1.58-.76-1.87-2.41-1.47-8.14-1.75-16.63-3.38-24.76l-7.16-32.86c4.78.96,11.33,1.32,13.4,6.47,1.63,4.06.38,12.82.65,17.68.07,1.24.72,7.87.94,8.22,1.99,3.28,6.99-2.06,7.52-4.72,1.08-5.4.86-18.42-1.45-23.32-3.81-8.11-16.24-10.89-24-13.63l-1.35-6.59c4.78.28,6.61.14,7.8-4.74,1.93-7.93.56-12.57-6.78-16.14-9.67-4.7-18.42-5.39-28.87-6.01-54.52-3.26-111.12,1.15-165.92-.56-6.67-6.16-13.7-11.91-23.21-12.89h-153.08c-10.46.72-16.66,6.89-24.47,12.84-26.04,1.36-52.25.29-78.35.61-3.22.14-4.48,2.6-4.58,5.51l-.15-.11Zm423.14,36.45c0-3.61,15-.07,17.51.24,7.39.9,22.93.28,25.68,9.19,1.38,4.46,2.16,12.48,3.06,17.23,1.57,8.33,5.03,22.07,4.61,30.17-.14,2.66-1.03,3.78-3.86,3.21-12.37-4.86-26.22-7.97-38.4-13.03-4-1.66-7.81-3.75-8.6-8.52v-38.49Zm-91.81-18.64h82.29v64.09h-82.29V36.67Zm-87.99.27h82.83v37.36c.16,5.22.21,10.38,0,15.4v12.41h-55.76s-.61.54-.61.54l.27-.54h-26.73V36.94Zm-86.09.27h81.75v64.91h-81.75V37.22Zm-86.91-.27h82.56v66.27h-82.56V36.94Zm-38.02.27h32.32v66.81h-32.32V37.22Z"/>
      <path class="cls-3" d="m807,131.55c-28.94-2.38-41.6,35.25-16.86,51.64,7.05,4.67,19.54,4.76,26.93.81,25.12-13.42,17.33-50.2-10.07-52.45Z"/>
      <path class="cls-3" d="m536.43,131.55c-32.96-2.29-41.2,44.41-10.67,54.02,39.44,12.41,51.09-51.21,10.67-54.02Z"/>
      <path class="cls-3" d="m147.73,131.55c-36.79-3.12-40.91,52.27-4.72,55.4,35.71,3.09,41.16-52.31,4.72-55.4Z"/>
      <path class="cls-1" d="m71.32,74.36v15.33c-.22-4.99-.16-10.13,0-15.33Z"/>
      <path class="cls-3" d="m.7,151.21c1.36,14.49,13.43,13.18,24.16,14.37,28.01,3.1,55.47,3.75,83.73,2.91,6.12-1.23,3.72-8.31,4.13-12.98,3.33-38.15,61.54-37.85,64.87-.61.47,5.32-2.17,12.94,5.2,13.75h162.86c3.76-.42,5.19-2.45,5.19-6.12.16-.18.39-.17.64-.05V19.06c-.17.01-.37-.01-.64-.09.02-2.29-.6-5.08-3.03-5.84-86.98,0-174.12-.94-261.13-.3-1.75.01-3.25.65-4.84.67-20.54.16-44.98-1.77-64.93-.05-6.92.6-8.96,3.75-12.02,9.39-7.17,13.23-3.54,29.03-3.54,43.45,0,10.04-.67,20.06-.67,29.94,0,17.09-1.51,38.48.04,54.99ZM246.15,36.94h81.07v67.08h-81.07v-6.56s0-58.64,0-58.64v-1.88Zm-87.4,0h81.07v67.08h-81.07V36.94Zm-87.43,52.75c-.22-4.99-.16-10.13,0-15.33v-37.41h81.07v67.08h-81.07v-14.34ZM30.19,36.94h34.77v1.88s0,59.56,0,59.56v5.65H30.19V36.94Z"/>
    </g>
  </g>
</svg>