<?xml version="1.0" encoding="UTF-8"?>
<svg id="Capa_2" data-name="Capa 2" xmlns="http://www.w3.org/2000/svg" viewBox="0 0 403.57 343.38">
  <defs>
    <style>
      .cls-1 {
        fill: #d14672;
        stroke-width: 0px;
      }
    </style>
  </defs>
  <g id="Capa_1-2" data-name="Capa 1">
    <g>
      <path class="cls-1" d="m391.6,226.06s.01,0,.02,0c5.24.02,7.6-5.01,8.23-9.56.87-6.25.25-16.65-8.23-16.65,0,0-.01,0-.02,0v-20.87h.02V42.8H10.68v212.51h-.27s-2.97,0-2.97,0v17.72h388.69v-17.72h-4.54v-29.24ZM46.68,178h-6.36s0-78.17,0-78.17h6.36v78.17Zm61.27.01l-18.37.06-25.49-.04v-77.75c6.41.9,13.62,1.13,21.3.07v8.66l3.12-7.46,2.54,7.46v-9.24h4.93s11.97,0,11.97,0v78.24Zm77.18-.01l-22.84.04-22.84-.04v-78.17h3.61c7.76,1.37,16.86,1.83,26.66.14v9.04l3.12-7.46,2.54,7.46v-9.19h9.76v78.17Zm58.46,0l-18.28.03-18.28-.03v-78.17h17.88c5.61.99,11.91,1.5,18.68,1.08v77.09Zm34.22.01l-16.64-.03v-74.64l1.93,5.67v-9.5l14.7-.02v78.52Zm28.18-4.93h-12.92v-73.61h12.92v73.61Zm12.67,0h-.01v-72.87s0,0,.01,0v72.86Zm35.72,0h-31.42v-72.35c5.18.47,10.79.48,16.69-.27v8.56l3.12-7.46,2.54,7.46v-9.23h9.06v73.29Zm12.67,0h-8.37v-.07h8.35v-81.65s0,0,.01,0v81.73Z"/>
      <polygon class="cls-1" points="358.67 95.9 357.43 95.9 357.44 95.9 358.67 95.9"/>
      <polygon class="cls-1" points="46.6 95.9 46.56 95.9 46.59 95.9 46.6 95.9"/>
      <polygon class="cls-1" points="314.14 0 248.37 0 202.24 28.36 73.23 28.36 73.23 28.35 16.47 28.35 16.47 42.79 384.94 42.79 314.14 0"/>
      <polygon class="cls-1" points="0 292 0 302.23 403.57 302.23 403.57 292 403.57 277.72 0 277.72 0 292"/>
      <path class="cls-1" d="m383.95,313.15H19.63v6.51h-8.94v6.51h37.29c5.84,10.17,18.29,17.22,32.67,17.22s26.83-7.04,32.67-17.22h15.42c5.84,10.17,18.29,17.22,32.67,17.22s26.83-7.04,32.67-17.22h15.42c5.84,10.17,18.29,17.22,32.67,17.22s26.83-7.04,32.67-17.22h15.42c5.84,10.17,18.29,17.22,32.67,17.22s26.83-7.04,32.67-17.22h37.29v-6.51h-8.94v-6.51Z"/>
    </g>
  </g>
</svg>