<?xml version="1.0" encoding="UTF-8"?>
<svg id="Capa_2" data-name="Capa 2" xmlns="http://www.w3.org/2000/svg" viewBox="0 0 633.98 289.29">
  <defs>
    <style>
      .cls-1 {
        fill: #9fcb8f;
      }

      .cls-1, .cls-2 {
        stroke-width: 0px;
      }

      .cls-2 {
        fill: none;
      }
    </style>
  </defs>
  <g id="Capa_1-2" data-name="Capa 1">
    <g>
      <path class="cls-2" d="m35.41,188.3c9.34.04,18.67.01,28.01.01,4.91,0,9.82,0,14.73,0,4.45,0,5.54-1.36,5.54-6.85,0-1.29,0-2.57,0-4.15H30.55c0,2.41-.15,4.68.04,6.91.23,2.79,1.78,4.06,4.82,4.07Z"/>
      <rect class="cls-2" x="30.88" y="155.09" width="52.63" height="19.72"/>
      <path class="cls-2" d="m537.7,137.83c-.04-.83-1.46-2.21-2.25-2.23-7.53-.17-15.07-.1-22.81-.1v16.89h25.17c0-4.92.11-9.75-.11-14.56Z"/>
      <path class="cls-2" d="m55.52,152.39v-17.04c-4.92,0-9.81,0-14.69,0-2.17,0-4.34-.04-6.51-.03-2.02,0-3.22,1.29-3.27,3.77-.09,4.36-.02,8.72-.02,13.3h24.5Z"/>
      <rect class="cls-2" x="13.72" y="228.33" width="140.05" height="14.56"/>
      <path class="cls-2" d="m98.4,188.31c14.32,0,28.64.01,42.95,0,3.43,0,4.93-1.38,5-5.48.16-9.13.05-18.27.05-27.68h-53.67c0,3,.02,5.85,0,8.69-.05,5.67-.1,11.34-.18,17-.08,5.93,1.11,7.46,5.85,7.46Z"/>
      <path class="cls-2" d="m540.5,139.83c-.15,0-.3,0-.45.01v12.46c.15,0,.3,0,.45.01v-12.49Z"/>
      <path class="cls-2" d="m601.82,190.49v-34.33h-19.24v33.48h-5.84v-34.11c-1.22.11-2.06.18-3.03.27v34.24h8.88v.46h19.24Z"/>
      <path class="cls-2" d="m195.87,222.73c-10.43-5.55-23.64-2.18-29.92,6.08,16.64-16.22,41.58-6.67,46.01,20.45.24-7.65-5.89-21.1-16.09-26.54Z"/>
      <path class="cls-2" d="m209.83,182.24c.09-8.93.03-17.86.03-27.22-8.65,0-16.84,0-25.03,0-9.65,0-19.3.06-28.95-.04-1.76-.02-2.18.72-2.16,2.73.07,8.05,0,16.11.04,24.16.03,4.6,1.6,6.46,5.33,6.46,15.2,0,30.4,0,45.6-.02,3.95,0,5.09-1.22,5.14-6.07Z"/>
      <path class="cls-2" d="m82.75,142.77c-.02-7.86.5-7.51-5.99-7.44-5.31.05-10.61.01-15.92.01-1.02,0-2.05,0-3.16,0v17.12h25.07c0-3.24,0-6.46,0-9.68Z"/>
      <path class="cls-2" d="m35.76,21.15c0-2.3-.35-4.58.07-6.88.32-1.78-.4-2.79-1.77-3.27-4-1.39-7.98-2.9-12-4.2-2.94-.95-3.62-.25-3.61,3.47.07,18.9.17,37.79.26,56.69.07,16.01.15,32.02.22,48.03,0,.24,0,.5,0,.74l16.66.85c.06-.6.1-1.17.1-1.74.06-31.23.14-62.46.07-93.69Z"/>
      <path class="cls-2" d="m247.73,99.9c-2.54-.83-5.08-1.77-7.51-2.99-7.33-3.68-14.55-7.69-21.91-11.26-29.43-14.25-59.23-27.2-89.37-38.97-26.15-10.22-52.28-20.54-78.44-30.71-3.27-1.27-6.72-1.77-10.04-2.87-1.93-.64-2.08.4-2.26,2.34-2.21,23.88-.45,47.84-1.06,71.75-.24,9.35-.27,18.71-.29,28.06,0,.42.05.91.13,1.39l1.16.06-1.16-.06c.15.92.44,1.81.89,2.16,1.12.86,1.93-.58,2.92-1.48,1.04-.95,3.15-1.23,4.33-.56,2.46,1.4,4.88,1.61,7.48,1.61,21.9-.02,43.8,0,65.7.11,2.04.01,3.27-.72,4.19-2.99.82-2.02,1.96-3.86,3.08-5.66,1.67-2.68,3.94-3.92,6.69-3.95,12.47-.16,24.95-.43,37.42-.51,26.97-.19,53.94-.28,80.91-.46,2.28-.02,4.55-.44,6.82-.68.01-.14.02-.28.03-.41l-9.24-.62,9.24.62c.03-.38.06-.76.1-1.14-3.27-.91-6.57-1.72-9.81-2.77Z"/>
      <path class="cls-2" d="m279.95,105.33l-.95-.06c.3.05.62.07.95.06Z"/>
      <path class="cls-2" d="m262.37,99.72c-3.65-1.46-7.3-2.92-10.96-4.38l-.2.73c3.63,1.53,7.26,3.07,10.89,4.6.09-.32.17-.63.26-.95Z"/>
      <path class="cls-2" d="m18.93,118.43c1.66-.37,2.91-.89,4.15-.88,1.96.02,3.92.34,5.86.65,2.03.31,4.05.75,6.36,1.19.1-1.09.2-1.99.28-2.82l-16.66-.85c0,.76,0,1.57,0,2.7Z"/>
      <path class="cls-2" d="m145.97,138.09c-.05-.96-1.55-2.56-2.4-2.58-7.46-.2-14.93-.12-22.62-.12v16.99h25.13c0-4.7.13-9.51-.11-14.29Z"/>
      <path class="cls-2" d="m181.61,152.45v-17.05c-2.47,0-4.93,0-7.39,0-5.39-.02-10.77-.07-16.16-.05-2.96,0-3.82.89-3.93,4.44-.13,4.14-.03,8.29-.03,12.66h27.51Z"/>
      <path class="cls-2" d="m118.71,152.47v-16.9c-.91-.07-1.77-.18-2.64-.19-6.43-.03-12.86-.06-19.3-.06-3.08,0-3.9.98-3.92,4.7-.02,4.05,0,8.1,0,12.44h25.86Z"/>
      <path class="cls-2" d="m243.09,92.32c-9.6-4.09-19.2-8.18-28.81-12.27-.08.3-.17.6-.25.91,9.6,4.08,19.21,8.17,28.81,12.25.08-.29.16-.59.25-.88Z"/>
      <path class="cls-2" d="m209.68,138.76c-.09-1.97-1.18-3.46-3.05-3.46-7.47,0-14.95,0-22.77,0v17.12h25.88c0-4.6.14-9.14-.06-13.66Z"/>
      <rect class="cls-2" x="548.04" y="155.97" width="24.6" height="34.33"/>
      <path class="cls-2" d="m551.15,150.99c5.87.1,11.75.09,17.62.09,8.69,0,17.38-.04,26.08-.08.87,0,1.74-.1,2.39-.14.65-3.72,1.27-6.88,1.75-10.07.65-4.28-.15-5.51-3.57-5.3-14.04.86-28.08,1.78-42.12,2.71-1.2.08-2.46.14-3.55.65-.85.4-2.03,1.42-2.12,2.32-.27,2.53-.24,5.16.03,7.7.26,2.45,2.11,2.09,3.48,2.11Z"/>
      <path class="cls-2" d="m540.67,183.47c.11-9.35.04-18.7.04-28.28h-60.15c0,9.43-.12,18.66.06,27.89.07,3.79,1.58,5.22,4.71,5.23,17.07.03,34.14.03,51.21.01,2.71,0,4.1-1.46,4.14-4.84Z"/>
      <path class="cls-2" d="m502.25,226.5c10.58-7.23,21.26-8.22,31.28.52,9.92,8.65,12.67,21.55,11.41,36.73,2.84-8.89-.16-25.54-8.29-35.04-9.77-11.41-25.07-11.11-34.39-2.2Z"/>
      <path class="cls-2" d="m222.41,188.3c9.74.02,19.47,0,29.21,0,9.5,0,18.99.02,28.49.01,3.82,0,5.05-1.13,5.14-5.78.16-9.11.05-18.24.05-27.39h-67.34c0,9.8-.06,19.24.03,28.68.03,3.08,1.53,4.46,4.42,4.47Z"/>
      <path class="cls-2" d="m483.49,238.32v-8.43H214.75v14.04h268.74v-4.05c.45,0,.9,0,1.35,0,.76,0,1.52-.41,2.27-.64-.03-.31-.07-.62-.1-.92h-3.52Z"/>
      <rect class="cls-2" x="547.88" y="232.23" width="60.88" height="10.53"/>
      <path class="cls-2" d="m623.44,246.8c-3.78.02-7.55.1-11.33.05-1.32-.02-1.98.51-1.87,2.2,0,.1,0,.2-.01.3-.39,6.04-.23,6.25,4.62,6.04.24-.01.48,0,.72-.02,1.99-.21,4.46.36,5.81-.9,1.09-1.02.83-4.24,1.22-6.75h7.09c-.13,1.22-.19,2.18-.35,3.11-.15.85-.41,1.66-.74,2.94,1.71-.98,1.82-1.84,1.15-6.97-2.06,0-4.19,0-6.32,0Z"/>
      <path class="cls-2" d="m623.24,196.02c-.49-.29-.96-.57-1.43-.85h4s0,.05,0,.07c.35-.02.69-.04,1.04-.06,0,0,0-.01,0-.02h.04v-50.91h-17.66v50.91h5.48c2.67.46,5.4.55,8.53.85Z"/>
      <path class="cls-2" d="m250.16,152.44v-17.04c-4.51,0-9,0-13.48,0-4.98-.01-9.97,0-14.95-.09-2.13-.03-3.42,1.01-3.45,3.75-.05,4.35-.01,8.7-.01,13.38h31.9Z"/>
      <path class="cls-2" d="m471.91,143.63v6.61h-10.56v-12.39h10.41c-.34-1.54-1.29-2.33-2.97-2.37-6.34-.17-12.68-.05-19.19-.05v16.97h22.33v-8.76s-.02,0-.03,0Z"/>
      <path class="cls-2" d="m412.07,152.5c0-4.59.15-9.13-.06-13.65-.11-2.37-1.56-3.48-3.56-3.48-16.17,0-32.35-.04-48.52-.06-2.57,0-3.73,1.32-3.77,4.44-.05,4.16-.01,8.31-.01,12.75h55.93Z"/>
      <path class="cls-2" d="m425.03,188.31c14.24.04,28.47.03,42.71-.02,2.81-.01,4.26-1.42,4.3-4.67.14-9.42.05-18.85.05-28.57-12.02,0-23.67,0-35.33,0-4.82,0-9.65.01-14.47-.08-1.34-.03-1.88.49-1.87,2.18.04,8.55-.05,17.1.04,25.65.04,3.61,1.66,5.5,4.57,5.51Z"/>
      <path class="cls-2" d="m285.04,138.47c-.09-2.19-1.5-3.14-3.25-3.14-9.73,0-19.46,0-29.44,0v17.01h32.75c0-4.58.13-9.23-.06-13.87Z"/>
      <path class="cls-2" d="m361.48,188.31c14.82-.02,29.63-.01,44.45-.02,5.15,0,6.29-1.41,6.29-7.63,0-8.44,0-16.89,0-25.5h-56.21c-.08,1.02-.19,1.89-.2,2.75-.05,7.76-.12,15.53-.1,23.29.01,5.49,1.42,7.12,5.77,7.11Z"/>
      <path class="cls-2" d="m509.75,152.36v-16.95c-6.25,0-12.42,0-18.59,0-2.17,0-4.34.1-6.51.02-2.42-.09-3.64,1.44-3.71,4.24-.11,4.15-.03,8.31-.03,12.69h28.83Z"/>
      <path class="cls-2" d="m447.38,152.33v-16.94c-4.74,0-9.39,0-14.03,0-2.98,0-5.95.02-8.93.02-2.26,0-3.46,1.45-3.5,4.19-.06,4.16-.02,8.33-.02,12.73h26.47Z"/>
      <path class="cls-2" d="m297.95,188.32c14.96,0,29.92,0,44.88-.02,3.38,0,4.95-1.35,5.01-5.13.16-9.23.05-18.46.05-28.04h-54.71c-.1.42-.29.86-.29,1.31-.06,8.55-.17,17.1-.12,25.65.03,4.63,1.46,6.22,5.18,6.22Z"/>
      <path class="cls-2" d="m321.2,152.4v-16.66c-.43-.08-.88-.24-1.32-.25-7.63-.04-15.26-.11-22.89-.08-2.85.01-3.86,1.16-3.96,4.56-.12,4.05-.03,8.11-.03,12.42h28.2Z"/>
      <path class="cls-2" d="m347.29,138.17c-.06-.97-1.71-2.55-2.65-2.58-7.06-.22-14.12-.12-21.42-.12v16.91h24.2c0-4.76.15-9.51-.13-14.21Z"/>
      <path class="cls-1" d="m633.89,246.51c-.09-.89-.45-2.25-.94-2.46-2.07-.87-1.89-2.78-1.89-4.8.02-7.96-.19-15.93.03-23.89.15-5.52.94-11.01,1.28-16.53.12-1.94-.12-3.93-.35-5.87-.75-6.15-1.84-12.26-2.3-18.44-.61-8.21-.86-16.48-1.05-24.73-.06-2.41.88-4.85.89-7.27.02-4.66-.29-9.33-.48-13.99-.17-4.2-2.14-6.84-5.16-8.11-1.94-.82-4.06-1.29-6.11-1.31-20.13-.19-40.25-.25-60.38-.35-.3,0-.61-.11-.96-.18.23-3.85.57-7.58.63-11.31.08-4.33-.95-5.53-4.41-5.53-72.87.02-145.74.04-218.62.07-7.16,0-14.33.08-21.49.12-1.09,0-2.09.24-2.71-1.61-.28-.83-1.87-1.37-2.87-1.38-5.06-.05-10.13.11-15.19.2-2.13.04-3.78.88-4.23,3.79-.3,1.92-1.27,2.5-2.79,2.33-1.2-.14-2.41,0-3.62.04-.41.01-.82.05-1.23.06-.33,0-.65,0-.95-.06l-21.55-1.46c-.01.14-.02.28-.03.41-2.28.24-4.55.66-6.82.68-26.97.19-53.94.27-80.91.46-12.47.09-24.95.36-37.42.51-2.75.03-5.02,1.27-6.69,3.95-1.12,1.8-2.26,3.65-3.08,5.66-.92,2.27-2.15,3-4.19,2.99-21.9-.11-43.8-.13-65.7-.11-2.6,0-5.02-.21-7.48-1.61-1.18-.67-3.29-.38-4.33.56-.99.9-1.8,2.35-2.92,1.48-.45-.35-.73-1.24-.89-2.16l-1.41-.07c-.08.83-.19,1.73-.28,2.82-2.31-.44-4.33-.88-6.36-1.19-1.95-.3-3.91-.62-5.86-.65-1.25-.01-2.5.5-4.15.88,0-1.14,0-1.94,0-2.7l-1.15-.06c0,.61,0,1.19,0,1.82-1.89.56-3.76.77-3.84,3.79-.01.44-1.26,1.09-1.98,1.21-3.64.58-5.25,3.17-5.48,7.57-.44,8.52-1.03,17.03-1.54,25.55-.6,9.9-1.25,19.81-1.76,29.72-.32,6.15-.4,12.31-.59,18.47-.34,11.22-.72,22.43-.99,33.65-.03,1.28.56,2.58.86,3.86-2.1-.22-2.61,1.56-2.42,4.15.1,1.48.04,2.98.05,4.48.03,5.88,1.67,8.69,6.21,10.56,2.13.87,4.29,1.63,6.45,2.31h532.25c1.07-14.77-1.76-27.32-11.47-35.78-10.02-8.74-20.7-7.75-31.28-.52,9.32-8.9,24.63-9.2,34.39,2.2,7.86,9.18,10.91,25.01,8.54,34.1h82.08c5.07-2.21,6.54-4.83,6.67-11.82.03-1.49.12-3-.04-4.47Zm-93.85-106.67c.15,0,.3,0,.45-.01v12.49c-.15,0-.3,0-.45-.01v-12.46Zm-27.41-4.34c7.74,0,15.28-.07,22.81.1.8.02,2.22,1.4,2.25,2.23.22,4.81.11,9.65.11,14.56h-25.17v-16.89Zm-31.69,4.17c.07-2.81,1.29-4.33,3.71-4.24,2.17.08,4.34-.02,6.51-.02,6.17,0,12.33,0,18.59,0v16.95h-28.83c0-4.38-.08-8.54.03-12.69Zm-31.35-4.24c6.51,0,12.85-.11,19.19.05,1.68.04,2.64.83,2.97,2.37h.14v5.78s.02,0,.03,0v8.76h-22.33v-16.97Zm-28.67,4.17c.04-2.74,1.24-4.19,3.5-4.19,2.98,0,5.95-.02,8.93-.02,4.65,0,9.29,0,14.03,0v16.94h-26.47c0-4.41-.05-8.57.02-12.73Zm1.37,15.36c4.82.1,9.65.08,14.47.08,11.65,0,23.3,0,35.33,0,0,9.72.09,19.15-.05,28.57-.05,3.26-1.5,4.66-4.3,4.67-14.24.05-28.47.06-42.71.02-2.9,0-4.53-1.89-4.57-5.51-.09-8.55,0-17.1-.04-25.65,0-1.7.53-2.21,1.87-2.18Zm-66.14-15.22c.04-3.13,1.21-4.44,3.77-4.44,16.17.02,32.35.07,48.52.06,2.01,0,3.45,1.12,3.56,3.48.21,4.51.06,9.05.06,13.65h-55.93c0-4.44-.04-8.6.01-12.75Zm-.35,18.17c0-.86.12-1.73.2-2.75h56.21c0,8.61,0,17.06,0,25.5,0,6.22-1.14,7.63-6.29,7.63-14.82.01-29.63,0-44.45.02-4.35,0-5.76-1.62-5.77-7.11-.02-7.76.05-15.53.1-23.29Zm-32.58-22.44c7.3,0,14.37-.1,21.42.12.94.03,2.59,1.61,2.65,2.58.28,4.71.13,9.45.13,14.21h-24.2v-16.91Zm-30.2,4.51c.1-3.41,1.11-4.55,3.96-4.56,7.63-.03,15.26.03,22.89.08.45,0,.89.16,1.32.25v16.66h-28.2c0-4.31-.09-8.37.03-12.42Zm-.13,16.47c0-.45.2-.9.29-1.31h54.71c0,9.58.11,18.81-.05,28.04-.07,3.78-1.64,5.13-5.01,5.13-14.96.02-29.92.02-44.88.02-3.72,0-5.15-1.59-5.18-6.22-.05-8.55.06-17.1.12-25.65Zm-40.54-21.11c9.98,0,19.71,0,29.44,0,1.75,0,3.17.95,3.25,3.14.18,4.64.06,9.29.06,13.87h-32.75v-17Zm-34.08,3.73c.03-2.74,1.32-3.78,3.45-3.75,4.98.08,9.97.07,14.95.08,4.49.01,8.97,0,13.48,0v17.04h-31.9c0-4.68-.04-9.03.01-13.38Zm-.32,16.08h67.34c0,9.16.12,18.28-.05,27.39-.08,4.65-1.32,5.78-5.14,5.78-9.5,0-18.99-.01-28.49-.01-9.74,0-19.47.02-29.21,0-2.89,0-4.39-1.39-4.42-4.47-.09-9.44-.03-18.89-.03-28.68Zm-34.1-19.83c7.82,0,15.29,0,22.77,0,1.88,0,2.97,1.49,3.05,3.46.2,4.52.06,9.06.06,13.66h-25.88v-17.12Zm-29.72,4.48c.11-3.54.97-4.43,3.93-4.44,5.39-.02,10.77.04,16.16.05,2.46,0,4.92,0,7.39,0v17.05h-27.51c0-4.38-.1-8.53.03-12.67Zm-33.19-4.4c7.69,0,15.16-.09,22.62.12.85.02,2.35,1.62,2.4,2.58.25,4.78.11,9.59.11,14.29h-25.13v-16.99Zm-28.09,4.64c.02-3.73.84-4.71,3.92-4.7,6.43,0,12.86.03,19.3.06.86,0,1.73.12,2.64.19v16.9h-25.86c0-4.34-.02-8.39,0-12.44Zm-.12,23.82c.02-2.84,0-5.69,0-8.69h53.67c0,9.4.11,18.55-.05,27.68-.07,4.11-1.56,5.48-5,5.48-14.32,0-28.64,0-42.95,0-4.74,0-5.93-1.54-5.85-7.46.08-5.67.14-11.33.18-17Zm-35.05-28.5h3.16c5.31,0,10.61.04,15.92-.01,6.49-.06,5.97-.41,5.99,7.44,0,3.22,0,6.44,0,9.68h-25.07v-17.11Zm-26.63,3.75c.05-2.48,1.25-3.76,3.27-3.77,2.17,0,4.34.03,6.51.03,4.88,0,9.77,0,14.69,0v17.04h-24.5c0-4.58-.06-8.94.02-13.3Zm-.17,16h52.63v19.72H30.88v-19.72Zm-.33,22.22h53.13c0,1.58,0,2.87,0,4.15,0,5.49-1.09,6.85-5.54,6.85-4.91,0-9.82,0-14.73,0-9.34,0-18.67.03-28.01-.01-3.04-.01-4.58-1.28-4.82-4.07-.19-2.23-.04-4.5-.04-6.91Zm123.22,65.58H13.72v-14.56h140.05v14.56Zm-.02-61.02c-.04-8.05.03-16.11-.04-24.16-.02-2.01.4-2.75,2.16-2.73,9.65.11,19.3.04,28.95.04,8.19,0,16.38,0,25.03,0,0,9.36.07,18.29-.03,27.22-.05,4.85-1.19,6.06-5.14,6.07-15.2.02-30.4.02-45.6.02-3.73,0-5.31-1.86-5.33-6.46Zm12.21,46.94c6.27-8.26,19.49-11.64,29.92-6.08,10.2,5.43,16.34,18.88,16.09,26.54-4.43-27.13-29.37-36.67-46.01-20.45Zm318.88,11.07c-.45,0-.9,0-1.35,0v4.05H214.75v-14.04h268.74v8.43h3.52l.1.92c-.76.22-1.51.63-2.27.64Zm55.83-56.41c-.04,3.38-1.44,4.84-4.14,4.84-17.07.02-34.14.02-51.21-.01-3.13,0-4.64-1.44-4.71-5.23-.17-9.22-.06-18.45-.06-27.89h60.15c0,9.58.07,18.93-.04,28.28Zm33.04,6.57v-34.24c.97-.09,1.82-.16,3.03-.27v34.11h5.84v-33.48h19.24v34.33h-19.24v-.46h-8.88Zm-26.07-48.86c.09-.9,1.27-1.91,2.12-2.32,1.09-.52,2.36-.57,3.55-.65,14.04-.93,28.08-1.86,42.12-2.71,3.42-.21,4.21,1.02,3.57,5.3-.48,3.19-1.1,6.34-1.75,10.07-.66.04-1.53.13-2.4.14-8.69.04-17.38.07-26.08.08-5.87,0-11.75,0-17.62-.09-1.37-.02-3.22.34-3.48-2.11-.27-2.54-.3-5.17-.03-7.7Zm25.01,14.8v34.33h-24.6v-34.33h24.6Zm36.12,86.79h-60.88v-10.53h60.88v10.53Zm.02-98.92h18.52v53.48h-18.52v-53.48Zm19.83,109.93c.33-1.28.59-2.1.74-2.94.16-.93.22-1.89.35-3.11h-7.09c-.38,2.51-.12,5.74-1.22,6.75-1.35,1.26-3.82.69-5.81.9-.24.03-.48.01-.72.02-4.85.21-5.01,0-4.62-6.04,0-.1.02-.2.01-.3-.11-1.69.55-2.22,1.87-2.2,3.77.05,7.55-.03,11.33-.05,2.13-.01,4.26,0,6.32,0,.67,5.13.56,5.99-1.15,6.97Z"/>
      <path class="cls-1" d="m18.93,114.99c-.07-16.01-.15-32.02-.22-48.03-.09-18.9-.18-37.79-.26-56.69-.01-3.72.67-4.42,3.61-3.47,4.02,1.3,8,2.81,12,4.2,1.37.48,2.09,1.49,1.77,3.27-.42,2.31-.07,4.59-.07,6.88.07,31.23,0,62.46-.07,93.69,0,.56-.04,1.13-.1,1.74l1.41.07c-.08-.48-.13-.97-.13-1.39.02-9.36.05-18.71.29-28.06.61-23.91-1.15-47.87,1.06-71.75.18-1.94.33-2.98,2.26-2.34,3.32,1.1,6.77,1.6,10.04,2.87,26.16,10.17,52.29,20.49,78.44,30.71,30.14,11.78,59.94,24.72,89.37,38.97,7.36,3.56,14.58,7.58,21.91,11.26,2.43,1.22,4.97,2.17,7.51,2.99,3.24,1.05,6.54,1.86,9.81,2.77-.03.38-.06.76-.1,1.14l21.55,1.46c-.97-.17-1.75-.8-2-2.81-.09-.75-1.22-1.53-1.99-1.9-3.28-1.56-6.56-3.98-9.93-4.19-4.56-.29-8.28-3.17-12.49-4.33-.69-.19-1.39-1.27-1.76-2.15-1.12-2.68-3.41-2.98-4.93-2.25-2.09,1-3.76.23-5.47-.41-3.75-1.38-7.38-3.28-11.14-4.64-4.92-1.78-9.98-2.96-14.86-4.88-13.18-5.19-26.3-10.62-39.44-15.97-29.84-12.14-59.66-24.31-89.51-36.41C65.11,17.06,44.73,8.9,24.35.71c-.52-.21-1.06-.35-1.66-.55-.91,2.15.13,2.61,1.4,3.11,4.02,1.56,8.01,3.23,12.01,4.85-.06.28-.13.57-.19.85-3.22-1.01-6.46-1.9-9.65-3.05C21.04,4.03,15.88,1.9,10.65.09c-.83-.29-2.5.17-2.76.87-.64,1.72.38,2.91,1.78,3.44,1.61.6,3.21,1.22,4.83,1.77,1.83.61,2.53,2.04,2.54,4.37.12,21.5.29,42.99.45,64.49.09,12.54.2,25.08.29,37.62,0,.99,0,2.02,0,3.04l1.15.06c0-.24,0-.51,0-.74Zm232.49-19.64c3.65,1.46,7.3,2.92,10.96,4.38-.09.32-.17.63-.26.95-3.63-1.53-7.26-3.07-10.89-4.6l.2-.73Zm-37.13-15.3c9.6,4.09,19.2,8.18,28.81,12.27-.08.29-.16.59-.25.88-9.6-4.08-19.21-8.17-28.81-12.25.08-.3.17-.6.25-.91Z"/>
      <g>
        <ellipse class="cls-1" cx="512.64" cy="251.11" rx="35.87" ry="38.18"/>
        <ellipse class="cls-1" cx="184.22" cy="251.11" rx="37.02" ry="38.18"/>
      </g>
    </g>
  </g>
</svg>