<?xml version="1.0" encoding="UTF-8"?>
<svg id="Capa_2" data-name="Capa 2" xmlns="http://www.w3.org/2000/svg" viewBox="0 0 296.92 260.77">
  <defs>
    <style>
      .cls-1 {
        fill: #f7aa44;
        stroke-width: 0px;
      }
    </style>
  </defs>
  <g id="Capa_1-2" data-name="Capa 1">
    <path class="cls-1" d="m0,213.76c0-4.44,0-8.88,0-13.31.16-.45.4-.88.47-1.35,1.7-11.18,6.5-20.84,14.21-29.1.31-.34.53-.76.87-1.26C9.9,162.03,1.74,157.25,0,147.78V6.55C2.22,1.63,6.02-.02,11.4,0c37.78.15,75.56.08,113.34.08,22.32,0,44.64-.03,66.96-.02,4.84,0,8.47,2.67,9.39,6.97.32,1.48.22,3.07.22,4.61.01,5.15-1.37,6.54-6.48,6.54-16.72,0-33.43.04-50.15-.08-2.58-.02-3.27.78-3.27,3.28.07,35.97.07,71.94,0,107.91,0,2.64.81,3.5,3.46,3.48,16.14-.1,32.27-.11,48.41,0,2.89.02,3.58-1.03,3.53-3.71-.14-8.58-.06-17.16-.04-25.75.01-5.05,1.35-6.4,6.32-6.41,10.92-.01,21.84.01,32.75-.02,3.6-.01,4.98-1.13,5.76-4.41.82-3.43,2.55-4.83,5.31-4.3,2.58.49,3.86,2.86,3.31,6.12-1.11,6.51-6.15,11.1-12.81,11.22-8.98.17-17.97.07-26.96.08q-4.82,0-4.83,4.68c0,5.11.35,10.25-.09,15.33-.62,7.16,1.12,13.37,5.3,19.21,3.12,4.36,5.59,9.18,8.38,13.85,1.19-.47,2.08-.8,2.96-1.17,28.93-12.22,62.23,2.83,72.07,32.64,1.11,3.37,1.79,6.87,2.67,10.32v12.73c-.2.92-.44,1.84-.6,2.77-4.94,28.87-31.9,48.72-60.91,44.16-22.53-3.54-37.74-16.63-43.93-38.51-6.22-22,.23-40.86,17.37-56.03.85-.76,1.75-1.46,2.84-2.37-3.47-5.76-6.84-11.37-10.48-17.43-1.31,2.14-2.23,3.6-3.11,5.08-9.2,15.52-18.44,31.02-27.58,46.58-3.87,6.58-9.47,9.95-17.13,9.88-4.83-.04-9.66-.08-14.5-.09-9.47-.02-18.94.02-28.41-.07-2.12-.02-2.93.76-3,2.83-.06,2.01-.32,4.04-.67,6.03-4.19,24.3-24.59,43.07-48.46,44.63-26.11,1.7-48.82-13.73-56.2-38.23-.86-2.84-1.45-5.76-2.17-8.64Zm61.71-106.46c13.23,0,26.46.01,39.7,0,3.87,0,4.16-.29,4.17-4.11.02-21.01.02-42.03,0-63.05,0-3.8-.3-4.08-4.19-4.08-26.37-.01-52.74-.01-79.1,0-4.07,0-4.3.23-4.3,4.25-.01,20.92-.01,41.84,0,62.76,0,3.99.25,4.23,4.32,4.24,13.14.02,26.27,0,39.41,0Zm27.64,99.73c.43-16.51-12.48-35.1-35.15-35.65-19.96-.49-36.14,15.78-36.18,35.51-.04,19.86,16.02,35.89,35.89,35.82,19.57-.06,35.42-16.02,35.44-35.68Zm131.87-27.82c-13.71,9.99-18.67,31.22-7.82,47.54,10.89,16.38,33.13,20.85,49.59,9.92,16.29-10.82,20.79-32.96,9.95-49.27-11.95-17.99-33.75-18.59-43.99-12.62.54.98,1.05,1.98,1.62,2.95,5.03,8.46,10.07,16.9,15.11,25.35.39.66.82,1.31,1.15,2.01,1.17,2.41.53,4.88-1.54,6.04-2.08,1.17-4.57.58-6.01-1.75-3.25-5.25-6.37-10.58-9.53-15.88-2.81-4.7-5.62-9.4-8.54-14.29Zm-28.09-37.51c-1.17-.15-1.82-.3-2.47-.31-15.44-.01-30.89.03-46.33-.05-2.4-.01-2.91,1-2.9,3.11.06,14.06.08,28.13-.01,42.19-.02,2.47.97,3.16,3.25,3.1,5.79-.14,11.58-.24,17.37-.12,2.27.05,3.46-.84,4.55-2.7,8.29-14.13,16.67-28.21,25.01-42.3.48-.81.88-1.67,1.54-2.93Z"/>
  </g>
</svg>