<?xml version="1.0" encoding="UTF-8"?>
<svg id="Capa_2" data-name="Capa 2" xmlns="http://www.w3.org/2000/svg" viewBox="0 0 143.11 169.28">
  <defs>
    <style>
      .cls-1 {
        fill: #dae9c4;
      }

      .cls-1, .cls-2, .cls-3 {
        stroke-width: 0px;
      }

      .cls-2 {
        fill: #a1cc91;
      }

      .cls-3 {
        fill: #69aa4c;
      }
    </style>
  </defs>
  <g id="Capa_1-2" data-name="Capa 1">
    <g>
      <g>
        <path class="cls-2" d="m90.86,127.46c3.71,9.23,5.92,19.04,6.68,28.99-16.98,3.12-34.89,3.16-51.88-.01.57-9.95,2.86-19.8,6.67-28.98.7.28,1.45.42,2.19.55,8.76,1.51,19.06,1.7,27.92.87,2.82-.26,5.68-.71,8.41-1.42Z"/>
        <path class="cls-2" d="m104.25,103.94c.41.57-7.6,10.08-8.51,11.05-1.06,1.13-4.03,4.29-5.2,4.94-1.3.72-4.91,1.22-6.49,1.42-7.15.91-15.92.94-23.09.23-2.02-.2-6.43-.74-8.16-1.58-1.63-.8-6.08-5.74-7.47-7.34-.85-.97-6.44-7.99-6.4-8.61,12.4-8.16,28.28-10.57,42.87-8.39,8.11,1.21,15.47,4.08,22.44,8.29Z"/>
        <path class="cls-2" d="m.96,140.28c.47-.13,1.22-.06,1.7.04,1.99.43,6.11,5.03,7.89,6.51,18.2,15.12,44.55,17.77,68.26,16.99,18.48-.61,37.99-4.66,52.31-15.79,2.12-1.65,7.63-7.54,9.76-7.78,4.1-.46,1.5,4.53.45,6.17-5.62,8.77-19.78,15.22-30.07,18.14-22.18,6.28-56.96,6.27-79.15.05-10.47-2.94-24.34-9.22-30.15-18.07-.74-1.13-3.34-5.62-.99-6.26Z"/>
        <path class="cls-2" d="m104.66,154.64c-.86-10.57-3.29-21.02-7.5-30.73,0-.23,2.4-2.37,2.84-2.83,3.58-3.76,6.84-7.85,9.76-12.15l.45-.31c9.44,7.68,16.49,18.19,21.8,29.05-7.22,8.17-16.88,13.97-27.35,16.96Z"/>
        <path class="cls-2" d="m38.34,154.64c-6.46-1.98-12.63-4.81-18.11-8.76-1.39-1-9.02-7.14-9.06-8.37,5.35-10.96,12.51-21.16,21.8-29.11,3.81,5.6,8.16,10.79,13.02,15.51-4.38,9.68-6.5,20.2-7.65,30.73Z"/>
      </g>
      <g>
        <path class="cls-2" d="m42.65,62.3c0-5.58-.03-10.75.05-15.92,0-.6.51-1.35,1.01-1.78,7.45-6.51,14.93-12.98,22.41-19.46.02-.02.04-.03.05-.05,3.09-2.68,7.68-2.68,10.76,0,.92.8,1.85,1.6,2.77,2.4,6.54,5.67,13.07,11.36,19.65,17,.87.74,1.19,1.51,1.18,2.64-.06,4.48-.03,8.96-.03,13.45,0,.48,0,.95,0,1.78-9.77-8.48-19.3-16.75-28.94-25.12-9.58,8.31-19.11,16.57-28.89,25.04Z"/>
        <path class="cls-3" d="m71.54,61.15c-9.65,8.37-19.14,16.6-28.91,25.07,0-2.89,0-5.43,0-7.97,0-2.61-.03-5.22.03-7.83.01-.53.21-1.22.58-1.54,6.94-6.06,13.91-12.1,20.91-18.16,4.24-3.68,10.55-3.69,14.79-.01.02.02.05.04.07.06,6.81,5.9,13.6,11.82,20.42,17.7.78.67,1.1,1.35,1.09,2.38-.05,5.02-.02,10.04-.02,15.42-9.76-8.46-19.31-16.75-28.96-25.12Z"/>
        <path class="cls-1" d="m100.49,38.47c-9.79-8.49-19.32-16.76-28.94-25.11-9.6,8.33-19.14,16.59-28.91,25.07,0-5.06.08-9.82-.04-14.56-.04-1.7.54-2.76,1.81-3.84,6.71-5.75,13.38-11.55,20.1-17.39,4.04-3.51,10.05-3.52,14.09-.01.02.02.05.04.07.06,7.03,6.1,14.05,12.19,21.05,18.32.38.34.74.95.74,1.43.05,5.22.03,10.44.03,16.03Z"/>
      </g>
    </g>
  </g>
</svg>