<?xml version="1.0" encoding="UTF-8"?>
<svg id="Capa_2" data-name="Capa 2" xmlns="http://www.w3.org/2000/svg" xmlns:xlink="http://www.w3.org/1999/xlink" viewBox="0 0 246.92 246.92">
  <defs>
    <style>
      .cls-1, .cls-2 {
        fill: #353e51;
      }

      .cls-3 {
        fill: #dfdfdf;
      }

      .cls-3, .cls-4, .cls-5, .cls-6, .cls-7, .cls-8, .cls-9, .cls-10, .cls-2, .cls-11, .cls-12 {
        stroke-miterlimit: 10;
      }

      .cls-3, .cls-10 {
        stroke: #bfbebe;
      }

      .cls-13 {
        fill: #9f7e67;
      }

      .cls-14, .cls-15 {
        fill: #626262;
      }

      .cls-16 {
        fill: #8e8e8e;
      }

      .cls-16, .cls-17, .cls-18, .cls-15, .cls-19 {
        opacity: .44;
      }

      .cls-20 {
        fill: #e7e7e6;
      }

      .cls-21, .cls-22 {
        opacity: .68;
      }

      .cls-17 {
        fill: #4b4a4a;
      }

      .cls-23 {
        fill: url(#Degradado_sin_nombre_25);
      }

      .cls-24 {
        clip-path: url(#clippath-1);
      }

      .cls-25 {
        fill: #a07a4e;
      }

      .cls-26 {
        fill: #28394c;
      }

      .cls-27 {
        fill: #d08b54;
      }

      .cls-4 {
        stroke: url(#Degradado_sin_nombre_133-2);
      }

      .cls-4, .cls-6, .cls-7, .cls-10, .cls-11, .cls-12 {
        fill: none;
      }

      .cls-4, .cls-11 {
        stroke-width: .75px;
      }

      .cls-28, .cls-22 {
        fill: #3f4751;
      }

      .cls-5 {
        fill: #2e3846;
      }

      .cls-5, .cls-6, .cls-9, .cls-2 {
        stroke: #243044;
      }

      .cls-18 {
        fill: #343434;
      }

      .cls-7 {
        stroke: #e5ad88;
      }

      .cls-8 {
        stroke: #e5a87a;
      }

      .cls-8, .cls-29 {
        fill: #f3c4a1;
      }

      .cls-9 {
        fill: #c0cbdc;
      }

      .cls-30 {
        fill: #765742;
      }

      .cls-31 {
        fill: #f2ede5;
      }

      .cls-10 {
        stroke-width: .5px;
      }

      .cls-32 {
        fill: #9a7153;
      }

      .cls-33 {
        clip-path: url(#clippath-2);
      }

      .cls-11 {
        stroke: url(#Degradado_sin_nombre_133);
      }

      .cls-34 {
        fill: #a98151;
      }

      .cls-35 {
        fill: #3f3026;
      }

      .cls-36 {
        fill: url(#Degradado_sin_nombre_68);
      }

      .cls-37 {
        clip-path: url(#clippath);
      }

      .cls-19 {
        fill: #1d1d1e;
      }

      .cls-38 {
        fill: #cecdce;
      }

      .cls-12 {
        stroke: #5f130e;
        stroke-width: 5px;
      }

      .cls-39 {
        fill: #e5d4e9;
      }
    </style>
    <linearGradient id="Degradado_sin_nombre_133" data-name="Degradado sin nombre 133" x1="207.1" y1="155.85" x2="211.63" y2="155.85" gradientTransform="translate(254.72 -24.3) rotate(169.1) scale(1 -1)" gradientUnits="userSpaceOnUse">
      <stop offset="0" stop-color="#e3e8ec"/>
      <stop offset=".22" stop-color="#e5ded4"/>
      <stop offset=".36" stop-color="#d2d3d1"/>
      <stop offset=".47" stop-color="#f8f9f8"/>
      <stop offset=".61" stop-color="#e2e2e1"/>
      <stop offset=".72" stop-color="#f8f9f8"/>
      <stop offset=".86" stop-color="#e5e6e5"/>
      <stop offset="1" stop-color="#fdfdfd"/>
    </linearGradient>
    <linearGradient id="Degradado_sin_nombre_68" data-name="Degradado sin nombre 68" x1="127.6" y1="191.75" x2="134.23" y2="208.32" gradientUnits="userSpaceOnUse">
      <stop offset="0" stop-color="#e5ad88"/>
      <stop offset=".42" stop-color="#efbe9b"/>
      <stop offset=".83" stop-color="#f1c19d"/>
      <stop offset="1" stop-color="#f3c4a1"/>
    </linearGradient>
    <clipPath id="clippath">
      <path class="cls-36" d="M158.73,168.5s-2.61,36.66,7.61,37.9c10.21,1.23,18.62,2.27,18.62,2.27,0,0-32.19,39.17-66.73,36.17-39.8-3.46-20.83-28.16-20.83-28.16,0,0,17.81-4.67,20.81-8.98,3-4.31.52-23.18.52-23.18l40.01-16.01Z"/>
    </clipPath>
    <clipPath id="clippath-1">
      <path class="cls-2" d="M210.78,208.26s-30.14-28.37-53.19-6.21c-8.12,7.81-10.51,13.37-15.29,33.24,0,0-.15-1.56-3.88,9.54,10.23-1.35,26.02-4.73,43.04-14.09,13.34-7.33,22.96-15.87,29.31-22.49Z"/>
    </clipPath>
    <clipPath id="clippath-2">
      <path class="cls-2" d="M99.35,243.33s3.09-27.77,11.87-31.97c2.32-1.11,4.02-2,5.25-2.68,1.69-.93,2.73-2.71,2.74-4.64l.11-16.1s-9.84.62-12.74,6.2c0,0-10.42-4.96-18.53,4.96-8.11,9.93-6.37,9.31-6.37,9.31,0,0-9.27,3.72-7.53,8.07,1.74,4.34.58,8.69.58,8.69,0,0,5.16-25.77-11.91,2.97"/>
    </clipPath>
    <linearGradient id="Degradado_sin_nombre_25" data-name="Degradado sin nombre 25" x1="180.37" y1="130" x2="194.85" y2="130" gradientUnits="userSpaceOnUse">
      <stop offset="0" stop-color="#db9c66"/>
      <stop offset=".33" stop-color="#ebb57d"/>
      <stop offset="1" stop-color="#eeba81"/>
    </linearGradient>
    <linearGradient id="Degradado_sin_nombre_133-2" data-name="Degradado sin nombre 133" x1="248.45" y1="130.12" x2="252.98" y2="130.12" gradientTransform="translate(-40.63 -24.3) rotate(10.9)" xlink:href="#Degradado_sin_nombre_133"/>
  </defs>
  <g id="Daniel">
    <g>
      <path class="cls-39" d="M245.51,122.22c0,30.49-11.28,58.35-29.91,79.62-1.99,2.29-4.08,4.5-6.24,6.62-2.19,2.16-4.47,4.23-6.82,6.21-1.87,1.59-3.78,3.11-5.75,4.58-1.32.98-2.67,1.95-4.04,2.88-1.8,1.23-3.63,2.41-5.5,3.55-3.7,2.24-7.52,4.3-11.47,6.13-5.89,2.77-12.04,5.07-18.4,6.86-3.71,1.05-7.5,1.92-11.35,2.61-1.89.34-3.79.63-5.71.88-5.16.67-10.43,1.02-15.77,1.02s-10.61-.35-15.77-1.02c-4.13-.54-8.2-1.28-12.2-2.24-6.95-1.64-13.67-3.88-20.09-6.68-4.33-1.86-8.52-3.98-12.57-6.34-6.25-3.62-12.14-7.79-17.61-12.44-2.73-2.3-5.35-4.73-7.85-7.28-.03-.03-.06-.05-.07-.08l-.02-.02c-1.71-1.73-3.37-3.51-4.97-5.34h0c-3.32-3.81-6.4-7.82-9.23-12.01h-.01s-.02-.05-.03-.06c-.01-.01-.02-.03-.03-.05h0C11.15,170.35,3.59,147.17,3.59,122.22,3.59,55.42,57.75,1.26,124.55,1.26s120.96,54.16,120.96,120.96Z"/>
      <g>
        <path class="cls-25" d="M153.17,181.66s4.88,3.99,7.53,5.32c0,0-1.77-4.54-1.44-8.64,0,0,1.55,3.21,4.99,6.32,0,0-2.99-5.98.11-14.07,0,0-.33,5.21,3.77,7.87,0,0-1.55-5.76.78-11.52,0,0-.33,3.77,4.1,4.88,0,0-3.32-9.2,1.66-19.17,4.99-9.97-8.86,9.53-9.2,10.08s-32.58,21.61-32.58,21.61l-24.16,2.88-15.73-9.53s-10.53-6.54-10.08-5.87,9.09,9.97,10.86,14.18l1-2.44s1.77,2.55,2.99,5.65c0,0,.66-1.77.33-4.1s2.33,3.32,3.21,7.31c0,0,2.22-1.88,1.55-4.88s2.77,7.76,2.77,7.76c0,0,4.32-2.44,1.88-5.76s19.95,2.33,19.95,2.33l25.71-10.19Z"/>
        <path class="cls-8" d="M79.69,167.46s-8.61-4.25-12.17-13.51-2.06-13.12,2.62-13.51"/>
        <path class="cls-11" d="M77.76,164.74s-2.22,1.82-.37,6c1.5,3.38,3.29.38,3.29.38l-1.34.09s-1.92-1.15-1.07-4.7-.51-1.76-.51-1.76Z"/>
        <path class="cls-5" d="M154.05,186.1s33.68,4.88,42.99,13.3-41.66,8.86-41.66,8.86l-1.33-22.16Z"/>
        <g>
          <path class="cls-36" d="M158.73,168.5s-2.61,36.66,7.61,37.9c10.21,1.23,18.62,2.27,18.62,2.27,0,0-32.19,39.17-66.73,36.17-39.8-3.46-20.83-28.16-20.83-28.16,0,0,17.81-4.67,20.81-8.98,3-4.31.52-23.18.52-23.18l40.01-16.01Z"/>
          <g class="cls-37">
            <path class="cls-22" d="M142.73,195.22l-10.14-2.04,9.62.25,4.98-3.44-4.23,1.64-8.13-3.89s7.5,2.22,8,2.22,6.82-4.79,6.82-4.79l-5.69-2.01-7,3.05s6-4.44,6.38-4.58,8.76.04,8.76.04c0,0-.44,1.01-.15,1.71,0,0-2.24,1.25-2.78,2.41s.08-1.33-.58.42-1,1.7-.5,2.41-6.52,4.49-6.03,5.28.46,1.16,1.37,1.83"/>
            <path class="cls-22" d="M144.59,199.51l-7.95,4.41,7.78-6.51.86-.38s1.05,1.39,1.27,1.44"/>
            <path class="cls-22" d="M149.32,199.54l.34,1.62.55.43s-.02,1.25.66,1.7c1.6,1.04,2.83-.5,2.83-.5l1.11-1.72,1.88,1.66-8.77,4.18-6.67,8.4,4.49-9.68,4.19-3.12-4.71.98-6.54,7.4,4.74-7.97,6.11-2.24"/>
            <path class="cls-22" d="M114.95,190.72s7.46-3.01,7.8-2.99,6.51,2.16,6.51,2.16l-6.59-.72-8.27,4.94s10.72.56,11.13.43,5.9-3.93,5.9-3.93l-5.53,5.34-11.26.51,11.82,2.13,8.19-4.52-7.81,5.94-14.65-.47,15.18,2.35,7.26,2.69-7.56-1.57-12.4.48,14.27,2,5.99,5.27-7.26-4.35-14.06,1.27,14.24.6,6.26,6.72-7.64-5.13-12.03.56"/>
            <g class="cls-21">
              <path class="cls-28" d="M148.95,198.11c-.08-.04-.17-.07-.25-.12-.58-.38-.91-.96-1.05-1.68-.06-.28-.07-.29-.33-.26-.04,0-.07.02-.11.03.02.25.08.36.32.61-.16.06-.28.03-.37-.13-.05-.09-.09-.2-.13-.3-.07-.24-.09-.25-.34-.15.04.29.11.56.38.72-.15.06-.24.05-.32-.08-.07-.11-.12-.25-.16-.38-.08-.3-.07-.31-.36-.19.03.32.16.57.41.76-.02.02-.04.04-.05.03-.24,0-.25,0-.21.26.03.21.1.42.14.64-.17-.26-.24-.56-.29-.86-.04-.22-.07-.45-.1-.67-.01-.09-.01-.18-.13-.15-.1.02-.22.02-.21.19,0,.11.02.22.04.33.08.44.26.84.54,1.16.05.06.14.09.2.14.03.03.06.07.09.1,0,.02-.02.03-.03.05-.08-.04-.17-.07-.25-.12-.49-.33-.78-.83-.96-1.41-.02-.06-.03-.12-.05-.18-.03-.1-.08-.14-.18-.11-.48.16-.82-.06-1.07-.5-.14-.24-.3-.42-.59-.45-.09,0-.2-.12-.27-.22-.18-.28-.34-.57-.51-.86-.04-.07-.09-.14-.12-.22-.13-.28-.1-.49.11-.7.19-.18.38-.36.6-.49.15-.09.35-.12.53-.11.55.05,1.09.13,1.63.2.31.04.4.13.45.48.05.31.05.62-.04.93-.07.26-.04.37.16.52.34.25.72.39,1.12.41,1.04.07,1.95-.32,2.8-.94.51-.37,1.01-.78,1.53-1.15.57-.4,1.18-.7,1.86-.73,1.25-.05,2.28.47,3.06,1.57.04.06.07.12.09.2-.53-.38-1.05-.76-1.66-.98.03.03.05.07.08.1.68.78.99,1.7.75,2.78-.1.48-.36.87-.62,1.25-.45.66-.9,1.31-1.17,2.09-.11.31-.21.62-.3.94-.22.82-.43,1.65-1.05,2.24.29-.1.54-.26.71-.51.22-.31.4-.66.59-1,.19-.34.34-.73.57-1.03.82-1.05,2.15-1.19,3.17-.37.02.01.04.03.08.01-.08-.12-.16-.24-.25-.36-.1-.13-.2-.24-.31-.36-.1-.11-.21-.22-.32-.33-.11-.11-.22-.21-.32-.33,1.33-.19,2.37.46,3.31,1.43-.36-.87-.91-1.58-1.56-2.2.22,0,.81.37,1.21.81.34.37.64.79.96,1.19-.45-1.64-1.41-2.81-2.73-3.66.97-.08,1.85.18,2.67.75-.44-1.1-1.14-1.97-1.98-2.72.75.09,1.36.48,1.9,1.04.53.55.91,1.22,1.2,1.95.05-.52,0-1.03-.13-1.52-.13-.49-.31-.97-.47-1.46.41.26.79.6,1.09,1.03.29.43.54.89.81,1.34,0-.03.01-.09.01-.16.04-1.31-.44-2.33-1.39-3.1-.77-.62-1.63-1-2.58-1.09-.03,0-.06-.01-.1-.02.22-.22,1.47-.46,2.1-.39.73.07,1.41.3,2.07.63-1-.98-2.16-1.57-3.47-1.8.21.19.42.38.63.57,0,.02-.01.03-.02.05-1.55.12-3.05-.08-4.47-.84,1.17.13,2.34.2,3.54-.12-.12-.07-.2-.11-.28-.16-.08-.04-.16-.08-.23-.17.55-.05,1.11-.09,1.66-.14,0-.02,0-.04,0-.06-1.07-.63-2.22-.94-3.48-.89.32.26.62.49.91.72,0,.02,0,.04-.01.07-1.11-.17-2.17-.14-3.11.69.21.22.4.42.6.62,0,.02-.01.03-.02.05-.94-.3-1.89-.49-2.88-.44.24.16.48.32.72.49,0,.02,0,.03-.01.05-1.04-.11-2.09-.31-3.1.17.74.05,1.47.17,2.12.63-.94-.12-1.88-.24-2.82,0-.93.23-1.77.7-2.56,1.29.24-.54.66-.9,1.03-1.32-.3.13-.6.26-.91.39-.42.18-.84.36-1.26.54-.09.04-.18.07-.27.07-.05,0-.14-.04-.16-.09-.02-.05,0-.15.04-.19.1-.12.21-.21.31-.34-.03,0-.06.01-.09.03-.32.16-.64.32-.96.47-.05.02-.11,0-.17,0,.02-.06.02-.13.05-.18.34-.49.81-.79,1.3-1.07.76-.44,1.53-.86,2.23-1.44.31-.26.61-.53.83-.9.08-.14.1-.26,0-.41-.3-.44-.28-.66,0-1.11.13-.21.25-.44.32-.68.19-.57.48-1.06.85-1.51.02-.02.04-.03.09-.08-.06.21-.11.37-.16.54.02.02.05.04.07.06.02-.04.02-.1.05-.13.56-.74,1.16-1.43,1.91-1.92.2-.13.41-.24.62-.35.11-.06.15-.13.11-.26-.17-.56-.08-1.08.21-1.57.16-.26.33-.51.51-.75.55-.74,1.03-1.53,1.4-2.39,0-.02.02-.04.03-.07.27-.52.67-.56.96-.06.19.34.32.73.48,1.09.22.5.44.99.66,1.49.06.14.16.13.27.09.53-.16,1.07-.32,1.6-.5.32-.11.63-.24.97-.34-.56.55-1.12,1.11-1.69,1.67.03,0,.04.01.05,0,1.05-.72,2.15-1.34,3.12-2.19.53-.46,1.02-.96,1.54-1.44.19-.17.37-.35.58-.49.31-.21.55-.14.75.2.21.34.31.73.35,1.14.2,2.07-.23,3.96-1.31,5.65-.24.38-.58.69-.88,1.03-.03.03-.06.06-.09.11,1.21-.23,2.26.15,3.19,1-.34-.06-.67-.12-1.01-.18,0,.01,0,.03-.01.04,1.09.53,2.11,1.18,3,2.08,0-.03.02-.05.01-.05-.61-1.22-1.41-2.24-2.55-2.88-.67-.38-1.38-.5-2.12-.33-.03,0-.05,0-.08,0,0,0,0,0-.03-.03.06-.05.11-.1.16-.15.84-.76,1.41-1.71,1.67-2.88.04-.2.13-.29.31-.31.6-.05,1.19,0,1.76.18.03.01.06.02.09.04,0,0,.01.02.04.05-.79.05-1.51.27-2.19.78,1.15.28,2.16.83,3.05,1.61.52.46,1,.96,1.49,1.47-1.01-.6-2.06-1.05-3.21-1.16.03.02.06.05.09.07,1.38.88,2.38,2.17,3.12,3.72.57,1.18.98,2.42,1.25,3.72,0,.02,0,.05,0,.08-.57-1.08-1.3-1.98-2.28-2.63,1.51,2.5,1.97,5.31,2.02,8.27-.23-.44-.43-.87-.67-1.26-.24-.39-.52-.74-.82-1.09.13,1.35.15,2.68-.09,4.01-.24,1.33-.72,2.55-1.45,3.65.12-.83.18-1.66.09-2.5-.1-.84-.34-1.63-.76-2.35.2,1.45-.28,2.64-1.09,3.72.06-.64.15-1.27-.05-1.9-.02.02-.03.02-.03.03.09.92-.29,1.64-.83,2.27-.31.37-.69.68-1.05.99-1.12.96-2.08,2.1-2.87,3.41-.03.05-.06.09-.08.14,0,0-.02.01-.05.05.05-.96.05-1.89-.14-2.81-.19-.92-.52-1.77-1.03-2.54.03.64-.08,1.25-.32,1.82-.24.57-.55,1.08-1,1.52,0-.07-.02-.12-.02-.16.08-1.65-.58-2.92-1.66-3.96-.27-.26-.58-.47-.88-.69-.19-.14-.22-.13-.35.08-.22.35-.44.71-.64,1.08-.28.51-.61.95-1.11,1.21-.71.37-1.57.23-2.13-.35-.29-.3-.46-.64-.3-1.1.02-.04-.05-.15-.1-.19-.54-.44-.72-1.06-.69-1.79.02.04.05.08.07.12.25.46.62.71,1.08.82.06.01.15-.04.2-.09.06-.07.11-.16.14-.25.02-.05,0-.13-.02-.18-.16-.32-.2-.51-.16-.87.11.23.23.47.34.7h.06c.03-.07.07-.13.1-.19.22-.5.34-1.03.4-1.57.07-.69.14-1.38.19-2.07.01-.19-.02-.38-.06-.56-.2-.86-1.03-1.17-1.7-.7-.44.31-.93.55-1.4.8-.16.08-.23.17-.23.37,0,.72.1,1.41.35,2.1ZM161.21,183.86c-.24.04-.45.08-.65.11.54-.36,1.08-.7,1.59-1.16-.4.08-.77.15-1.13.23,0-.02-.01-.04-.02-.06.57-.53,1.07-1.12,1.48-1.83-.42.23-.83.45-1.27.69.4-.45.78-.85,1.13-1.28.35-.43.61-.93.8-1.47-.02,0-.04.01-.05.03-.69.97-1.56,1.68-2.49,2.34-.33.23-.65.47-.96.73-.3.26-.41.62-.34,1.04,0,.05.01.11.01.15-.3,0-.6-.04-.88.01-.29.05-.56.19-.84.29.36.09.7.12,1.04.19.34.07.67.17,1.01.4-.32.08-.59.15-.86.22.79.15,1.84-.12,2.42-.62ZM159.72,188.15s-.01.03-.02.05c1.61.89,3.14,1.93,4.49,3.26-.71-1.51-1.73-2.72-2.94-3.74,0-.01.02-.02.03-.04.39.11.77.22,1.16.32-.09-.11-.19-.19-.3-.26-1.19-.68-2.46-1.16-3.77-1.46-.17-.04-.34-.04-.51-.06,0,.02,0,.03,0,.05.23.12.47.24.7.37.23.13.47.26.7.39.22.13.45.27.67.42.22.15.45.3.66.46.21.15.41.32.62.49,0,.01-.02.02-.02.04-.49-.09-.97-.19-1.46-.28ZM162.48,201.66c.86-.66,1.64-1.41,2.14-2.46.25-.52.36-1.08.32-1.67-.09-1.37-.53-2.57-1.38-3.57-.1-.11-.18-.23-.28-.35l-.05.05c.38.53.68,1.11.86,1.77.18.66.25,1.33.19,2.02-.06.65-.36,1.66-.6,1.88-.04-.38-.05-.75-.19-1.1-.12,1.23-.53,2.34-1.02,3.44ZM153.4,195.96s-.07.06-.11.12c-.26.31-.44.68-.57,1.08-.22.68-.42,1.37-.64,2.05-.12.37-.13.37.12.63.14.15.19.15.29-.05.14-.29.27-.59.41-.89.31-.69.61-1.38.93-2.06.15-.31.35-.57.64-.74.18-.1.21-.07.24.14.02.16.06.32.09.48.03,0,.05,0,.08,0,.08-.25.17-.49.22-.75.04-.19-.04-.27-.21-.3-.24-.03-.46.03-.67.17-.28.19-.52.43-.66.76-.33.74-.63,1.49-.94,2.24-.03.07-.06.14-.08.2-.02,0-.04-.02-.06-.02.31-1.03.63-2.07.94-3.07ZM151.18,189.36s.01.01.02.02c.07-.07.14-.14.2-.22.17-.23.34-.47.51-.71.26-.37.59-.55,1.02-.52.87.05,1.74-.03,2.59-.25.26-.07.52-.15.78-.23-.02-.05-.04-.05-.06-.05-.56.01-1.13.04-1.69.03-.54,0-1.08-.07-1.63-.07-.51,0-.93.25-1.19.75-.21.41-.38.84-.56,1.26ZM164.99,190.18c1.13.87,2.06,1.95,2.76,3.28.01-.03.02-.05.01-.07-.27-1.46-.88-2.72-1.76-3.83-.09-.12-.21-.2-.31-.3,0,.01-.02.02-.03.03.38.51.74,1.03.97,1.65-.49-.4-1.03-.68-1.64-.76ZM153.8,185.23s-.1.04-.15.07c-.56.37-1.13.72-1.66,1.12-.54.41-1.02.9-1.41,1.5-.17.26-.13.47.11.64.1.07.19.07.26-.03.1-.14.21-.27.29-.43.35-.64.84-1.07,1.48-1.3.07-.02.13-.06.19-.09,0-.01,0-.02-.01-.03-.21.04-.43.09-.68.14.45-.66,1-1.13,1.57-1.59ZM166.4,195.26c-.23-.27-.43-.53-.65-.76-.23-.23-.48-.42-.73-.63-.01.02-.03.03-.04.05.91,1.13,1.62,2.39,2.18,3.77.02-.14.03-.27.02-.4-.06-.88-.27-1.72-.57-2.53-.15-.41-.37-.79-.56-1.19-.02-.04-.06-.06-.08-.09.23.57.39,1.15.43,1.78ZM161.79,184.33c.72-.52,1.28-1.2,1.61-2.09.34-.91.36-2.16.14-2.76.03,1.32-.42,2.42-1.11,3.42.01,0,.02.02.03.03.11-.08.23-.17.34-.25-.25.63-.62,1.15-1.01,1.65ZM151.34,189.76s0,.03,0,.04c.02,0,.05.02.07.02.33.03.65.06.98.09.31.03.59-.04.82-.27.12-.12.22-.28.3-.44.22-.47.56-.73,1.04-.77.16-.02.33-.05.52-.08-.04-.03-.06-.04-.07-.05-.61-.09-1.19,0-1.73.35-.05.03-.1.09-.12.15-.07.29-.27.4-.5.48-.44.15-.87.32-1.3.49ZM156.29,182.23s0-.03-.01-.04c.27-.2.54-.4.82-.61-.07,0-.12,0-.18.02-.43.21-.87.4-1.29.63-.72.4-1.41.86-2.03,1.43-.09.08-.16.18-.25.27,1.13-.8,2.36-1.33,3.62-1.78-.23.02-.46.04-.68.06ZM146.5,191.74c.63-.27,1.26-.54,1.89-.82.44-.19.86-.4,1.22-.73.14-.12.26-.27.39-.4,0-.01-.02-.03-.03-.04-.48.38-1.04.58-1.59.82-.41.18-.82.37-1.22.58-.27.14-.5.35-.68.59ZM151.73,200.03c-.08.15-.14.27-.2.39-.18.33-.44.54-.78.65-.1.03-.19.06-.19-.12,0-.05-.06-.1-.11-.14-.16-.13-.32-.24-.47-.37-.09-.08-.16-.19-.24-.28-.02.01-.03.03-.05.04.13.21.25.44.4.64.14.2.32.34.55.37.44.06.83-.11,1.21-.31.03-.02.06-.09.05-.13-.05-.24-.12-.47-.18-.74ZM148.81,197.96s.03-.03.04-.04c-.27-.58-.4-1.21-.41-1.86,0-.04-.03-.1-.06-.11-.14-.05-.37.17-.35.33.05.5.22.95.5,1.34.09.12.19.23.28.34ZM150.27,187.15c-.33.34-.55.76-.69,1.22-.15.48-.42.86-.81,1.13-.08.06-.16.13-.24.19l.03.06c.31-.19.62-.37.92-.58.19-.13.29-.33.31-.58.05-.42.16-.83.35-1.2.04-.08.08-.16.12-.24ZM151.85,199.69c.06.53.21,1.03.57,1.48.08-.2.15-.35.2-.51.01-.05-.02-.13-.05-.18-.23-.27-.47-.53-.71-.79ZM149.42,187.06s-.04-.02-.05-.04c-.17.3-.35.59-.52.89-.03.05-.03.16,0,.21.1.15.21.29.32.43.09-.52.17-1,.25-1.49ZM151.96,188.8c-.04.06-.1.14-.09.15.06.08.13.19.21.22.37.11.76-.33.66-.74-.04-.16-.15-.14-.26-.13-.11.02-.14.1-.1.22.03.07.05.15.07.23.04.12.04.24-.07.31-.11.07-.22.02-.3-.07-.04-.05-.07-.1-.13-.18ZM153.54,198.7c.18-.4.36-.79.54-1.18-.01-.01-.03-.02-.04-.03-.21.3-.42.59-.61.89-.11.18-.09.23.11.32ZM151.95,201.89s.02-.03.03-.05c-.06-.17-.12-.35-.19-.52-.02-.04-.1-.08-.14-.06-.04.01-.08.11-.07.15.04.13.09.26.16.37.04.06.14.08.21.11ZM151.65,201.87c-.06-.16-.12-.32-.19-.47-.02-.03-.08-.05-.12-.05-.03,0-.07.04-.08.07-.04.2.19.47.38.45ZM151.34,201.86c-.07-.17-.12-.3-.19-.42-.02-.03-.1-.03-.16-.03-.01,0-.04.1-.02.14.06.15.15.28.37.31Z"/>
              <path class="cls-28" d="M146.67,194.41c.54-.11.96-.43,1.4-.72.45-.29.93-.45,1.46-.44.04,0,.07,0,.11.04-.03.01-.06.03-.1.03-.55.06-1.05.28-1.5.64-.37.3-.78.49-1.25.49-.02,0-.04,0-.07,0,0,0-.02-.01-.06-.05Z"/>
              <path class="cls-28" d="M149.44,193.98c-.46.25-.91.51-1.37.74-.23.12-.48.19-.75.13.56-.26,1.1-.52,1.65-.77.15-.07.32-.07.47-.11Z"/>
              <path class="cls-28" d="M146.8,193.88c.26-.25.53-.5.79-.74-.19.35-.47.58-.79.74Z"/>
            </g>
          </g>
        </g>
        <path class="cls-3" d="M99.17,242.48c4.18-1.95,8.53-1.72,12.83-.13,1.42.52,2.48,1.73,3.06,3.11,3.16.81,8.49-.76,11.72-.2.78-1.29,0,0,1.89-.21.43-.05.86-.09,1.3-.14.56-.63,1.25-1.16,2.06-1.48,8.26-3.32,18.51-5.33,27.48-3.24,1.45-.45,2.9-.83,4.29-1.17.54-.13,1.1-.26,1.66-.39-3.43-20.68-6.04-34.68-6.04-34.68,0,0-9.32,11.02-19.67,11.91-18.29,1.58-23.88-5.59-23.88-5.59l-24.6,8.31-5.07,21.27c4.29,1.07,8.63,2.13,12.98,2.63Z"/>
        <path class="cls-38" d="M107.11,216.47c-.55,7.83-1.43,15.62-2.65,23.37.55-7.83,1.43-15.62,2.65-23.37h0Z"/>
        <path class="cls-38" d="M101.46,220.6c-.44,6.84-1.2,13.64-2.31,20.41.43-6.84,1.21-13.64,2.31-20.41h0Z"/>
        <path class="cls-38" d="M96.58,220.37c-.44,6.84-1.2,13.64-2.31,20.41.43-6.84,1.21-13.64,2.31-20.41h0Z"/>
        <path class="cls-38" d="M112.2,215.59c-.6,8.27-1.53,16.5-2.8,24.69.6-8.27,1.53-16.5,2.8-24.69h0Z"/>
        <path class="cls-38" d="M116.3,220.03c-.5,7.44-1.34,14.84-2.51,22.21.5-7.44,1.34-14.84,2.51-22.21h0Z"/>
        <path class="cls-38" d="M121.07,219.58c-.6,8.18-1.61,17.15-2.86,25.25.59-8.18,1.61-17.15,2.86-25.25h0Z"/>
        <path class="cls-38" d="M125.72,220.46c-.59,8.16-1.6,17.1-2.85,25.19.59-8.16,1.6-17.1,2.85-25.19h0Z"/>
        <path class="cls-38" d="M131.26,218.91c-.65,8.16-1.73,17.1-3.03,25.18.65-8.16,1.73-17.1,3.03-25.18h0Z"/>
        <path class="cls-38" d="M137.47,219.8c-.54,7.29-1.41,14.54-2.61,21.75.53-7.29,1.41-14.54,2.61-21.75h0Z"/>
        <path class="cls-38" d="M142.57,219.8c-.46,6.65-1.25,13.27-2.38,19.84.46-6.65,1.26-13.27,2.38-19.84h0Z"/>
        <path class="cls-10" d="M101.61,194.79c1.33,2.22,2.7,27.5,32.82,27.02,35.41-.56,43.88-18.79,41.2-19.04"/>
        <g>
          <path class="cls-1" d="M210.78,208.26s-30.14-28.37-53.19-6.21c-8.12,7.81-10.51,13.37-15.29,33.24,0,0-.15-1.56-3.88,9.54,10.23-1.35,26.02-4.73,43.04-14.09,13.34-7.33,22.96-15.87,29.31-22.49Z"/>
          <g class="cls-24">
            <path class="cls-26" d="M157.89,239.87c9.65-3.31,20.05-6.48,29.04-8.36,2.89-3.04,6.06-5.9,9.44-8.45.08-.36.19-.73.35-1.09.47-1.07,1.05-2.13,1.71-3.15-5.96.44-13.93,2-25.31,4.51-21.52,4.75-33.85,13.32-40.52,19.88,7.66-2.99,16.94-4.82,25.3-3.34Z"/>
          </g>
          <path class="cls-6" d="M210.78,208.26s-30.14-28.37-53.19-6.21c-8.12,7.81-10.51,13.37-15.29,33.24,0,0-.15-1.56-3.88,9.54,10.23-1.35,26.02-4.73,43.04-14.09,13.34-7.33,22.96-15.87,29.31-22.49Z"/>
        </g>
        <g>
          <path class="cls-1" d="M99.35,243.33s3.09-27.77,11.87-31.97c2.32-1.11,4.02-2,5.25-2.68,1.69-.93,2.73-2.71,2.74-4.64l.11-16.1s-9.84.62-12.74,6.2c0,0-10.42-4.96-18.53,4.96-8.11,9.93-6.37,9.31-6.37,9.31,0,0-9.27,3.72-7.53,8.07,1.74,4.34.58,8.69.58,8.69,0,0,5.16-25.77-11.91,2.97"/>
          <g class="cls-33">
            <path class="cls-26" d="M65.16,220.34c7.65-1.28,22.88,11.9,31.31,19.4,1.41.26,2.81.49,4.22.65,1.67-.78,3.37-1.2,5.08-1.33-20.53-29.69-50.71-17.03-40.62-18.71Z"/>
          </g>
          <path class="cls-6" d="M99.35,243.33s3.09-27.77,11.87-31.97c2.32-1.11,4.02-2,5.25-2.68,1.69-.93,2.73-2.71,2.74-4.64l.11-16.1s-9.84.62-12.74,6.2c0,0-10.42-4.96-18.53,4.96-8.11,9.93-6.37,9.31-6.37,9.31,0,0-9.27,3.72-7.53,8.07,1.74,4.34.58,8.69.58,8.69,0,0,5.16-25.77-11.91,2.97"/>
        </g>
        <path class="cls-2" d="M99.35,237.08c-10.86-3.59-21.39-8.92-24.61-11.92"/>
        <path class="cls-6" d="M192.34,224.75c-16.95,3.15-33.69,7.59-50.35,11.98"/>
        <g>
          <path class="cls-29" d="M66.27,72.96c-5.17,9.95-7.99,34.99-1.5,53.52,6.49,18.53,12.48,28.82,13.98,37.57,1.5,8.75,4.49,15.95,27.46,25.22,22.97,9.26,27.96,4.63,44.44-8.23,16.48-12.87,20.97-20.58,24.47-30.36,0,0,8.49,5.66,15.48-7.2,6.99-12.87,5.63-28.6-1-30.88-8.99-3.09-10.99,5.15-10.99,5.15l-2,1.03s11.97-77.01-61.92-78.74c-21.97-.51-40.14,16.97-48.43,32.94Z"/>
          <path class="cls-7" d="M66.27,72.96c-5.17,9.95-7.99,34.99-1.5,53.52,6.49,18.53,12.48,28.82,13.98,37.57,1.5,8.75,4.49,15.95,27.46,25.22,22.97,9.26,27.96,4.63,44.44-8.23,16.48-12.87,20.97-20.58,24.47-30.36,0,0,8.49,5.66,15.48-7.2,6.99-12.87,5.63-28.6-1-30.88-8.99-3.09-10.99,5.15-10.99,5.15l-2,1.03s11.97-77.01-61.92-78.74c-21.97-.51-40.14,16.97-48.43,32.94Z"/>
        </g>
        <path class="cls-27" d="M192.1,124.94c-.06-2.08-.6-4.48-2.36-5.76-1.75-1.24-4.28-.94-5.68.72-2.86,3.21-3.98,7.67-4.96,11.77,0,0-.28-.28-.28-.28,1.17-.18,2.52.16,3.14,1.25,1.56,2.96-2.41,6.57-4.25,8.6,0,0-.07-.23-.07-.23,2.1.38,4.36.99,6.46.39-.5.22-1.06.28-1.61.31-1.73.07-3.46-.16-5.15-.49,1.63-1.83,5.66-5.78,4.22-8.36-.57-1.01-1.93-1.2-3.01-.96.95-4.35,2.14-8.91,5.19-12.31,1.51-1.72,4.29-2.03,6.14-.64,1.8,1.39,2.22,3.84,2.2,5.98h0Z"/>
        <path class="cls-23" d="M184.11,141.41c-1.68.92-6.49-.26-6.49-.26,0,0,4.99-4.89,4.49-7.46s-3.25-2.06-3.25-2.06c0,0,2.5-13.12,7.99-13.38,5.49-.26,5.24,6.69,5.24,6.69-1,8.49-3.74,14.15-7.99,16.47Z"/>
        <path class="cls-27" d="M182.12,127.77c6.14-.56,7.25,3.65,5.45,8.69-.5,1.35-1.19,2.65-2.2,3.66.85-1.14,1.43-2.45,1.84-3.78,1.47-4.97.8-8.41-5.08-8.57h0Z"/>
        <path class="cls-9" d="M150.45,239.37c.55-6.12.56-10.12-.39-10.28-1.73-.29-3.14,4.03-4.34,10.67,1.57-.21,3.15-.34,4.72-.39Z"/>
        <path class="cls-9" d="M93.32,241.52c1.88-8.61,2.83-14.66,1.68-14.98-2-.55-4.22,5.33-6.47,13.89,1.59.39,3.18.76,4.78,1.09Z"/>
        <path class="cls-31" d="M128.99,126.45s-.64-5.87,9.21-9.28c9.85-3.41,21.68-2.05,21.68-2.05,0,0,.05,11.8-9.8,15.21-9.85,3.41-14.76,1.1-18.07-1s-3.01-2.88-3.01-2.88Z"/>
        <ellipse class="cls-30" cx="146.19" cy="122.55" rx="8.58" ry="9.02" transform="translate(9.64 255.76) rotate(-84.26)"/>
        <circle cx="146.92" cy="122.36" r="4.12"/>
        <circle class="cls-31" cx="150.69" cy="118.95" r="1.75"/>
        <path class="cls-35" d="M128.99,126.45s1.31-6.03,12.41-9.67c11.1-3.64,18.04-.83,18.04-.83,0,0,.43,2.68-.47,4.71,0,0,.73-2.04,1.48-4.25s1.36-3.03,1.36-3.03c0,0-4.98-2.77-17.11.39-17.02,4.44-15.71,12.68-15.71,12.68Z"/>
        <path class="cls-32" d="M127.97,117.38s1.94-7.02,12.74-9.46c10.81-2.43,19.17.17,19.17.17,0,0-9.25-2.51-19.07.55-9.81,3.06-12.85,8.74-12.85,8.74Z"/>
        <path class="cls-31" d="M103.33,133.03s1.76,7.04-7.86,9.95c-9.62,2.91-14.81.27-19.08-6.32,0,0,5.25-6.69,12.17-7.23,6.92-.54,14.78,3.6,14.78,3.6Z"/>
        <ellipse class="cls-30" cx="93.97" cy="135.97" rx="7.36" ry="8.14" transform="translate(-50.71 215.88) rotate(-84.26)"/>
        <ellipse cx="94.69" cy="134.98" rx="3.85" ry="4.2" transform="translate(-49.08 215.7) rotate(-84.26)"/>
        <ellipse class="cls-31" cx="98.25" cy="132.79" rx="1.31" ry="1.4" transform="translate(-43.69 217.27) rotate(-84.26)"/>
        <path class="cls-35" d="M103.33,133.03s-3.13-7.14-16.03-5.13c-8.94,1.39-13.74,8.83-13.74,8.83,0,0,3.61.89,4.67,2.58l-1.25-3.29s3.52-3.52,9.15-5.24c5.63-1.72,11.5-2.36,17.2,2.26Z"/>
        <path class="cls-32" d="M98.23,126.01s-3.28-2.44-11.03-2.34c-7.76.1-11.96,6.9-11.96,6.9,0,0,4.32-6.25,11.87-6.02,9.48.29,11.12,1.47,11.12,1.47Z"/>
        <path class="cls-32" d="M113.24,103.18s.68,3.78,4.88,5.1c4.2,1.32,23.87-10.34,23.87-10.34l-.66-8.13s-19.84,10.94-21.77,11.37-1.07,3.33-1.07,3.33c0,0-2.45-.74-2.97-2.48,0,0-.13,1.98,1.1,2.91,0,0-1.05.77-3.38-1.76Z"/>
        <path class="cls-32" d="M143.38,89.35l.32,7.72s3.68-2.5,6.66-2.92c2.98-.42,12.09-.14,12.09-.14,0,0-8.32-5.21-14.11-5.24-3.74-.02-4.96.57-4.96.57Z"/>
        <path class="cls-32" d="M92.83,118.42c3.39-.3,3.93,0,2.89-4.23-.75-3.05-6.25-2.61-10.82-2.64-4.57-.04-12.79-.58-14.85.63-2.06,1.21-3.99,8.22-3.54,10.67,0,0,1.77-3.64,6.29-4.74,4.51-1.1,16.31.65,20.03.32Z"/>
        <path class="cls-32" d="M138.68,159.6c.92.61-.79,2.14-2.82,3.37s-10.41,2.99-13.17,3.69-8.07,3.77-10.49,3.64-1.69-1.66,0-1.32c1.69.35,7.01-1.87,9.94-3.2,2.93-1.33,8.07-1.59,12.2-2.99s3.01-3.7,4.54-3.22"/>
        <path class="cls-13" d="M111.74,135.58s.16,4.38-1.09,8.71c-1.26,4.33-3.2,5.99-1.39,7.82s5.42,3.24,7.91,3.02c0,0-5.63-.39-6.85-3.45s2.74-8.23,1.42-16.11Z"/>
        <path class="cls-13" d="M119.65,152.8c.83.57,5.02-.1,4.89-.68s-4.89.68-4.89.68Z"/>
        <path class="cls-4" d="M181.8,147.29s2.22,1.82.37,6c-1.5,3.38-3.29.38-3.29.38l1.34.09s1.92-1.15,1.07-4.7.51-1.76.51-1.76Z"/>
        <path class="cls-32" d="M121.86,171.47s4.16-2.33,7.81-2.16c0,0-4.49-1-7.81,2.16Z"/>
        <path class="cls-35" d="M139.65,132.34s10.8-1,17.12-5.48c0,0-4.16,5.15-17.12,5.48Z"/>
        <path class="cls-35" d="M90.62,144.04s7.12-1.22,9.64-3.02c0,0-1.66,2.91-9.64,3.02Z"/>
        <path class="cls-25" d="M179.09,119.17l-4.43,1.99s.44-16.18-2.44-23.71c-2.88-7.53-8.42-10.64-8.64-11.3s-4.65-13.52-4.65-13.52c0,0-29.7-11.08-54.29-4.65-24.6,6.43-42.77,42.55-42.77,42.55l10.19,32.8s-3.1,3.32-9.97-17.95c-6.87-21.27-.89-50.31,9.09-63.6,9.97-13.3,34.61-26.82,76.68-17.29,33.24,7.53,40.33,20.61,41,40.33.65,19.35.56,27.1.56,27.1,0,0-10.09-3.39-10.31,7.25Z"/>
        <path class="cls-34" d="M192.09,93.57s1.68-16.29-4.47-24.21c0,0,4.22-.09,6.59,1.92,0,0-1.83-10.89-13.7-13.95,0,0,3.11-6.38-1.73-13.77l-.93,7.42s-5.45-8.85-5.28-13.65,1.82-7.63,1.82-7.63c0,0-8.16,5-5.99,12.78,0,0-1.73-13.77-21.05-19.26,0,0,5.88,9.35,6.87,12.75,0,0-12.41-12.7-27.31-11.54-14.9,1.16-17.23-8.06-17.23-8.06,0,0,2.25,11.62,9.64,15.97,0,0-20.25-10.57-40.79-.47,0,0,8.19.29,14.29,3.39,0,0-13.72,1.9-27.06,6.5-6.96,2.4-13.47-1.68-13.47-1.68,0,0,.08,10.34,15.16,10.15,0,0-12.77,3.64-18.4,12.34-5.63,8.7-12.15,4.86-12.15,4.86,0,0,6.39,7.44,14.5,3.88,0,0-10.23,13.35-17.65,16.45,0,0,4.03,5.19,10.74,3.5,0,0-5.05,11.13-3.74,18.15,1.3,7.02-3.66,9.49-3.66,9.49,0,0,8.18.77,11.17-8.5,0,0,0,6.49,1.95,13.78,1.96,7.28.54,9.88.54,9.88,0,0,6.41-5.79,5.48-10.87,0,0,4.34,2.8,4.29,4.24s.74-8.39.74-8.39c0,0,2.54-21.8,3.61-27.05,1.07-5.25-4.16,11.16,2.36,21.25,0,0,1.63-8.6,5.55-12.79,3.92-4.19,6.42-12.28,6.42-12.28,0,0-.75,14.88-1.5,17.5,0,0,8.35-10.53,12.36-17.12,4-6.59,4.08-8.75,4.08-8.75,0,0-3.78,12.85-2.44,18.91,0,0,3.89-3.47,11.31-12.59,7.42-9.12,11.18-15.24,11.18-15.24,0,0-6.54,15.64-8.44,19.18,0,0,12.29-8.95,15.32-13.17,3.03-4.22,3.96-5.39,3.96-5.39,0,0-1.32,5.97-4.55,9.46,0,0,6.15-4.59,9.04-11.23,0,0,.1,3.37-.62,5.03s7.92-4.53,7.92-4.53c0,0,2.81,2.02,2.95,4.43,0,0,.71-1.18.36-3.84l5.48,1.88-2.25.88s4.39,1.36,7.36-1.18c0,0-1.3,5.49-1.01,9.82,0,0,3.06-4.94,5.28-5.1,0,0,2.17,7.53,1.61,10.88,0,0,3.59-1.08,4.38-4.66,0,0,3.86,3.74,3.05,7.8,0,0,2.4-5.21,2.56-9.77.16-4.56-.2-.73-.2-.73,0,0,5.61,4.53,4.47,11.46,0,0,4.63-5.61,3.46-9.98,0,0,3.77,6.39,3.67,9.27,0,0,1.67-3.31,1.99-6.18,0,0,3,2.99,3.35,5.65,0,0,2.09-2.81,2.16-4.73,0,0,6.18.94,6.61,7.45Z"/>
        <path class="cls-25" d="M173.11,52.02c-1.02-3.41-1.51-6.71-2.22-10.19,2,2.95,2.58,6.7,2.22,10.19h0Z"/>
        <path class="cls-25" d="M173.11,54.24c.7,2.59.39,6.13-1.99,7.76,1.23-2.53,1.26-5.07,1.99-7.76h0Z"/>
        <path class="cls-25" d="M174.22,53.35c4.19.97,8.25,2.9,11.3,5.98-3.86-1.95-7.61-3.73-11.3-5.98h0Z"/>
        <path class="cls-25" d="M170.67,51.13c-2.06-3.76-2.87-8.04-5.32-11.52,1.94,1.09,2.82,3.35,3.69,5.28.78,2.01,1.4,4.08,1.63,6.25h0Z"/>
        <path class="cls-25" d="M169.34,54.46c-3.03.31-6.31-.59-8.86,1.33,1.39-3.04,6.34-2.48,8.86-1.33h0Z"/>
        <path class="cls-25" d="M142.08,44.71c-3.56-3.82-8.06-8.77-11.89-12.24,7.55,1.76,14.79,5.33,20.27,10.86.74.69,1.37,1.5,2.03,2.26-2.92-2.79-6.14-5.21-9.68-7.13-3.48-1.93-7.21-3.55-11.04-4.59,0,0,.44-.81.44-.81,3.63,3.6,6.84,7.55,9.87,11.65h0Z"/>
        <path class="cls-25" d="M100.42,61.77c-1.97,4.68-4.49,8.97-6.21,13.74.36-5.1,3.07-9.81,6.21-13.74h0Z"/>
        <path class="cls-25" d="M88.79,43.49c-7.17,1.74-13.83,5.19-20,9.16,0,0-.13-.88-.13-.88,4,1.18,9.57,2.93,13.59,3.8-5.07-.37-10.01-1.71-14.88-3.15,6.43-4.35,13.66-7.92,21.41-8.93h0Z"/>
        <path class="cls-25" d="M108.4,56.23c-2.42,3.03-6.3,5.08-10.25,4.7-3.76-.69-7.49-1.54-11.35-1.57-2.97-.12-5.98-.13-8.94.05,0,0,.99-.85.99-.85,3.53-3.06,7.28-5.83,11.27-8.25,3.96-2.33,8.28-4.66,12.97-4.82-6.93.89-12.79,5.34-18.28,9.37-1.83,1.4-3.64,2.86-5.36,4.38l-.33-.79c2.58-.15,5.15-.2,7.73-.06,3.86.11,7.65.91,11.39,1.81,3.79.52,7.51-1.28,10.17-3.96h0Z"/>
        <path class="cls-25" d="M75.6,58c-5.19,3.34-10.88,6.47-17.06,7.31,5.73-2.15,11.3-5.22,17.06-7.31h0Z"/>
        <path class="cls-25" d="M70.95,64.65c-7.81,4.08-13.55,11.34-15.94,19.78-1.48,4.17-3.31,8.32-6.18,11.74-.61.69-1.19,1.33-2.05,1.88l-.33-.79c5.86-1.94,11.56-5.45,14.75-10.89-.7,1.41-1.55,2.77-2.6,3.97-3.81,4.44-9.31,7.12-14.87,8.71,0,0,2.63-1.75,2.63-1.75,5.39-4.54,6.93-11.92,9.66-18.13,3-6.43,8.43-11.69,14.93-14.51h0Z"/>
        <path class="cls-25" d="M65.41,97.23c-.61-6.03-.21-12.71,3.1-17.95-1.99,5.69-2.34,12-3.1,17.95h0Z"/>
        <path class="cls-25" d="M87.79,71.97c-4.69,1.77-9.81,3.16-14.2,5.58-1.77-4.13,1.8-9.45,4.23-12.67-1.75,3.53-4.41,7.69-3.55,11.73,0,0-.69-.19-.69-.19,4.43-2.34,9.34-3.49,14.21-4.45h0Z"/>
        <path class="cls-25" d="M131.89,54.46c-2.68,3.89-5.69,7.6-9.23,10.76-1.37,1.17-2.95,2.34-4.87,2.78.65-5.34,2.09-10.81,5.46-15.09-2.59,4.38-3.75,9.47-4.39,14.45,0,0-.61-.53-.61-.53,2.76-1.01,5.05-3.5,7.2-5.53,2.22-2.2,4.32-4.52,6.44-6.85h0Z"/>
        <path class="cls-25" d="M139.65,41.83c-5.1,1.3-10.32,2.27-15.5,3.16-5.04.95-9.92,3.68-13.07,7.73,0,0-.35-.67-.35-.67,10.02-.7,20.25-3.29,30.3-1.53,1.63.33,3.34.85,4.77,2.03-4.1,2.01-8.39,4.82-10.31,9.12,0,0-.27-.41-.27-.41,5.28-.15,10.91-.63,15.51-3.47-2.19,1.6-4.83,2.46-7.45,3.07-2.79.63-5.63.95-8.5,1.01,1.72-4.55,5.84-7.59,10.01-9.78,0,0-.11.71-.11.71-.44-.34-1.15-.64-1.78-.86-4.79-1.47-9.92-1.16-14.86-.74-5.12.51-12.21,1.28-17.3,1.72,0,0-.93.08-.93.08,0,0,.58-.75.58-.75,3.36-4.27,8.38-6.93,13.65-7.89,4.62-.67,11.1-1.66,15.62-2.51h0Z"/>
        <ellipse class="cls-9" cx="149.77" cy="231.21" rx="2.55" ry="2.77"/>
        <ellipse class="cls-9" cx="94.59" cy="228.11" rx="2.55" ry="2.77"/>
        <path class="cls-20" d="M122.4,148.22c1.06-.31,2.39.41,2.49,1.63.02.81-.2,1.75-.96,2.18-.26.12-.55.16-.8.07.51-.15.74-.52.86-.92.12-.4.16-.87.14-1.28-.08-.84-.93-1.41-1.74-1.68h0Z"/>
        <g>
          <polygon class="cls-16" points="171.02 138.63 171.01 138.61 171.03 138.61 171.02 138.63"/>
          <path class="cls-17" d="M172.91,126.85l.02-.02s0,.02-.01.02c0,0,0,0,0,0Z"/>
          <path class="cls-19" d="M172.15,129.66s0,.01,0,.02c0,0,0-.01,0-.02h0Z"/>
          <path class="cls-17" d="M169.27,129.08s0,.01,0,.02c0,0-.01,0-.02,0,0,0,0-.01,0-.02,0,0,0,0,.01,0Z"/>
          <path class="cls-18" d="M169.49,129.38s.01-.01.02-.02c0,0,0,.02-.01.02,0,0,0,0,0,0Z"/>
          <path class="cls-15" d="M170.61,132.33s0,0,.01,0c0,0,0,.01,0,.02,0,0-.01,0-.02,0,0,0,0,0,0-.01Z"/>
          <polygon class="cls-14" points="165.93 194.86 165.92 194.83 165.94 194.84 165.93 194.86"/>
          <path class="cls-18" d="M169.54,131.92s-.01-.01-.02-.02c0,0,.01,0,.02.01,0,0,0,0,0,0Z"/>
          <path class="cls-17" d="M169.22,134.92s.01.02.02.03c0,0,0,0-.01.01,0-.01-.01-.02-.02-.03,0,0,0,0,.01-.01Z"/>
          <path class="cls-16" d="M166.05,137.24s-.01,0-.02,0c0,0,0,0,0-.01,0,0,.01.01.02.02,0,0,0,0,0,0Z"/>
          <path class="cls-15" d="M165.93,137.45s.01-.01.02-.02c0,0,0,.02-.01.03,0,0,0,0,0,0Z"/>
          <path class="cls-18" d="M167.07,137.27s-.01-.01-.02-.02c0,0,.01,0,.02.01,0,0,0,0,0,0Z"/>
          <path class="cls-18" d="M171.81,129.48s.01-.02.02-.02c0,0,0,.02-.01.03,0,0,0,0,0,0Z"/>
          <path class="cls-15" d="M170.03,135.1s.01.02.02.03c0,0,0,0-.01.01,0-.01-.01-.02-.02-.03,0,0,0,0,.01-.01Z"/>
          <path class="cls-17" d="M169.74,134.67s0,.01,0,.02c0,0,0-.01,0-.02h0Z"/>
          <path class="cls-17" d="M167.07,132.6s-.01,0-.02-.01c0,0,.01,0,.02,0,0,0,0,0,0,0Z"/>
          <path class="cls-18" d="M169.71,140.89s-.01-.02-.02-.03c0,0,.02,0,.03.01h0Z"/>
          <path class="cls-18" d="M169.72,140.88s.01.02.02.03c0,0-.02,0-.03-.01,0,0,0-.01,0-.01Z"/>
          <path class="cls-18" d="M172.55,125.05s-.01,0-.02,0c0,0,.01,0,.02,0h0Z"/>
          <path class="cls-18" d="M168.04,133s0-.01.01-.02c0,0,0,0,0,.01,0,0,0,0-.01,0,0,0,0,0,0,0Z"/>
          <path class="cls-18" d="M168.71,128.12s0,.01-.01.02c0,0,0-.01,0-.01,0,0,0,0,.01,0,0,0,0,0,0,0Z"/>
          <path class="cls-17" d="M171.2,135.52s.01,0,.02,0c0,0-.01.01-.02.02,0,0,0-.01,0-.01,0,0,0,0,.01-.01Z"/>
          <path class="cls-15" d="M172.21,126.08s-.02.03-.03.05h0s.02-.03.03-.05h0Z"/>
          <path class="cls-19" d="M168.91,129.19s0-.01.01-.02c0,0,0,.02-.01.02,0,0,0,0,0,0Z"/>
          <path class="cls-17" d="M169.69,133.29c.07-.02.12.04.14.14.02.09-.02.16-.11.18s-.14-.05-.16-.16c-.02-.09.04-.16.12-.16Z"/>
          <path class="cls-17" d="M169.48,136.69c-.02-.12.05-.19.14-.21.12-.02.19.05.23.19.02.12-.02.21-.12.23-.12.02-.21-.05-.25-.21Z"/>
          <path class="cls-17" d="M171.99,136.54c.02.14-.05.23-.16.25-.14.02-.23-.07-.25-.19-.04-.14.02-.25.18-.26.11-.02.19.07.23.21Z"/>
          <path class="cls-17" d="M170.35,131.34v.02s.02.02.04.02c.3.18.56.39.81.65.02.02.04.04.05.04,0,.02.02.04.02.05.25.23.46.47.61.77.26.32.39.7.56,1.09-.54-.04-1.02-.18-1.47-.47-.19-.09-.37-.18-.53-.33-.04-.09-.14-.04-.18-.12-.3-.23-.58-.47-.81-.79t-.02-.04s-.05-.05-.09-.09c-.32-.37-.56-.81-.79-1.26-.04-.05-.07-.12-.12-.21.67.07,1.28.3,1.86.67t.04.02h.02Z"/>
          <path class="cls-17" d="M167.77,127.36c-.04-.05-.02-.12-.09-.16h.02c.02-.05.05-.04.09-.02.21.05.4.12.6.23.23.14.49.21.7.4.26.19.51.39.68.68.04.02.05.05.09.07l.02.02.02.02c.04.05.07.09.11.14,0,.02.02.02.02.04.02.02.02.04.04.05.02,0,.02.02.02.04.02.02.02.04.04.05.28.44.46.93.53,1.49-.7-.12-1.28-.51-1.79-1.11-.16-.12-.25-.33-.37-.51-.11-.12-.19-.26-.25-.42-.09-.21-.25-.37-.28-.61-.07-.05-.09-.16-.12-.25-.02-.05-.04-.11-.05-.16Z"/>
          <path class="cls-17" d="M169.11,136.99c-.28.25-.58.49-.93.61-.04,0-.09,0-.11.05-.04,0-.07.02-.12.02-.32.18-.68.12-1.04.11-.28-.02-.58-.09-.84-.21-.02,0-.04,0-.05-.02-.04,0-.09,0-.12-.05-.02,0-.04-.02-.07-.02-.11,0-.19-.07-.3-.11-.16,0-.28-.12-.46-.16.16-.11.3-.19.44-.25.11-.07.21-.14.32-.19.02-.02.05-.04.07-.05.16-.07.32-.14.47-.21.04-.02.07-.04.11-.04.05-.02.11-.04.16-.05.05-.02.12-.04.18-.04.02-.02.04-.02.05-.02s.04-.02.05-.02c.07-.04.14-.07.21-.04.07,0,.16,0,.23-.02.07-.02.16-.04.23,0,.54,0,1.04.18,1.51.49.09.07.11.11.02.19Z"/>
          <path class="cls-17" d="M171.7,134.38c.12-.04.21.05.23.18.04.14-.02.25-.19.28-.09,0-.16-.09-.19-.23-.02-.14.05-.21.16-.23Z"/>
          <path class="cls-17" d="M171.44,139.96c.02.12-.02.19-.12.21s-.19-.05-.21-.16c-.02-.14.04-.23.16-.25.09,0,.16.05.18.19Z"/>
          <path class="cls-17" d="M165.6,131.61c.6-.09,1.18-.14,1.75.05.37.11.7.28,1.02.54.35.25.61.6.84,1.02-.46.18-.93.19-1.4.04-.07,0-.12-.02-.18-.05-.07-.02-.14-.02-.19-.07-.02-.02-.04-.02-.05-.04l-.02.02v-.02s-.05-.02-.07-.04c-.05-.02-.11-.05-.16-.07-.02-.02-.04-.02-.05-.04-.04-.02-.05-.04-.09-.05t-.04-.02s-.04-.02-.05-.04-.04-.02-.04-.04c-.12-.07-.25-.16-.35-.26-.05-.02-.09-.04-.11-.09-.3-.25-.53-.54-.82-.86Z"/>
          <path class="cls-17" d="M170.85,140.38c-.05.46-.18.89-.39,1.26-.16.33-.35.61-.61.84-.02.04-.04.11-.09.11-.19.18-.4.32-.63.44-.25.19-.53.26-.84.42.18-.53.26-1.05.51-1.49.04-.09.07-.18.11-.25.04-.09.07-.16.12-.21.02-.02.02-.04.04-.05.02,0,.04-.04.04-.05.02-.07.05-.12.11-.16.14-.21.32-.39.51-.53.02,0,.05-.02.05-.05.3-.23.61-.35.96-.42.12-.04.14.02.12.14Z"/>
          <path class="cls-17" d="M171.02,130.96c-.02-.12.04-.18.12-.21.09,0,.18.04.18.16.02.09-.02.18-.11.19-.09.02-.16-.02-.19-.14Z"/>
          <path class="cls-17" d="M169.21,134.29c.07-.04.12-.04.19-.02h.09s.02.02.04.02c.05-.02.09-.02.14.02h.02c.18.02.35.07.53.12.02,0,.04.02.04.02.02,0,.04.02.05.02.04.02.07.02.11.04,0,0,.02,0,.02.02.04.02.09.04.12.07.04,0,.05.02.07.04h.02c.12.07.25.14.35.21.26.18.53.35.75.61.05.11.23.14.21.26-.04.14-.19.07-.32.09-.02,0-.04.02-.07.02-.19.11-.4.12-.6.14h-.09c-.05-.04-.11-.02-.16,0h-.35s-.05-.02-.09-.02c-.09-.02-.18-.04-.28-.05h-.02s-.07.02-.11-.04c-.25-.02-.49-.14-.74-.25,0-.02-.02-.02-.04-.02l-.04-.04c-.49-.21-.91-.58-1.35-.96.39-.21.79-.32,1.19-.32.11-.02.21-.04.3.02Z"/>
          <path class="cls-17" d="M172.69,138.48c-.04-.16.04-.26.16-.3.11-.04.19.05.23.19.02.14-.04.26-.16.28s-.19-.04-.23-.18Z"/>
          <path class="cls-17" d="M172.83,133.31c-.12,0-.21-.09-.25-.25-.02-.16.05-.25.19-.26.14-.02.23.07.25.23.04.14-.04.25-.19.28Z"/>
          <path class="cls-17" d="M173.39,143.43c.11.56.04,1.12-.11,1.67v.04s-.02.04-.02.05-.02.04-.02.04c.02.07-.04.07-.05.12-.02.28-.16.51-.28.72-.09.12-.12.28-.23.39-.25.4-.54.74-.88,1.11-.02-.16-.02-.28-.04-.4-.02-.05-.04-.11,0-.16v-.4c-.04-.05-.02-.11,0-.16-.02-.19.02-.37.05-.56v-.04c.02-.09.04-.16.04-.23.04-.21.09-.42.18-.6.21-.74.63-1.28,1.18-1.7.11-.09.16-.05.18.12Z"/>
          <path class="cls-17" d="M173.79,138.94c-.09.14-.04.33-.11.47.04.07.02.11-.04.12v.02s.02.02.02.04c.02.04.02.05,0,.07-.09.42-.16.86-.35,1.23-.21.67-.6,1.19-1.04,1.65-.26.26-.53.49-.84.68,0-1.18.23-2.21.84-3.09.04-.11.11-.16.16-.23.09-.07.11-.21.19-.25.18-.19.35-.39.56-.53,0-.02.04-.05.04-.09.02.02.04.02.05,0,.12-.11.25-.18.39-.23.14-.05.12.11.12.12Z"/>
          <path class="cls-17" d="M171.99,126.43c-.11-.25-.09-.53-.12-.81v-.18c-.04-.49.02-.96.09-1.46.25.32.47.61.65.96.02,0,.02.02.02.04.02.02.04.04.04.05.02,0,.02.02.02.04.02.02.02.04.04.04,0,.04.02.07.04.09,0,.02.02.04.02.05.04.05.05.11.09.16,0,.02.02.04.02.05.02.02.04.05.04.09.09.12.14.28.18.44.32.89.32,1.77.11,2.7-.42-.47-.79-.96-1-1.6-.02-.02-.02-.04-.02-.05-.09-.19-.14-.39-.18-.61Z"/>
          <path class="cls-17" d="M171.51,129.91c-.21-.56-.3-1.12-.33-1.74.6.3,1.04.81,1.42,1.37.16.16.25.39.37.58.04.05.05.09.09.14.02.04.04.09.04.14,0,0,0,.02.02.04.04,0,.04.05.04.09.02.02.02.04.04.05h.02c.07.09.11.21.12.32.07.19.16.35.18.54v.05s.02.02.02.04c.04.11.07.21.07.32.02.05.02.09.02.14.05.16.12.3.02.44.12.09.07.23.09.37-.19-.18-.42-.21-.58-.4-.26-.23-.53-.46-.7-.77-.39-.47-.68-1.02-.88-1.61-.02-.04-.02-.07-.04-.09Z"/>
          <path class="cls-17" d="M174.02,135.73c.05.32-.12.6-.39.63-.26.04-.49-.18-.54-.51-.05-.3.09-.53.35-.58.28-.04.53.14.58.46Z"/>
          <path class="cls-17" d="M173.21,139.01s.02.02.02.04c-.02,0-.02-.02-.04-.04h.02Z"/>
          <path class="cls-17" d="M169.58,138.13s.04-.02.04-.04c.04-.02.05-.02.07-.04.3-.28.63-.46,1.02-.53h.02c.23-.16.47-.18.74-.18h.19c.28,0,.54.05.84.18-.21.23-.3.56-.56.72-.04.16-.14.23-.25.3,0,.02-.02.04-.04.04-.04.05-.09.09-.14.11-.39.37-.82.56-1.3.68-.21.05-.42.11-.65.09l-.02.02h-.02c-.16,0-.32.02-.47-.02-.16,0-.33-.04-.51-.07.3-.51.6-.98,1.04-1.26Z"/>
        </g>
        <path class="cls-22" d="M149.1,197.53l-.28-1.5,2.71-.66s.11.44.06,1-.11.78-.11.78l-2.38.39Z"/>
      </g>
      <path class="cls-12" d="M244.42,123.46c0,30.49-11.28,58.35-29.91,79.62-1.99,2.29-4.08,4.5-6.24,6.62-2.19,2.16-4.47,4.23-6.82,6.21-1.87,1.59-3.78,3.11-5.75,4.58-1.32.98-2.67,1.95-4.04,2.88-1.8,1.23-3.63,2.41-5.5,3.55-3.7,2.24-7.52,4.3-11.47,6.13-5.89,2.77-12.04,5.07-18.4,6.86-3.71,1.05-7.5,1.92-11.35,2.61-1.89.34-3.79.63-5.71.88-5.16.67-10.43,1.02-15.77,1.02s-10.61-.35-15.77-1.02c-4.13-.54-8.2-1.28-12.2-2.24-6.95-1.64-13.67-3.88-20.09-6.68-4.33-1.86-8.52-3.98-12.57-6.34-6.25-3.62-12.14-7.79-17.61-12.44-2.73-2.3-5.35-4.73-7.85-7.28-.03-.03-.06-.05-.07-.08l-.02-.02c-1.71-1.73-3.37-3.51-4.97-5.34h0c-3.32-3.81-6.4-7.82-9.23-12.01h-.01s-.02-.05-.03-.06c-.01-.01-.02-.03-.03-.05h0C10.06,171.59,2.5,148.41,2.5,123.46,2.5,56.66,56.66,2.5,123.46,2.5s120.96,54.16,120.96,120.96Z"/>
    </g>
  </g>
</svg>