<?xml version="1.0" encoding="UTF-8"?>
<svg id="Capa_2" data-name="Capa 2" xmlns="http://www.w3.org/2000/svg" viewBox="0 0 213.19 119.95">
  <defs>
    <style>
      .cls-1 {
        fill: #9fcb8f;
      }

      .cls-1, .cls-2, .cls-3 {
        stroke-width: 0px;
      }

      .cls-2 {
        fill: #d9e8c3;
      }

      .cls-3 {
        fill: #69aa4c;
      }
    </style>
  </defs>
  <g id="Capa_1-2" data-name="Capa 1">
    <g>
      <path class="cls-1" d="m147.29.13c-11.56,0-22.26-.07-32.96.09-1.25.02-2.79,1.06-3.68,2.08-13.48,15.42-26.88,30.92-40.29,46.39-.03.04-.06.07-.1.11-5.54,6.39-5.54,15.89,0,22.29,1.66,1.91,3.31,3.82,4.97,5.73,11.75,13.55,23.53,27.07,35.21,40.68,1.54,1.79,3.13,2.47,5.46,2.44,9.28-.12,18.56-.05,27.84-.06.98,0,1.97,0,3.69,0-17.56-20.24-34.68-39.96-52-59.93C112.63,40.11,129.73,20.38,147.29.13Z"/>
      <path class="cls-3" d="m161.18,59.94C178.51,39.97,195.56,20.3,213.09.09c-5.99,0-11.24,0-16.5,0-5.4,0-10.81-.07-16.21.05-1.09.02-2.52.43-3.19,1.2-12.55,14.38-25.05,28.8-37.61,43.3-7.61,8.78-7.63,21.84-.02,30.62.04.05.09.1.13.15,12.22,14.09,24.48,28.15,36.64,42.29,1.39,1.61,2.78,2.27,4.92,2.25,10.4-.11,20.79-.05,31.92-.05-17.52-20.2-34.69-39.99-52.01-59.95Z"/>
      <path class="cls-2" d="m79.66,119.88c-17.58-20.26-34.71-40.01-52-59.93C44.91,40.07,62.02,20.33,79.57.09c-10.48,0-20.32.16-30.15-.09-3.52-.09-5.71,1.12-7.95,3.74C29.55,17.64,17.55,31.45,5.46,45.37c-7.26,8.36-7.29,20.8-.03,29.17.04.05.09.1.13.15,12.63,14.55,25.25,29.1,37.94,43.59.69.79,1.96,1.53,2.97,1.54,10.8.11,21.61.07,33.2.07Z"/>
    </g>
  </g>
</svg>