<?xml version="1.0" encoding="UTF-8"?>
<svg id="Capa_2" data-name="Capa 2" xmlns="http://www.w3.org/2000/svg" viewBox="0 0 213.19 119.95">
  <defs>
    <style>
      .cls-1 {
        fill: #9fcb8f;
      }

      .cls-1, .cls-2, .cls-3 {
        stroke-width: 0px;
      }

      .cls-2 {
        fill: #d9e8c3;
      }

      .cls-3 {
        fill: #69aa4c;
      }
    </style>
  </defs>
  <g id="Capa_1-2" data-name="Capa 1">
    <g>
      <path class="cls-1" d="m65.91.13c11.56,0,22.26-.07,32.96.09,1.25.02,2.79,1.06,3.68,2.08,13.48,15.42,26.88,30.92,40.29,46.39.03.04.06.07.1.11,5.54,6.39,5.54,15.89,0,22.29-1.66,1.91-3.31,3.82-4.97,5.73-11.75,13.55-23.53,27.07-35.21,40.68-1.54,1.79-3.13,2.47-5.46,2.44-9.28-.12-18.56-.05-27.84-.06-.98,0-1.97,0-3.69,0,17.56-20.24,34.68-39.96,52-59.93C100.56,40.11,83.46,20.38,65.91.13Z"/>
      <path class="cls-3" d="m52.01,59.94C34.68,39.97,17.63,20.3.1.09c5.99,0,11.24,0,16.5,0,5.4,0,10.81-.07,16.21.05,1.09.02,2.52.43,3.19,1.2,12.55,14.38,25.05,28.8,37.61,43.3,7.61,8.78,7.63,21.84.02,30.62-.04.05-.09.1-.13.15-12.22,14.09-24.48,28.15-36.64,42.29-1.39,1.61-2.78,2.27-4.92,2.25-10.4-.11-20.79-.05-31.92-.05,17.52-20.2,34.69-39.99,52.01-59.95Z"/>
      <path class="cls-2" d="m133.53,119.88c17.58-20.26,34.71-40.01,52-59.93C168.28,40.07,151.17,20.33,133.62.09c10.48,0,20.32.16,30.15-.09,3.52-.09,5.71,1.12,7.95,3.74,11.91,13.89,23.91,27.71,36,41.62,7.26,8.36,7.29,20.8.03,29.17-.04.05-.09.1-.13.15-12.63,14.55-25.25,29.1-37.94,43.59-.69.79-1.96,1.53-2.97,1.54-10.8.11-21.61.07-33.2.07Z"/>
    </g>
  </g>
</svg>