<?xml version="1.0" encoding="UTF-8"?>
<svg id="Capa_2" data-name="Capa 2" xmlns="http://www.w3.org/2000/svg" viewBox="0 0 181.75 205.2">
  <defs>
    <style>
      .cls-1 {
        opacity: .1;
        stroke-width: 0px;
      }
    </style>
  </defs>
  <g id="Capa_1-2" data-name="Capa 1">
    <path class="cls-1" d="m97.91,205.2h-13.48c-1.24-.22-2.47-.52-3.71-.64-12.09-1.18-23.56-4.4-34.16-10.44-19.54-11.13-31.32-28.36-38.12-49.28C.02,118.97.34,92.57,4.51,66.06c1.26-7.98,3.19-15.86,4.84-23.78.4-1.9.77-3.98-1.54-4.72-3.98-1.26-6.32-3.98-7.81-7.67v-4.1c1.55-4.9,3.39-9.73,4.57-14.71C5.76,6.04,7.97,2.08,12.9,0h4.1c.52.24,1.03.54,1.57.7,9.81,2.94,19.63,5.84,29.44,8.79,6.13,1.85,8.82,6.74,7.17,12.96-.55,2.07-1.14,4.13-1.75,6.19-6.06,20.51-11.98,41.03-12.81,62.61-.63,16.33.31,32.43,6.78,47.71,5.84,13.79,15.54,23.53,30.7,26.11,6.94,1.18,14.22,1.29,21.25.72,13.36-1.07,23.75-7.65,30.97-19.06,3.97-6.26,6.53-13.09,8.12-20.28,5.44-24.72,2.8-49.13-3.19-73.33-2.55-10.31-5.8-20.45-8.64-30.7-1.76-6.34,1.06-11.16,7.41-13.01,2.06-.6,4.12-1.21,6.17-1.84C148.38,5.07,156.56,2.53,164.75,0c1.37,0,2.74,0,4.1,0,5.01,2.01,7.12,6.06,8.34,11.07,1.22,4.98,3.01,9.82,4.55,14.73v4.1c-1.44,2.88-2.88,5.7-6.17,7.04-3.78,1.54-3.95,2.06-2.99,5.94,5.22,21.04,8.15,42.34,7.28,64.06-.61,15.21-3.1,30.09-8.81,44.28-11.07,27.53-30.43,45.58-59.94,51.79-4.37.92-8.81,1.47-13.22,2.19ZM15.66,105.63s-.09.01-.14.02c.49,4.95.89,9.91,1.5,14.84.41,3.27,2.69,4.88,6,4.56,3.05-.29,5.03-2.45,4.84-5.49-.4-6.23-.85-12.46-1.36-18.68-.24-2.91-2.62-4.85-5.62-4.79-3.02.06-5.09,2.08-5.21,5.15-.05,1.46,0,2.93,0,4.39Zm150.58.29l-.14-.02c0-1.46.03-2.93,0-4.39-.09-3.33-2.06-5.34-5.25-5.41-3.17-.07-5.37,1.91-5.61,5.09-.44,5.93-.88,11.86-1.29,17.79-.24,3.56,1.54,5.77,4.82,6.06,3.42.31,5.6-1.37,6.02-4.88.56-4.74.97-9.5,1.45-14.25Zm-1.12-26.67c-.45-3.41-.96-7.47-1.54-11.52-.31-2.12-.63-4.25-1.16-6.32-.74-2.85-3.36-4.21-6.43-3.57-2.81.59-4.55,2.83-4.18,5.75.74,5.79,1.55,11.58,2.47,17.35.48,3.01,2.81,4.52,6.01,4.2,2.89-.29,4.81-2.38,4.84-5.9Zm-148.52-.76c-.13,4.05,1.52,6.37,4.94,6.69,3.66.34,5.65-1.62,6.16-5.72.63-5.02,1.42-10.02,2.16-15.03.53-3.57-.93-5.91-4.14-6.55-3.48-.7-5.88.84-6.53,4.47-.96,5.37-1.74,10.76-2.6,16.15Zm5.19,62.57c1.95,5.57,3.81,11.8,8.02,16.81,1.7,2.02,4.33,1.42,6.43-.08,2.03-1.45,2.95-3.47,1.95-5.87-1.91-4.58-3.9-9.14-6.04-13.63-1.14-2.4-3.31-3.25-5.9-2.63-2.51.6-4.13,2.12-4.46,5.4Zm138.11-.08c0-2.74-1.83-4.8-4.5-5.39-2.53-.56-4.82.6-5.95,3.09-1.89,4.17-3.75,8.35-5.62,12.53-1.28,2.87-.27,5.7,2.54,7.16,2.66,1.38,5.59.67,7.01-2.14,2.11-4.17,3.91-8.49,5.79-12.77.39-.88.56-1.86.73-2.48Z"/>
  </g>
</svg>