<?xml version="1.0" encoding="UTF-8"?>
<svg id="Capa_2" data-name="Capa 2" xmlns="http://www.w3.org/2000/svg" viewBox="0 0 313.15 251.09">
  <defs>
    <style>
      .cls-1 {
        stroke-width: 0px;
      }

      .cls-2 {
        opacity: .1;
      }
    </style>
  </defs>
  <g id="Capa_1-2" data-name="Capa 1">
    <g id="cNo06f" class="cls-2">
      <path class="cls-1" d="m274.75,5.91V0H42.86v25.85L0,36.6l1.2,4.8,41.66,2.17v207.51h231.88V54.65c2.32.57,10.93,1.91,12.19.75l26.21-49.49h-38.4Zm-109.43,65.96c1.08-2.06,7.01-13.19,9.72-11.31,2.89,8.92,1.13,18.48-.11,27.57-3.29,23.91-11.05,51.83-19.26,74.53-2.15,5.94-14.29,37.65-20.87,37.46-1.33-1.77-1.78-5.54-1.87-7.7-1.18-27.94,19.11-95.12,32.39-120.54Zm117.06-23.08c-20.12-1.77-40.3-3.81-60.44-5.21-64.33-4.48-128.54-6.92-193.1-7.4l16.84-4.2c56.42-11.2,114.31-16.12,171.81-17.98,25.71-.83,52.02.29,77.6-.68,2.11-.08,4.1-1.04,6.24-.76l-18.95,36.23Z"/>
    </g>
  </g>
</svg>