<?xml version="1.0" encoding="UTF-8"?>
<svg id="Capa_2" data-name="Capa 2" xmlns="http://www.w3.org/2000/svg" viewBox="0 0 498.06 498.06">
  <defs>
    <style>
      .cls-1 {
        fill: #600808;
      }

      .cls-1, .cls-2 {
        stroke-width: 0px;
      }

      .cls-2 {
        fill: #fff;
      }
    </style>
  </defs>
  <g id="Capa_1-2" data-name="Capa 1">
    <g>
      <circle class="cls-1" cx="249.03" cy="249.03" r="249.03"/>
      <g>
        <path class="cls-2" d="m248.77,301.19c-27.38,0-49.65-22.27-49.65-49.65s22.27-49.65,49.65-49.65,49.65,22.27,49.65,49.65-22.27,49.65-49.65,49.65Zm0-83.78c-18.82,0-34.13,15.31-34.13,34.13s15.31,34.13,34.13,34.13,34.13-15.31,34.13-34.13-15.31-34.13-34.13-34.13Z"/>
        <path class="cls-2" d="m318.25,200.17c-8.69,0-15.76-7.07-15.76-15.76s7.07-15.76,15.76-15.76,15.76,7.07,15.76,15.76-7.07,15.76-15.76,15.76Zm0-16.01c-.13,0-.24.11-.24.24s.11.24.24.24.24-.11.24-.24-.11-.24-.24-.24Z"/>
        <path class="cls-2" d="m297.81,366.36h-97.57c-37.8,0-68.55-30.75-68.55-68.55v-97.57c0-37.8,30.75-68.55,68.55-68.55h97.57c37.8,0,68.55,30.75,68.55,68.55v97.57c0,37.8-30.75,68.55-68.55,68.55Zm-97.57-219.15c-29.24,0-53.03,23.79-53.03,53.03v97.57c0,29.24,23.79,53.03,53.03,53.03h97.57c29.24,0,53.03-23.79,53.03-53.03v-97.57c0-29.24-23.79-53.03-53.03-53.03h-97.57Z"/>
      </g>
    </g>
  </g>
</svg>