<?xml version="1.0" encoding="UTF-8"?>
<svg id="Capa_2" data-name="Capa 2" xmlns="http://www.w3.org/2000/svg" viewBox="0 0 694.65 258.1">
  <defs>
    <style>
      .cls-1 {
        fill: #f7aa44;
      }

      .cls-1, .cls-2, .cls-3 {
        stroke-width: 0px;
      }

      .cls-2 {
        fill: none;
      }

      .cls-3 {
        fill: #f9c36e;
      }
    </style>
  </defs>
  <g id="Capa_1-2" data-name="Capa 1">
    <g>
      <path class="cls-2" d="m154.77,216.88c-.21,1.44-.56,2.85-1.04,4.2l53.68,1.32c-.37-1.5-.58-3.05-.62-4.63l-52.02-.89Z"/>
      <polygon class="cls-2" points="62.94 67.24 60.31 71.25 60.22 145.89 117.05 146.32 117.05 71.25 114.67 67.33 62.94 67.24"/>
      <polygon class="cls-2" points="34.66 145.69 54.67 145.85 54.67 71.25 52.23 67.22 34.66 67.19 34.66 145.69"/>
      <polygon class="cls-2" points="125.25 67.35 122.69 71.25 122.6 146.37 175.29 146.77 175.29 71.49 172.85 67.45 183.56 67.47 180.93 71.49 180.84 146.81 239.36 147.26 239.36 71.53 236.94 67.54 125.25 67.35"/>
      <path class="cls-2" d="m334.75,219.26c-1.13.47-9.32,4.45-9.63,4.11,1.29,1.4,2.75,2.62,4.3,3.7l10.13-7.58c-1.76-.62-3.41-.82-4.81-.24Z"/>
      <path class="cls-2" d="m32.26,214.79v3.32l15.41.38c-.21-1.13-.34-2.27-.39-3.44l-15.02-.26Z"/>
      <polygon class="cls-2" points="247.6 67.56 245 71.53 244.91 147.31 292.16 147.67 292.16 71.53 289.8 67.64 247.6 67.56"/>
      <path class="cls-2" d="m440.28,212c1.82-3.21,1.89-7.19,1.89-7.19-1.64,3.09-7.38,6.99-9.75,8.51-.11.08-.22.15-.33.22,2.73-.51,5.46-1.02,8.19-1.54Z"/>
      <path class="cls-2" d="m310.37,219.46s0,.03,0,.04c-.3,1.66-.77,3.27-1.39,4.82,1.96-.73,3.58-1.08,4.7-2.67-.21-.4-3.03-3.22-3.3-2.2Z"/>
      <path class="cls-2" d="m482.39,222.22c2.74.01,5.27-.65,7.95-1.29,11.67-2.79,10.26-3.67,10.42-15.28-1.8.02-3.5.4-5.28.73-4.12,4.6-11.32,10.16-13.09,15.84Z"/>
      <path class="cls-2" d="m467.81,188.7c-.79-1.25-1.5-2.56-2.11-3.94-.54,11.85-13.14,21.45-21.32,26.46,14.77-2.84,25.36-2.48,23.85-20.93-.04-.47-.19-.98-.43-1.58Z"/>
      <path class="cls-2" d="m522.89,211.6c1.8.07,3.31-.01,4.68-1.1-2.43-1.42-2.87,1.16-4.68,1.1Z"/>
      <polygon class="cls-2" points="334.61 153.27 334.61 153.27 334.8 67.68 315.27 67.68 300.34 67.66 297.8 71.53 297.71 147.71 334.61 147.99 334.61 153.27"/>
      <polygon class="cls-2" points="321.67 219.61 322.32 219.36 321.43 219.37 321.67 219.61"/>
      <path class="cls-3" d="m426.59,192.02c-.33.06-.65.11-.95.13,0,0,.37-.04.95-.13Z"/>
      <rect class="cls-3" x="52.23" y="67.23" width="10.71" height="0"/>
      <path class="cls-3" d="m692.25,148.98c-.59-1.41-1.25-2.8-1.93-4.13-4.41-8.61-7.9-17.21-7.45-27.1.42-2.82,1.18-10.61-1.98-16.31,6.89-15.39,3.87-24.88,3.87-24.88-7.14,1.75-17.85,12.12-20.76,15.04l3.8-7.72s-6.04,3.75-9.53,7.57c.36-15.67-8.13-20.53-8.13-20.53-4.32,3.18-6.67,9.97-7.95,16.6-6.55-.54-14.53.38-22.63,5.09,0,0,5.94-.78,6.72-.78-5.07,0-14,5.37-18.96,7.19,3.04-.29,6.07-.58,9.11-.87-7.2,3.01-14.4,6.01-21.6,9.02,3.12-.1,6.25-.19,9.37-.29-6.42,2.81-12.84,5.62-19.26,8.44,3.38-.49,6.77-.97,10.15-1.46-5.99,2.59-11.97,5.18-17.96,7.77,1.66.14,3.31.28,4.97.41-4.78,1.98-10.14,5.15-15.48,3.42-7.96-2.58-16.08-4.88-24.42-5.51-9.75-.74-19.67.86-28.7,4.63-4.24,1.77-8.28,4-12.65,5.42-17.5,5.68-43.12,8.68-48.55,30.31-4.25,16.89-17.95,30.29-25.72,31.73,1.78-.25,5.55-.85,6.72-1.62,0,0-6.9,9.02-11.71,10.18,0,0,8.59-2.18,10.93-5.53,0,0-7.51,10.2-10.13,11.21,0,0,14.19-5.63,18.56-10.71-2.37,3.36-8.91,11.92-15.46,14.42,0,0,12.23-4.88,15.35-7.78,0,0-3.93,7.91-8.45,11.13,2.38-1.52,8.12-5.42,9.75-8.51,0,0-.07,3.98-1.89,7.19-2.73.52-5.46,1.03-8.19,1.54.11-.07.22-.14.33-.22-.13.08-.25.16-.36.23-5.95,1.1-11.9,2.18-17.87,3.2-12.01,2.07-24.06,4.01-36.17,5.4-6.99.81-13.98,1.92-21.04,1.53-6.04-.34-8.44-4.45-10.96-9.02l-6.47,4.84c5,1.77,10.9,7.03,14.55,8.02,9.13,2.48,20.38-.6,29.57-1.73,6.78-.83,81.43-11.26,81.21-13.69.02.22.04.45.06.7.02.36.05.73.07,1.12.1,2.21.07,5.15-.42,8.4-.19,1.29-.59,2.78-1.11,4.36-27.97,3.56-53.85,5.49-69.19,6.05-16.6.6-33.97,3.29-50.47.17-5.12-.97-10.17-2.84-14.41-5.81l-5.48,4.1c.59.52,1.16,1.04,1.77,1.54,6.71,5.59,25.33,8.99,55.66,7.3,9.13-.51,30.32-2.31,39.32-3.93,12.17-2.19,23.35-4.42,42.58-8.81-.91,2.12-3.35,7.82-4.79,11.15-1.13,2.28-1.95,3.81-1.95,3.81l.1.03c-1.4,2.89-3.34,8.66,1.89,11.08,6.43,2.97,15.43,6.04,15.84-7.75,0,0-.13-.04-.13-.04l.1.03c.03-2.28,3.02-13.94,3.19-14.6.77-2.28,1.7-4.56,2.81-6.63,7.33-1.09,14.68-2.29,21.91-3.6.69-.13,6.93,18.1,7.23,19.38.88,3.69,1.43,7.56,3.34,10.84,4.89,8.39,24.86,3.3,20.17-3.74-1.26-1.89-4.25-6.17-4.25-6.17-.99-1.58-4.8-7.82-5.9-9.63-2.08-4.36-3.72-9.46-3.25-14.13,8.32-1.81,16.32-3.79,23.72-5.95,10.35.49,21.31.76,24.29-.1,0,0-.02.11-.05.32-1.32,8.84-3.56,16.99-6.75,25.36-2,5.25-5.02,15.14.13,19.31,3.11,2.52,14.09,2.79,16.23-1.18,2.31-4.28,2.22-8.72,2.22-8.84h.03c-.22-2.16.98-10.43.99-11.62,1.16-8.1,3.42-18.27,7.74-24.12.03-.04.05-.07.08-.11,0,0,11.08-3.38,11.44-3.49,1.14-.35,13.59,42.75,13.96,44.09,1.67,6.09,5.36,7.46,11.22,6.59,14.98-2.24,8.41-18.32,3.47-26.9-3.27-5.67-5.6-9.96-6.93-16.55-1.86-9.18-4.72-16.94-2.39-26.19,2.01-8,8.62-34.41,20.24-33.12,4.31.48,15.81,6.11,18.55,9.67.63.82.98,1.84,1.66,2.63,1.51,1.77,4.61,1.81,6.16.08,3.6,4.35,9.2,7.12,14.84,6.82s11.1-3.89,13.19-9.14c2.02-5.1.79-10.71-1.37-15.9Zm-247.87,62.24c8.18-5.01,20.77-14.61,21.32-26.46.61,1.38,1.32,2.7,2.11,3.94.23.6.39,1.12.43,1.58,1.5,18.45-9.08,18.09-23.85,20.93Zm32.38,22.21c.23-.79.48-1.59.75-2.39-.27.8-.52,1.6-.75,2.39Zm13.58-12.5c-2.68.64-5.21,1.3-7.95,1.29,1.77-5.68,8.98-11.24,13.09-15.84,1.78-.32,3.48-.7,5.28-.73-.16,11.6,1.25,12.49-10.42,15.28Zm33.62,12.71c-.16-.29-.31-.59-.47-.9.16.3.31.6.47.9Zm-1.06-22.03c1.81.07,2.25-2.51,4.68-1.1-1.37,1.08-2.88,1.16-4.68,1.1Zm86.93,25.13c.11.4.22.8.33,1.2-.11-.4-.22-.8-.33-1.2Z"/>
      <path class="cls-1" d="m325.12,223.37c.31.33,8.5-3.64,9.63-4.11,1.4-.59,3.05-.39,4.81.24l6.47-4.84c-.37-.67-.74-1.35-1.13-2.03-.97-1.7-1.94-3.39-2.9-5.09l.02-2.47h.05s.21-137.39.21-137.39h-3.56s7.74,0,7.74,0l.38-7.51,16.53-15.41h1.13s-67.27-27.61-67.27-27.61l-75.53.33L201.38,0l-46.07.39-14.2,17.45-54.5.24L1.14,46.26H0s18.79,13.91,18.79,13.91l.56,6.99s5.18,0,5.17,0v70.46l-9.86,2.95v52.27l-4.38.05,1.75,5.25-1.25,10.07h-.26s0,6.2,0,6.2l12.31.21v2.63h-12.55v9.02l40.61.63c5.74,9.66,17.67,16.32,31.44,16.32,9.97,0,18.97-3.5,25.36-9.09,4.91,2.97,10.94,4.72,17.45,4.72,9.98,0,18.82-4.12,24.25-10.42l61.15.95c5.1,7.65,14.88,12.84,26.09,12.84,6.28,0,12.1-1.63,16.92-4.4,6.04,4.12,13.75,6.59,22.13,6.59,12.41,0,23.32-5.41,29.56-13.55l1.71.03,11.46-4.79c1.69,1.64,3.58,3.37,5.54,5.08l5.48-4.1c-1.55-1.09-3.01-2.3-4.3-3.7Zm-292.86-5.27v-3.32l15.02.26c.05,1.16.18,2.31.39,3.44l-15.41-.38Zm84.79-71.78l-56.83-.44.09-74.64,2.63-4.01-10.71-.02,2.44,4.03v74.59l-20.01-.15v-78.5l17.57.03h0s10.71.02,10.71.02h0s51.73.09,51.73.09l2.38,3.92v75.07Zm36.68,74.76c.49-1.36.84-2.76,1.04-4.2l52.02.89c.04,1.58.24,3.13.62,4.63l-53.68-1.32Zm85.63-73.82l-58.52-.45.09-75.33,2.63-4.01-10.71-.02,2.44,4.03v75.28l-52.7-.4.09-75.12,2.56-3.9,111.7.2,2.42,3.99v75.73Zm52.8.41l-47.26-.36.09-75.77,2.6-3.97,42.2.07,2.36,3.9v76.13Zm16.81,76.66c.62-1.56,1.09-3.17,1.39-4.82,0-.01,0-.03,0-.04.27-1.03,3.1,1.8,3.3,2.2-1.13,1.59-2.75,1.94-4.7,2.67Zm-11.26-76.62l.09-76.18,2.54-3.88,14.92.03h19.54l-.19,85.59h0v-5.28l-36.9-.28Zm23.96,71.9l-.23-.23h.88s-.65.23-.65.23Z"/>
    </g>
  </g>
</svg>