<?xml version="1.0" encoding="UTF-8"?>
<svg id="Capa_2" data-name="Capa 2" xmlns="http://www.w3.org/2000/svg" viewBox="0 0 282.41 280.48">
  <defs>
    <style>
      .cls-1 {
        stroke-width: 0px;
      }

      .cls-2 {
        opacity: .1;
      }
    </style>
  </defs>
  <g id="Capa_1-2" data-name="Capa 1">
    <g class="cls-2">
      <path class="cls-1" d="m.05,142.95C-2.56,48.06,97.55-23.03,186.46,6.94c72.09,24.3,113.92,107.99,88.44,179.97-28.48,80.47-133.24,119.77-206.83,74.4C27.43,236.25,1.36,190.64.05,142.95Zm239.98-18.47c9.52.64,10.68-.45,8.22-9.61-1.8-6.69-3.74-13.52-6.88-19.63-22.5-43.74-58.03-65.94-107.74-63.95-47.34,1.9-91.44,40.1-100.21,86.64-1.17,6.23-.33,7.14,5.84,6.83,22-1.12,42.59-7.13,62.57-16.36,9.42-4.35,19.71-7.56,29.95-9.28,18.52-3.1,35.84,2.18,52.45,10.37,17.58,8.67,36.21,13.71,55.81,14.99Zm-177.15,37.1c0,.15-.01.3-.02.44-7.59,0-15.18,0-22.76,0-4.95,0-7.04,2.16-5.54,7.16,12.04,40.34,38.23,66.52,78.56,78.56,4.41,1.32,7.16.01,7.1-4.9-.21-17.27.12-34.58-1.01-51.79-.9-13.7-14.79-26.77-28.58-28.14-9.21-.91-18.5-.92-27.76-1.33Zm157.74.31c-9.27,0-18.53.17-27.77,1.01-14.82,1.35-28.81,15.08-29.79,29.98-1.1,16.58-.69,33.26-.9,49.9-.06,4.88,2.47,6.36,6.96,5.04,40.62-12.01,66.92-38.32,78.85-78.98,1.36-4.64-.5-6.83-5.23-6.82-7.37,0-14.75-.11-22.13-.12Zm-79.5,6.37c14.42.07,27.15-12.47,27.29-26.91.14-14.46-12.25-27.16-26.76-27.43-14.66-.27-27.64,12.53-27.6,27.21.04,14.46,12.61,27.06,27.07,27.13Z"/>
    </g>
  </g>
</svg>